<svg width="16" height="14" viewBox="0 0 16 14" fill="none" xmlns="http://www.w3.org/2000/svg">
<g clip-path="url(#clip0_247_37)">
<path fill-rule="evenodd" clip-rule="evenodd" d="M0.240012 6.53003L4.30001 7.81003L12.65 2.43003C13.09 2.10003 13.68 2.25003 13.12 2.74003L6.38001 8.73003L6.09001 12.18C6.06001 12.49 6.37001 12.37 6.52001 12.25L8.50001 10.4L12.2 13.04C12.6 13.31 13.1 13.44 13.22 12.92L15.86 0.860028C15.97 0.110028 15.71 -0.139972 14.96 0.0800275L0.740012 5.55003C0.490012 5.63003 0.320012 5.71003 0.130012 5.85003C0.0200123 5.95003 -0.0399877 6.11003 0.0100123 6.26003C0.0400123 6.38003 0.100012 6.46003 0.230012 6.52003" fill="white"/>
</g>
<defs>
<clipPath id="clip0_247_37">
<rect width="15.88" height="13.28" fill="white"/>
</clipPath>
</defs>
</svg>
