<svg width="107" height="45" viewBox="0 0 107 45" fill="none" xmlns="http://www.w3.org/2000/svg">
<g clip-path="url(#clip0_209_490)">
<path d="M45.1782 32.559L51.4001 27.8904L48.0455 26.2156L45.1782 32.559Z" fill="white"/>
<path d="M48.1411 26.2456L59.6018 0L32.8713 11.4376L36.4385 13.03L32.3531 14.9688L42.7921 20.0716L39.5348 22.031L48.1411 26.2456Z" fill="white"/>
<path d="M39.6149 21.9992L33.2596 19.1104L36.2423 23.9569L39.6149 21.9992Z" fill="white"/>
<path d="M32.3686 37.5259C32.0346 37.5259 31.8375 37.7623 31.8375 38.0297C31.8375 38.2971 32.0346 38.5335 32.3686 38.5335C32.7026 38.5335 32.8998 38.2971 32.8998 38.0297C32.8998 37.7623 32.7026 37.5259 32.3686 37.5259Z" fill="white"/>
<path d="M32.3686 36.7907C32.5546 36.7907 32.6647 36.654 32.6647 36.4967C32.6647 36.3393 32.5554 36.2026 32.3686 36.2026C32.1818 36.2026 32.0725 36.3393 32.0725 36.4967C32.0725 36.654 32.1818 36.7907 32.3686 36.7907Z" fill="white"/>
<path d="M35.4297 36.2036C35.0957 36.2036 34.8986 36.4401 34.8986 36.7074C34.8986 36.9748 35.0957 37.2113 35.4297 37.2113C35.7637 37.2113 35.9608 36.9748 35.9608 36.7074C35.9608 36.4401 35.7637 36.2036 35.4297 36.2036Z" fill="white"/>
<path d="M45.235 32.5315H0L39.6665 45L45.1782 32.5581L45.1386 32.5702L45.235 32.5315ZM30.4293 39.2309H29.5969V36.2612L30.4293 35.4633V39.2309ZM32.3687 39.273C31.5914 39.273 31.0051 38.7322 31.0051 38.0298C31.0051 37.6257 31.2023 37.2955 31.5147 37.0857C31.3779 36.9336 31.2961 36.7341 31.2961 36.4985C31.2961 35.9268 31.7721 35.4651 32.3695 35.4651C32.9669 35.4651 33.4429 35.9268 33.4429 36.4985C33.4429 36.735 33.3612 36.9344 33.2243 37.0857C33.5368 37.2955 33.7339 37.6265 33.7339 38.0298C33.7339 38.7331 33.1477 39.273 32.3704 39.273H32.3687ZM36.547 37.4314L35.5226 39.2309H34.5973L35.3255 37.9455C34.6351 37.9137 34.0662 37.4107 34.0662 36.7074C34.0662 36.0041 34.6524 35.4642 35.4297 35.4642C36.207 35.4642 36.7932 36.005 36.7932 36.7074C36.7932 36.98 36.6727 37.2113 36.547 37.4314ZM39.7147 36.753C39.6992 37.0118 39.5882 37.2096 39.4324 37.4477L39.2774 37.6687L38.6964 38.4958H39.7113V39.2275H37.2365L38.1653 37.9189L38.8229 36.992C38.8272 36.986 38.8315 36.9791 38.8358 36.9723L38.8367 36.9705C38.8901 36.8932 38.9211 36.7986 38.9211 36.6971C38.9211 36.6791 38.9202 36.661 38.9185 36.6438C38.9185 36.6412 38.9185 36.6395 38.9185 36.6369C38.9021 36.4942 38.8221 36.3713 38.7084 36.2965C38.705 36.2947 38.7024 36.2922 38.699 36.2904C38.6947 36.2879 38.6904 36.2853 38.6869 36.2827C38.6809 36.2793 38.6749 36.2758 38.6688 36.2724C38.6155 36.2449 38.5561 36.2268 38.4924 36.2225C38.4846 36.2225 38.4769 36.2217 38.4683 36.2217C38.464 36.2217 38.4605 36.2217 38.4562 36.2217C38.4502 36.2217 38.4442 36.2217 38.4382 36.2217C38.2298 36.2294 38.0301 36.3687 38.0052 36.5716C37.9914 36.6885 37.9811 36.8175 37.9811 36.8175H37.2494C37.2477 36.7891 37.2459 36.7607 37.2459 36.7315C37.2459 36.5725 37.2769 36.4194 37.332 36.2801C37.5128 35.8253 37.9587 35.5038 38.4803 35.5038C38.4907 35.5038 38.501 35.5038 38.5113 35.5038C38.513 35.5038 38.5139 35.5038 38.5156 35.5038C38.5234 35.5038 38.532 35.5038 38.5397 35.5046C38.6206 35.5089 38.7007 35.5201 38.7773 35.539C38.779 35.539 38.7808 35.539 38.7825 35.5407C38.7859 35.5416 38.7894 35.5424 38.7937 35.5433C39.3231 35.6817 39.7139 36.1606 39.7139 36.7307C39.7139 36.7384 39.7139 36.7453 39.7139 36.753H39.7147Z" fill="white"/>
<path d="M90.2144 18.0433V13.9164H87.2076L88.2346 15.4812V22.1702L88.9473 21.5564V21.5572V21.5555L93.1093 17.8189V21.9347H95.0891V13.6816L90.2144 18.0433Z" fill="white"/>
<path d="M69.1971 20.203V18.7164H72.1195V16.9745H69.1971V15.7502L69.2143 15.6702H72.537V13.9163H66.1749L67.2173 15.4922V21.9346H72.6541V20.203H69.1971Z" fill="white"/>
<path d="M62.9942 13.9163H59.0121L60.0615 15.5034V21.9354H62.0413V19.8186H62.983C64.7812 19.8186 66.1086 18.6322 66.1086 16.8679C66.1086 15.1036 64.7924 13.9171 62.9942 13.9171V13.9163ZM62.8444 18.1395H62.0413V15.5945H62.8444C63.6148 15.5945 64.0754 16.1508 64.0754 16.867C64.0754 17.5832 63.6148 18.1395 62.8444 18.1395Z" fill="white"/>
<path d="M79.1256 13.9163H73.4039L74.4506 15.5V21.9354H76.4313V15.6908H79.1256V13.9163Z" fill="white"/>
<path d="M83.7963 17.0494H82.8468V15.6918H86.3692V13.9172H79.8194L80.8661 15.5001V21.9355H84.3412C85.9638 21.9355 87.0062 20.9485 87.0062 19.5153C87.0062 17.5937 85.7615 17.0494 83.7954 17.0494H83.7963ZM84.107 20.2994H82.8477V18.6426H84.107C84.6528 18.6426 84.9851 18.9736 84.9851 19.4766C84.9851 19.9795 84.6425 20.3002 84.107 20.3002V20.2994Z" fill="white"/>
<path d="M71.0014 32.6423C68.5507 32.6423 66.8058 30.9313 66.8058 28.4939C66.8058 26.0564 68.561 24.3884 71.0014 24.3884C73.4418 24.3884 75.1969 26.0779 75.1969 28.4939C75.1969 30.9099 73.4521 32.6423 71.0014 32.6423ZM73.1637 28.4947C73.1637 27.2223 72.2969 26.2713 71.0014 26.2713C69.7059 26.2713 68.8391 27.2231 68.8391 28.4947C68.8391 29.7663 69.6956 30.7723 71.0014 30.7723C72.3072 30.7723 73.1637 29.7887 73.1637 28.4947Z" fill="white"/>
<path d="M62.9942 24.5071H59.0121L60.0615 26.0942V32.5262H62.0413V30.4095H62.983C64.7812 30.4095 66.1086 29.223 66.1086 27.4587C66.1086 25.6944 64.7924 24.5079 62.9942 24.5079V24.5071ZM62.8444 28.7295H62.0413V26.1845H62.8444C63.6148 26.1845 64.0754 26.7408 64.0754 27.457C64.0754 28.1732 63.6148 28.7295 62.8444 28.7295Z" fill="white"/>
<path d="M80.2145 30.7921C78.8992 30.7465 78.0117 29.7878 78.0117 28.4947C78.0117 27.2016 78.8785 26.2464 80.2059 26.2464C80.2558 26.2464 82.4965 27.0985 82.4965 27.0985V24.9843C81.7924 24.6206 80.9445 24.3884 80.0776 24.3884C77.6373 24.3884 75.9458 26.1209 75.9458 28.5154C75.9458 30.9099 77.6158 32.6423 80.0458 32.6423C80.9126 32.6423 81.7588 32.4497 82.518 32.0439V30.0587L80.2136 30.7921H80.2145Z" fill="white"/>
<path d="M87.5967 30.7921C86.2814 30.7465 85.3939 29.7878 85.3939 28.4947C85.3939 27.2016 86.2607 26.2464 87.5881 26.2464C87.638 26.2464 89.8787 27.0985 89.8787 27.0985V24.9843C89.1746 24.6206 88.3267 24.3884 87.4598 24.3884C85.0195 24.3884 83.328 26.1209 83.328 28.5154C83.328 30.9099 84.9979 32.6423 87.428 32.6423C88.2948 32.6423 89.141 32.4497 89.9002 32.0439V30.0587L87.5958 30.7921H87.5967Z" fill="white"/>
<path d="M93.5508 28.6331V24.5062H90.5441L91.571 26.071V32.7601L92.2837 32.1462V32.1471V32.1462L96.4457 28.4087V32.5254H98.4256V24.2715L93.5508 28.6331Z" fill="white"/>
<path d="M102.125 28.6331V24.5062H99.1185L100.145 26.071V32.7601L100.858 32.1462V32.1471V32.1462L105.02 28.4087V32.5254H107V24.2715L102.125 28.6331Z" fill="white"/>
</g>
<defs>
<clipPath id="clip0_209_490">
<rect width="107" height="45" fill="white"/>
</clipPath>
</defs>
</svg>
