<svg width="16" height="11" viewBox="0 0 16 11" fill="none" xmlns="http://www.w3.org/2000/svg">
<g clip-path="url(#clip0_247_32)">
<path d="M0 2.48998V9.95998C0 10.32 0.29 10.62 0.66 10.62H15.23C15.59 10.62 15.89 10.33 15.89 9.95998V2.46998C15.89 1.95998 15.34 1.64998 14.9 1.89998L8.28 5.77998C8.08 5.89998 7.82 5.89998 7.62 5.77998L0.99 1.91998C0.55 1.66998 0 1.97998 0 2.48998Z" fill="white"/>
<path d="M15.37 0H0.479996C0.349996 0 0.299996 0.18 0.409996 0.24C2.89 1.69 5.38 3.14 7.86 4.6C7.9 4.62 7.95 4.62 7.99 4.6L15.43 0.24C15.55 0.17 15.5 0 15.36 0H15.37Z" fill="white"/>
</g>
<defs>
<clipPath id="clip0_247_32">
<rect width="15.88" height="10.62" fill="white"/>
</clipPath>
</defs>
</svg>
