<svg width="75" height="113" viewBox="0 0 75 113" fill="none" xmlns="http://www.w3.org/2000/svg">
<g clip-path="url(#clip0_209_487)">
<path d="M14.0564 52.3375C30.0326 50.3282 44.7939 48.6075 61.9198 47.3464C63.7527 47.2074 64.1974 47.1112 65.0109 48.9495C66.551 52.3802 67.9284 58.0233 70.5749 58.1622C71.0304 58.1836 71.5618 57.9057 71.3124 56.4415C70.6508 52.6154 69.1757 44.45 68.7853 43.1355C68.1779 41.0727 67.1258 40.1643 66.1388 40.207C55.7267 40.6452 31.2907 42.7614 13.2647 45.6257C9.77225 46.1814 10.4447 52.797 14.0673 52.3375M63.7961 41.9384C63.7961 41.9384 63.8178 41.9384 63.8286 41.9384C64.8373 41.8957 65.6833 42.6652 65.7375 43.6485C65.7809 44.6317 65.0217 45.4653 64.0239 45.5188C64.0239 45.5188 64.0022 45.5188 63.9913 45.5188C63.9588 45.5188 63.9371 45.5188 63.9046 45.5188C62.9393 45.5188 62.1258 44.7707 62.0824 43.7981C62.0391 42.8148 62.7983 41.9812 63.7961 41.9278M58.3731 42.3125C58.3731 42.3125 58.384 42.3125 58.3948 42.3125C59.3926 42.2377 60.2712 42.9858 60.3471 43.9798C60.423 44.9737 59.6638 45.8287 58.6551 45.9035C58.6117 45.9035 58.5683 45.9035 58.525 45.9035C57.5814 45.9035 56.7679 45.1768 56.7028 44.2363C56.6269 43.253 57.3753 42.3873 58.384 42.3125M52.9284 42.74C52.9284 42.74 52.961 42.74 52.9827 42.74C53.9805 42.6652 54.859 43.4133 54.9349 44.4073C55.0109 45.3905 54.2625 46.2455 53.2647 46.331C53.2104 46.331 53.1562 46.331 53.102 46.331C52.1692 46.331 51.3775 45.6257 51.2907 44.6958C51.2039 43.7126 51.9306 42.8362 52.9393 42.74M47.5271 43.221C47.5271 43.221 47.538 43.221 47.5488 43.221C48.5466 43.1354 49.436 43.8622 49.5228 44.8562C49.6096 45.8394 48.872 46.7158 47.8742 46.8013C47.82 46.8013 47.7657 46.8013 47.7115 46.8013C46.7788 46.8013 45.9762 46.0959 45.8894 45.1661C45.8026 44.1828 46.5293 43.3065 47.5271 43.2103M42.0933 43.734C42.0933 43.734 42.1258 43.734 42.1475 43.734C43.1454 43.6485 44.0347 44.3752 44.1215 45.3692C44.2083 46.3524 43.4816 47.2181 42.4837 47.3143C42.4187 47.3143 42.3536 47.3143 42.2885 47.3143C41.3666 47.3143 40.5857 46.6303 40.4772 45.7112C40.3688 44.7279 41.0846 43.8408 42.0824 43.7233M36.7028 44.2897H36.7245C37.7224 44.1828 38.6226 44.8989 38.731 45.8822C38.8395 46.8654 38.1128 47.7525 37.115 47.8594C37.0499 47.8594 36.9848 47.8594 36.9198 47.8594C35.9978 47.8594 35.2061 47.1754 35.1085 46.2562C35 45.273 35.7158 44.3859 36.7137 44.279M31.3124 44.8882C32.3102 44.7707 33.2104 45.4653 33.3406 46.4486C33.4599 47.4319 32.7549 48.3296 31.7571 48.4579H31.7245C31.6595 48.4579 31.5835 48.4686 31.5185 48.4686C30.6074 48.4686 29.8156 47.7846 29.7072 46.8654C29.5987 45.8822 30.3145 44.9951 31.3124 44.8775M25.8894 45.5188C25.8894 45.5188 25.9219 45.5188 25.9436 45.5188C26.9414 45.4119 27.8417 46.128 27.9501 47.1112C28.0586 48.0945 27.3427 48.9709 26.3449 49.0884C26.269 49.0884 26.1931 49.0991 26.1172 49.0991C25.2169 49.0991 24.4252 48.4365 24.3059 47.5281C24.1757 46.5448 24.8807 45.647 25.8785 45.5188M20.5098 46.1921H20.5315C21.5293 46.0745 22.4404 46.7692 22.5705 47.7525C22.6898 48.7358 21.9848 49.6335 20.987 49.7618C20.9111 49.7618 20.8352 49.7724 20.7592 49.7724C19.859 49.7724 19.0673 49.1098 18.948 48.2014C18.8178 47.2181 19.5228 46.3204 20.5206 46.1921M15.0759 46.9189C15.0759 46.9189 15.1085 46.9189 15.1302 46.9189C16.128 46.7799 17.0499 47.4639 17.1909 48.4472C17.3319 49.4305 16.6378 50.3282 15.6508 50.4778C15.564 50.4885 15.4664 50.4992 15.3796 50.4992C14.5011 50.4992 13.731 49.8793 13.5792 48.9923C13.4165 48.009 14.089 47.0899 15.0759 46.9296M49.7072 52.7436C51.1714 52.2413 54.4903 51.7069 56.0195 52.113C57.2451 52.4444 59.2299 54.0796 56.269 54.8918C52.8308 55.843 47.885 53.3635 49.7072 52.7329M63.7636 78.1267C63.6551 79.003 63.6009 79.9863 63.6009 80.681C63.6009 80.9589 63.3406 81.1299 63.0586 81.0764C61.3883 80.7344 59.859 80.7024 58.6985 80.7024C58.4816 80.7024 58.3731 80.4245 58.5358 80.2856C59.577 79.3985 61.2581 78.3404 62.8959 77.635C63.7419 77.2716 63.8178 77.6671 63.7527 78.1373M64.9892 68.0162C61.0846 68.2834 58.9588 68.8498 57.4729 68.5506C55.141 68.0696 56.0521 65.2908 57.7007 64.8099C58.7636 64.5 58.872 63.506 57.5705 63.5274C55.3471 63.5595 53.3948 65.2267 53.2104 68.0803C53.1562 69.0101 52.8959 69.9613 51.0846 71.1049C47.82 73.1783 45.5748 75.9464 44.3818 79.0779C43.948 80.2214 43.1345 80.9909 42.9176 79.0137C42.1801 72.3767 42.961 61.9456 46.4859 57.9164C48.3731 55.7575 50.1302 56.9118 52.256 56.9866C54.9132 57.0721 57.0282 55.9926 57.2234 57.0721C57.7983 60.1394 51.5944 61.1654 51.3015 61.9563C50.9436 62.9075 52.3644 63.1533 54.2733 62.6724C61.6269 60.8127 60.7918 54.5284 60.6399 52.1879C60.5315 50.6061 61.8981 50.0076 62.6573 51.5145C64.295 54.7422 66.41 60.941 67.5922 64.3076C68.3189 66.381 67.1801 67.8773 64.9892 68.0269M40.0868 70.6988C40.1302 70.7843 40.141 70.8698 40.141 70.966C40.0759 71.8317 40.0434 72.6867 40.0326 73.5524C40.0109 77.0365 39.2083 74.8028 38.243 73.4882C37.3861 72.3233 35.9219 70.8056 34.577 70.111C33.8178 69.7155 33.7961 69.5018 34.5228 68.8284C35.0542 68.3475 35.5315 67.8131 35.9653 67.2467C36.0412 67.1505 36.1714 67.1291 36.269 67.1932C37.6681 68.1231 39.4469 69.5231 40.0868 70.7095M42.7549 54.9559C42.538 54.7849 42.3211 54.6353 42.115 54.4857C42.0499 54.4429 42.0282 54.3574 42.0716 54.2933C42.6247 53.2887 43.7636 51.5893 44.6963 51.6535C45.2495 51.6962 45.4447 52.4444 44.8265 53.8231C44.5336 54.4857 44.2408 55.1483 43.9696 55.8003C43.948 55.8537 43.872 55.8751 43.8286 55.8323C43.5033 55.5438 43.1454 55.2445 42.7657 54.9453M41.9198 61.2189C41.5076 60.8341 41.0412 60.4601 40.5315 60.0646C40.2929 59.8936 40.0651 59.7226 39.8482 59.573C39.8156 59.5516 39.8048 59.5195 39.8156 59.4875C39.9349 59.1775 40.5423 57.6171 40.8568 56.8583C40.8894 56.7835 40.987 56.7515 41.0521 56.8049C41.9957 57.521 42.4946 58.0019 42.8525 58.408C42.8959 58.4508 42.9067 58.5149 42.885 58.5683C42.5705 59.4554 42.2668 60.3211 42.0065 61.1868C41.9957 61.2296 41.9523 61.2402 41.9198 61.2082M40.4664 67.2681C40.0868 66.9154 39.6638 66.5627 39.1974 66.1993C38.59 65.729 38.0043 65.3336 37.5271 65.0237C37.4729 64.9809 37.4512 64.9061 37.4837 64.8527C37.9827 63.9335 38.4165 62.9609 38.8286 61.9884C38.8612 61.9243 38.9371 61.9029 39.0022 61.9456C39.8482 62.5655 40.6616 63.2816 41.1714 63.9656C41.2148 64.019 41.2256 64.0938 41.2148 64.1686C40.9653 65.1947 40.7592 66.2207 40.5857 67.236C40.5857 67.2894 40.5098 67.3215 40.4664 67.2787M28.6226 70.453C27.5597 70.1323 27.8742 69.4911 28.4707 69.2025C31.1497 67.9307 33.2104 65.7611 34.7289 62.9289C36.1388 60.2997 37.4512 56.6446 38.59 53.9192C39.2299 52.4016 38.9696 51.7176 36.7462 51.9634C29.8807 52.7115 21.2473 53.7162 16.0087 54.6032C15.2169 54.7315 14.3384 55.3621 14.0347 56.0888C11.3232 62.4266 -1.69196 93.2282 0.184397 96.9368C3.38396 103.243 24.2516 116.313 47.9935 112.231C54.0781 111.183 54.6855 110.435 51.2039 106.139C38.9046 90.9838 41.833 74.4822 28.6117 70.453M38.0369 105.765C27.4837 106.577 8.98049 101.607 6.86552 94.1581C5.4447 89.1349 15.4447 60.8234 18.102 57.6065C19.089 56.4095 27.397 55.2124 31.3449 54.988C34.2299 54.817 34.0239 55.8323 33.5467 57.3713C32.885 59.4875 31.5727 62.0953 30.1302 63.8694C27.7332 66.8299 21.0521 70.0041 20.9978 68.0482C20.9545 66.4879 24.4035 65.7611 26.9631 63.0251C29.0564 60.7914 30.7592 57.7988 29.3493 57.8416C28.4707 57.8736 22.4946 58.237 21.1063 59.4127C19.2299 60.9944 10.6291 86.3027 11.8113 91.8709C13.0477 97.6743 27.3753 100.474 33.2972 100.474C35.1085 100.474 34.7289 99.1705 34.4794 98.0911C31.4208 84.6995 27.1041 77.9236 21.8872 75.1982C17.8959 73.1249 19.6855 71.6393 23.3189 72.8577C33.6876 76.3311 38.2755 93.2175 40.7375 99.6622C42.3644 103.937 41.1063 105.54 38.0152 105.786M63.3297 74.4929C60.7918 75.2838 58.1237 76.8976 56.7462 78.0305C52.115 81.8673 49.8265 86.3347 49.0781 92.3946C48.807 94.6176 48.7527 96.5307 47.0824 93.2817C44.295 87.8631 45.0976 80.3604 49.577 75.6792C52.2017 72.9325 55.7159 70.4102 61.7896 70.282C63.3948 70.2499 64.718 70.6453 65.0325 71.7248C65.423 73.0607 64.6312 74.0867 63.3189 74.4929M74.6529 99.2454C73.4165 100.784 71.3991 102.601 69.5879 103.51C67.82 104.397 65.3362 103.777 63.4057 102.676C61.2039 101.426 59.436 99.7263 58.1887 97.5033C55.5315 92.7366 55.8785 86.9546 56.9306 83.8552C57.1584 83.1819 57.7766 82.7223 58.4924 82.7009C59.1649 82.6689 59.8916 82.7223 60.6399 82.7651C62.3211 82.8826 63.8937 83.246 64.2625 84.582C65.7159 89.8403 67.9935 93.1214 73.9913 96.6055C75.0868 97.2361 75.2386 98.5079 74.6421 99.256M28.6334 38.5825C29.0239 33.7517 30.5749 23.0535 36.8221 15.3584C37.2343 14.8454 37.9827 14.7812 38.4707 15.2194C45.8568 21.7603 49.0673 31.9348 50.2169 36.6481C50.5423 37.9627 50.3579 39.2559 48.6226 39.3734C44.8699 39.6192 33.0694 40.8162 30.6399 41.1262C29.4903 41.2758 28.525 39.9399 28.6334 38.5825ZM14.1106 41.1796C14.9675 36.4664 18.5467 23.994 27.0716 17.8913C27.4295 17.6348 27.885 18.0623 27.6573 18.4471C25.846 21.5465 21.9848 29.7973 21.0521 41.0193C20.987 41.8529 20.3362 42.5049 19.5228 42.5797L15.6833 43.1461C14.718 43.2316 13.9371 42.1522 14.1106 41.1796ZM26.3991 40.1215C26.3341 40.9017 25.6616 41.5003 24.8807 41.5003C24.8373 41.5003 24.7939 41.5003 24.7506 41.5003C23.9154 41.4361 23.2863 40.7094 23.3514 39.8757C23.4165 39.0421 24.1649 38.4329 25 38.497C25.8352 38.5612 26.4642 39.2986 26.3991 40.1215ZM27.397 22.4763C27.7224 21.7175 28.6009 21.3541 29.3709 21.6641C30.1519 21.974 30.5315 22.8504 30.2169 23.6199C30.2169 23.6306 30.1952 23.6626 30.1952 23.6733C29.9458 24.2398 29.3818 24.5818 28.7961 24.5818C28.59 24.5818 28.384 24.539 28.1887 24.4535C27.4187 24.1222 27.0608 23.2458 27.397 22.487M26.1822 32.886C26.0738 32.886 25.9762 32.886 25.8677 32.854C25.0434 32.683 24.5119 31.8921 24.6855 31.0798C24.6855 31.0692 24.6855 31.0371 24.6963 31.0264C24.8916 30.2141 25.7158 29.7225 26.5293 29.9149C27.3427 30.1073 27.8525 30.9088 27.6681 31.7104C27.5163 32.4158 26.8872 32.8967 26.1822 32.8967M27.2885 28.6644C27.1367 28.6644 26.9848 28.6431 26.833 28.5896C26.0304 28.3438 25.5857 27.4995 25.8352 26.7086C26.0738 25.9284 26.9089 25.4689 27.7115 25.6933C28.525 25.9177 28.9913 26.7514 28.7636 27.5529C28.7636 27.5636 28.7527 27.5957 28.7419 27.6064C28.5358 28.2476 27.9393 28.6538 27.2885 28.6538M26.8872 35.8893C26.7788 36.6374 26.128 37.1825 25.3796 37.1825C25.3145 37.1825 25.2386 37.1825 25.1735 37.1718C24.3384 37.0649 23.7527 36.3061 23.872 35.4831C23.872 35.4618 23.872 35.4404 23.872 35.419C24.013 34.5961 24.7939 34.051 25.6291 34.1899C26.4534 34.3289 27.0065 35.0877 26.8872 35.8999M29.5119 18.3937C29.5119 18.3937 29.5119 18.3937 29.5119 18.383C29.9566 17.6883 30.9002 17.4745 31.6052 17.9127C32.3211 18.3509 32.538 19.2807 32.0933 19.9861C32.0933 19.9861 32.0933 19.9861 32.0933 19.9968C31.8004 20.4457 31.3124 20.6915 30.8026 20.6915C30.5315 20.6915 30.2495 20.6167 30 20.4671C29.2842 20.0289 29.0673 19.099 29.5119 18.3937ZM47.9393 16.7691C47.6573 16.4271 48.0369 15.9248 48.4273 16.1172C57.7983 20.7236 62.9935 31.86 64.5879 36.3702C64.9241 37.3107 64.2842 38.2298 63.3189 38.3153L59.3276 38.5718C58.5141 38.636 57.9284 38.0268 57.7224 37.2145C55.0217 26.3025 50.2169 19.5159 47.9393 16.7691ZM52.4729 37.3962C52.2994 36.584 52.8308 35.7824 53.6551 35.6221C54.4686 35.4511 55.2712 35.9641 55.4555 36.7656C55.6399 37.5565 55.1519 38.3474 54.3493 38.5612C54.2191 38.5932 54.089 38.6039 53.9588 38.6039C53.2863 38.6039 52.6573 38.155 52.4837 37.4817C52.4837 37.4603 52.4729 37.4283 52.4621 37.4069M46.4859 19.9434C47.2017 19.4945 48.1453 19.6975 48.59 20.4029C49.0456 21.1083 48.8395 22.0381 48.1345 22.487C47.8742 22.6473 47.5922 22.7221 47.3102 22.7221C46.8113 22.7221 46.3232 22.4763 46.0304 22.0274C45.5748 21.3221 45.7809 20.3922 46.4968 19.9434M52.744 34.4678C52.8959 34.4678 53.0586 34.4464 53.2104 34.393C54.013 34.1365 54.4577 33.2922 54.1974 32.5013C54.1974 32.4906 54.1866 32.4585 54.1757 32.4479C53.8937 31.6677 53.0152 31.2615 52.2234 31.5394C51.4317 31.8173 51.0195 32.6616 51.2907 33.4418C51.5076 34.0724 52.1041 34.4785 52.744 34.4785M51.2365 30.4172C50.6291 30.4172 50.0542 30.0538 49.8156 29.466C49.5011 28.6965 49.8807 27.8201 50.6616 27.5102C51.4425 27.2002 52.3319 27.5636 52.6464 28.3331V28.3545C52.961 29.124 52.5814 30.0004 51.8004 30.3103C51.6161 30.3851 51.4208 30.4172 51.2365 30.4172ZM48.0803 25.6399C47.7115 24.8917 48.0152 23.994 48.7744 23.6199C49.5228 23.2458 50.4447 23.5558 50.8135 24.2932V24.3146C51.1822 25.0627 50.8677 25.9605 50.1193 26.3239C49.9024 26.4307 49.6746 26.4842 49.4469 26.4842C48.8829 26.4842 48.3406 26.1742 48.0803 25.6399ZM43.5575 18.725C43.0152 18.0944 43.0803 17.1432 43.7202 16.5981C44.3601 16.0638 45.3254 16.1279 45.8677 16.7585C46.41 17.389 46.3449 18.3402 45.705 18.8853C45.423 19.1311 45.0651 19.2487 44.7072 19.2487C44.2733 19.2487 43.8503 19.067 43.5467 18.725H43.5575ZM33.1237 13.3705C33.9588 10.2925 35.0651 4.80972 35.4447 1.00493C35.5749 -0.352393 36.8113 -0.245517 37.1041 0.812555C38.167 4.59597 40.2495 9.77945 41.551 12.7079C41.8004 13.2743 41.1605 13.8087 40.6399 13.488L38.0152 11.8422C37.538 11.5429 36.9089 11.5857 36.4751 11.9704L34.154 14.0117C33.6876 14.4286 32.9501 13.9904 33.1128 13.3812M53.449 88.3974C53.3948 89.8189 53.4816 91.3258 53.7419 92.8435C53.7527 92.9183 53.7093 92.9931 53.6334 93.0038C52.9501 93.132 52.2994 93.1748 51.7788 93.1855C51.6811 93.1855 51.6052 93.1 51.6161 93.0145C51.8113 91.3472 52.2126 89.7334 52.7657 88.2692C52.9067 87.8951 53.4707 88.0127 53.4599 88.4081M58.5683 102.719C56.8547 103.681 54.859 103.948 53.7961 104.033C53.6334 104.044 53.4707 103.959 53.3948 103.82C52.9176 102.954 52.538 102.024 52.2451 101.062C52.2126 100.945 52.2994 100.816 52.4295 100.816C53.4165 100.774 54.8156 100.603 56.2907 100.079C56.4425 100.026 56.6052 100.079 56.7028 100.207C57.2343 100.955 57.8634 101.704 58.6009 102.42C58.6985 102.505 58.6768 102.665 58.5683 102.73M63.8937 106.887C62.6573 107.464 61.4534 107.956 60.3579 108.33C58.1345 109.099 56.6703 108.063 55.2712 106.459C55.1519 106.321 55.2278 106.107 55.4122 106.075C56.8764 105.84 58.7744 105.316 60.4122 104.194C60.5423 104.108 60.705 104.108 60.8352 104.194C61.7245 104.782 62.7332 105.305 63.8612 105.754C64.3709 105.957 64.3926 106.663 63.8937 106.887ZM51.6378 95.3978C52.3644 95.3978 53.2755 95.3337 54.1432 95.1627C54.2191 95.152 54.295 95.1948 54.3167 95.2696C54.5879 96.1566 54.9241 97.033 55.3362 97.8773C55.3796 97.9628 55.3362 98.059 55.2495 98.0911C53.8503 98.54 52.5488 98.6041 51.833 98.6041C51.7571 98.6041 51.692 98.5507 51.6811 98.4758C51.5401 97.514 51.4751 96.5414 51.4751 95.5581C51.4751 95.4619 51.551 95.3871 51.6486 95.3978" fill="white"/>
</g>
<defs>
<clipPath id="clip0_209_487">
<rect width="75" height="113" fill="white"/>
</clipPath>
</defs>
</svg>
