<svg width="20" height="11" viewBox="0 0 20 11" fill="none" xmlns="http://www.w3.org/2000/svg">
<g clip-path="url(#clip0_247_35)">
<path fill-rule="evenodd" clip-rule="evenodd" d="M9.45001 10.97H10.6C10.6 10.97 10.95 10.93 11.13 10.74C11.29 10.56 11.29 10.23 11.29 10.23C11.29 10.23 11.27 8.67998 11.99 8.44998C12.7 8.22998 13.61 9.94998 14.57 10.61C15.3 11.11 15.85 11 15.85 11L18.43 10.96C18.43 10.96 19.78 10.88 19.14 9.81998C19.09 9.72998 18.77 9.03998 17.22 7.59998C15.6 6.09998 15.82 6.33998 17.77 3.74998C18.96 2.16998 19.43 1.19998 19.28 0.789979C19.14 0.399979 18.27 0.499979 18.27 0.499979L15.37 0.519979C15.37 0.519979 15.15 0.489979 15 0.589979C14.84 0.679979 14.74 0.899979 14.74 0.899979C14.74 0.899979 14.28 2.11998 13.67 3.15998C12.38 5.35998 11.86 5.46998 11.65 5.32998C11.16 5.00998 11.28 4.04998 11.28 3.36998C11.28 1.23998 11.6 0.359979 10.65 0.129979C10.33 0.049979 10.1 -2.09722e-05 9.29001 -2.09722e-05C8.25001 -0.010021 7.38001 -2.09808e-05 6.88001 0.249979C6.55001 0.409979 6.29001 0.769979 6.45001 0.789979C6.64001 0.819979 7.08001 0.909979 7.31001 1.21998C7.61001 1.61998 7.60001 2.52998 7.60001 2.52998C7.60001 2.52998 7.77001 5.02998 7.20001 5.33998C6.81001 5.54998 6.27001 5.11998 5.12001 3.12998C4.53001 2.10998 4.08001 0.979979 4.08001 0.979979C4.08001 0.979979 3.99001 0.769979 3.84001 0.659979C3.65001 0.519979 3.39001 0.479979 3.39001 0.479979L0.630012 0.499979C0.630012 0.499979 0.220012 0.509979 0.0600117 0.689979C-0.0799883 0.849979 0.0500117 1.17998 0.0500117 1.17998C0.0500117 1.18998 2.21001 6.23998 4.66001 8.78998C6.90001 11.12 9.45001 10.97 9.45001 10.97Z" fill="white"/>
</g>
<defs>
<clipPath id="clip0_247_35">
<rect width="19.31" height="11.01" fill="white"/>
</clipPath>
</defs>
</svg>
