<svg width="116" height="184" viewBox="0 0 116 184" fill="none" xmlns="http://www.w3.org/2000/svg">
<g clip-path="url(#clip0_39_242)">
<path d="M31.0564 52.3374C47.0326 50.3281 61.7939 48.6074 78.9198 47.3463C80.7527 47.2073 81.1974 47.1112 82.0109 48.9494C83.551 52.3801 84.9284 58.0232 87.5749 58.1621C88.0304 58.1835 88.5618 57.9056 88.3124 56.4414C87.6508 52.6153 86.1757 44.4499 85.7853 43.1354C85.1779 41.0727 84.1258 40.1642 83.1388 40.207C72.7267 40.6452 48.2907 42.7613 30.2647 45.6256C26.7722 46.1813 27.4447 52.797 31.0673 52.3374M80.7961 41.9384C80.7961 41.9384 80.8178 41.9384 80.8286 41.9384C81.8373 41.8956 82.6833 42.6651 82.7375 43.6484C82.7809 44.6316 82.0217 45.4653 81.0239 45.5187C81.0239 45.5187 81.0022 45.5187 80.9913 45.5187C80.9588 45.5187 80.9371 45.5187 80.9046 45.5187C79.9393 45.5187 79.1258 44.7706 79.0824 43.798C79.0391 42.8147 79.7983 41.9811 80.7961 41.9277M75.3731 42.3124C75.3731 42.3124 75.384 42.3124 75.3948 42.3124C76.3926 42.2376 77.2712 42.9857 77.3471 43.9797C77.423 44.9736 76.6638 45.8286 75.6551 45.9035C75.6117 45.9035 75.5683 45.9035 75.525 45.9035C74.5814 45.9035 73.7679 45.1767 73.7028 44.2362C73.6269 43.2529 74.3753 42.3872 75.384 42.3124M69.9284 42.7399C69.9284 42.7399 69.961 42.7399 69.9827 42.7399C70.9805 42.6651 71.859 43.4132 71.9349 44.4072C72.0109 45.3904 71.2625 46.2455 70.2647 46.331C70.2104 46.331 70.1562 46.331 70.102 46.331C69.1692 46.331 68.3775 45.6256 68.2907 44.6958C68.2039 43.7125 68.9306 42.8361 69.9393 42.7399M64.5271 43.2209C64.5271 43.2209 64.538 43.2209 64.5488 43.2209C65.5466 43.1354 66.436 43.8621 66.5228 44.8561C66.6096 45.8393 65.872 46.7157 64.8742 46.8012C64.82 46.8012 64.7657 46.8012 64.7115 46.8012C63.7788 46.8012 62.9762 46.0958 62.8894 45.166C62.8026 44.1828 63.5293 43.3064 64.5271 43.2102M59.0933 43.7339C59.0933 43.7339 59.1258 43.7339 59.1475 43.7339C60.1454 43.6484 61.0347 44.3751 61.1215 45.3691C61.2083 46.3523 60.4816 47.218 59.4837 47.3142C59.4187 47.3142 59.3536 47.3142 59.2885 47.3142C58.3666 47.3142 57.5857 46.6302 57.4772 45.7111C57.3688 44.7278 58.0846 43.8407 59.0824 43.7232M53.7028 44.2896H53.7245C54.7224 44.1828 55.6226 44.8988 55.731 45.8821C55.8395 46.8653 55.1128 47.7524 54.115 47.8593C54.0499 47.8593 53.9848 47.8593 53.9198 47.8593C52.9978 47.8593 52.2061 47.1753 52.1085 46.2561C52 45.2729 52.7158 44.3858 53.7137 44.2789M48.3124 44.8881C49.3102 44.7706 50.2104 45.4653 50.3406 46.4485C50.4599 47.4318 49.7549 48.3295 48.7571 48.4578H48.7245C48.6595 48.4578 48.5835 48.4685 48.5185 48.4685C47.6074 48.4685 46.8156 47.7845 46.7072 46.8653C46.5987 45.8821 47.3145 44.995 48.3124 44.8774M42.8894 45.5187C42.8894 45.5187 42.9219 45.5187 42.9436 45.5187C43.9414 45.4118 44.8417 46.1279 44.9501 47.1112C45.0586 48.0944 44.3427 48.9708 43.3449 49.0884C43.269 49.0884 43.1931 49.099 43.1172 49.099C42.2169 49.099 41.4252 48.4364 41.3059 47.528C41.1757 46.5447 41.8807 45.647 42.8785 45.5187M37.5098 46.192H37.5315C38.5293 46.0745 39.4404 46.7692 39.5705 47.7524C39.6898 48.7357 38.9848 49.6334 37.987 49.7617C37.9111 49.7617 37.8352 49.7724 37.7592 49.7724C36.859 49.7724 36.0673 49.1097 35.948 48.2013C35.8178 47.218 36.5228 46.3203 37.5206 46.192M32.0759 46.9188C32.0759 46.9188 32.1085 46.9188 32.1302 46.9188C33.128 46.7798 34.0499 47.4638 34.1909 48.4471C34.3319 49.4304 33.6378 50.3281 32.6508 50.4777C32.564 50.4884 32.4664 50.4991 32.3796 50.4991C31.5011 50.4991 30.731 49.8792 30.5792 48.9922C30.4165 48.0089 31.089 47.0898 32.0759 46.9295M66.7072 52.7435C68.1714 52.2412 71.4903 51.7068 73.0195 52.1129C74.2451 52.4443 76.2299 54.0795 73.269 54.8917C69.8308 55.8429 64.885 53.3634 66.7072 52.7328M80.7636 78.1266C80.6551 79.003 80.6009 79.9862 80.6009 80.6809C80.6009 80.9588 80.3406 81.1298 80.0586 81.0763C78.3883 80.7343 76.859 80.7023 75.6985 80.7023C75.4816 80.7023 75.3731 80.4244 75.5358 80.2855C76.577 79.3984 78.2581 78.3403 79.8959 77.6349C80.7419 77.2716 80.8178 77.667 80.7527 78.1373M81.9892 68.0161C78.0846 68.2833 75.9588 68.8497 74.4729 68.5505C72.141 68.0695 73.0521 65.2908 74.7007 64.8098C75.7636 64.4999 75.872 63.5059 74.5705 63.5273C72.3471 63.5594 70.3948 65.2266 70.2104 68.0802C70.1562 69.01 69.8959 69.9612 68.0846 71.1048C64.82 73.1782 62.5748 75.9463 61.3818 79.0778C60.948 80.2213 60.1345 80.9908 59.9176 79.0136C59.1801 72.3766 59.961 61.9455 63.4859 57.9163C65.3731 55.7574 67.1302 56.9117 69.256 56.9865C71.9132 57.072 74.0282 55.9926 74.2234 57.072C74.7983 60.1393 68.5944 61.1654 68.3015 61.9562C67.9436 62.9074 69.3644 63.1532 71.2733 62.6723C78.6269 60.8127 77.7918 54.5284 77.6399 52.1878C77.5315 50.606 78.8981 50.0075 79.6573 51.5144C81.295 54.7421 83.41 60.9409 84.5922 64.3075C85.3189 66.3809 84.1801 67.8772 81.9892 68.0268M57.0868 70.6987C57.1302 70.7842 57.141 70.8697 57.141 70.9659C57.0759 71.8316 57.0434 72.6866 57.0326 73.5523C57.0109 77.0364 56.2083 74.8027 55.243 73.4882C54.3861 72.3232 52.9219 70.8056 51.577 70.1109C50.8178 69.7154 50.7961 69.5017 51.5228 68.8284C52.0542 68.3474 52.5315 67.813 52.9653 67.2466C53.0412 67.1504 53.1714 67.129 53.269 67.1932C54.6681 68.123 56.4469 69.5231 57.0868 70.7094M59.7549 54.9559C59.538 54.7849 59.3211 54.6352 59.115 54.4856C59.0499 54.4428 59.0282 54.3573 59.0716 54.2932C59.6247 53.2886 60.7636 51.5893 61.6963 51.6534C62.2495 51.6961 62.4447 52.4443 61.8265 53.823C61.5336 54.4856 61.2408 55.1482 60.9696 55.8002C60.948 55.8536 60.872 55.875 60.8286 55.8322C60.5033 55.5437 60.1454 55.2444 59.7657 54.9452M58.9198 61.2188C58.5076 60.834 58.0412 60.46 57.5315 60.0645C57.2929 59.8935 57.0651 59.7225 56.8482 59.5729C56.8156 59.5515 56.8048 59.5195 56.8156 59.4874C56.9349 59.1775 57.5423 57.6171 57.8568 56.8582C57.8894 56.7834 57.987 56.7514 58.0521 56.8048C58.9957 57.5209 59.4946 58.0018 59.8525 58.408C59.8959 58.4507 59.9067 58.5148 59.885 58.5683C59.5705 59.4553 59.2668 60.321 59.0065 61.1867C58.9957 61.2295 58.9523 61.2402 58.9198 61.2081M57.4664 67.268C57.0868 66.9153 56.6638 66.5626 56.1974 66.1992C55.59 65.729 55.0043 65.3335 54.5271 65.0236C54.4729 64.9808 54.4512 64.906 54.4837 64.8526C54.9827 63.9334 55.4165 62.9609 55.8286 61.9883C55.8612 61.9242 55.9371 61.9028 56.0022 61.9455C56.8482 62.5654 57.6616 63.2815 58.1714 63.9655C58.2148 64.0189 58.2256 64.0938 58.2148 64.1686C57.9653 65.1946 57.7592 66.2206 57.5857 67.2359C57.5857 67.2893 57.5098 67.3214 57.4664 67.2787M45.6226 70.4529C44.5597 70.1322 44.8742 69.491 45.4707 69.2024C48.1497 67.9306 50.2104 65.761 51.7289 62.9288C53.1388 60.2997 54.4512 56.6445 55.59 53.9192C56.2299 52.4015 55.9696 51.7175 53.7462 51.9633C46.8807 52.7115 38.2473 53.7161 33.0087 54.6032C32.2169 54.7314 31.3384 55.362 31.0347 56.0887C28.3232 62.4265 15.308 93.2281 17.1844 96.9367C20.384 103.242 41.2516 116.313 64.9935 112.231C71.0781 111.183 71.6855 110.435 68.2039 106.139C55.9046 90.9837 58.833 74.4821 45.6117 70.4529M55.0369 105.765C44.4837 106.577 25.9805 101.607 23.8655 94.158C22.4447 89.1348 32.4447 60.8233 35.102 57.6064C36.089 56.4094 44.397 55.2124 48.3449 54.9879C51.2299 54.8169 51.0239 55.8322 50.5467 57.3713C49.885 59.4874 48.5727 62.0952 47.1302 63.8693C44.7332 66.8298 38.0521 70.004 37.9978 68.0482C37.9545 66.4878 41.4035 65.761 43.9631 63.025C46.0564 60.7913 47.7592 57.7988 46.3493 57.8415C45.4707 57.8736 39.4946 58.2369 38.1063 59.4126C36.2299 60.9943 27.6291 86.3026 28.8113 91.8708C30.0477 97.6742 44.3753 100.474 50.2972 100.474C52.1085 100.474 51.7289 99.1705 51.4794 98.091C48.4208 84.6994 44.1041 77.9235 38.8872 75.1982C34.8959 73.1248 36.6855 71.6392 40.3189 72.8576C50.6876 76.3311 55.2755 93.2175 57.7375 99.6621C59.3644 103.937 58.1063 105.54 55.0152 105.786M80.3297 74.4928C77.7918 75.2837 75.1237 76.8975 73.7462 78.0304C69.115 81.8672 66.8265 86.3346 66.0781 92.3945C65.807 94.6175 65.7527 96.5306 64.0824 93.2816C61.295 87.863 62.0976 80.3603 66.577 75.6791C69.2017 72.9324 72.7159 70.4101 78.7896 70.2819C80.3948 70.2498 81.718 70.6452 82.0325 71.7247C82.423 73.0606 81.6312 74.0867 80.3189 74.4928M91.6529 99.2453C90.4165 100.784 88.3991 102.601 86.5879 103.51C84.82 104.397 82.3362 103.777 80.4057 102.676C78.2039 101.426 76.436 99.7262 75.1887 97.5032C72.5315 92.7365 72.8785 86.9545 73.9306 83.8551C74.1584 83.1818 74.7766 82.7222 75.4924 82.7009C76.1649 82.6688 76.8916 82.7222 77.6399 82.765C79.3211 82.8826 80.8937 83.2459 81.2625 84.5819C82.7159 89.8402 84.9935 93.1213 90.9913 96.6054C92.0868 97.236 92.2386 98.5078 91.6421 99.256M45.6334 38.5824C46.0239 33.7517 47.5749 23.0534 53.8221 15.3583C54.2343 14.8453 54.9827 14.7812 55.4707 15.2194C62.8568 21.7602 66.0673 31.9348 67.2169 36.648C67.5423 37.9626 67.3579 39.2558 65.6226 39.3733C61.8699 39.6191 50.0694 40.8162 47.6399 41.1261C46.4903 41.2757 45.525 39.9398 45.6334 38.5824ZM31.1106 41.1795C31.9675 36.4663 35.5467 23.9939 44.0716 17.8913C44.4295 17.6348 44.885 18.0623 44.6573 18.447C42.846 21.5464 38.9848 29.7972 38.0521 41.0192C37.987 41.8529 37.3362 42.5048 36.5228 42.5796L32.6833 43.1461C31.718 43.2316 30.9371 42.1521 31.1106 41.1795ZM43.3991 40.1215C43.3341 40.9017 42.6616 41.5002 41.8807 41.5002C41.8373 41.5002 41.7939 41.5002 41.7506 41.5002C40.9154 41.436 40.2863 40.7093 40.3514 39.8757C40.4165 39.042 41.1649 38.4328 42 38.4969C42.8352 38.5611 43.4642 39.2985 43.3991 40.1215ZM44.397 22.4762C44.7224 21.7174 45.6009 21.354 46.3709 21.664C47.1519 21.9739 47.5315 22.8503 47.2169 23.6198C47.2169 23.6305 47.1952 23.6626 47.1952 23.6732C46.9458 24.2397 46.3818 24.5817 45.7961 24.5817C45.59 24.5817 45.384 24.5389 45.1887 24.4534C44.4187 24.1221 44.0608 23.2457 44.397 22.4869M43.1822 32.886C43.0738 32.886 42.9762 32.886 42.8677 32.8539C42.0434 32.6829 41.5119 31.892 41.6855 31.0798C41.6855 31.0691 41.6855 31.037 41.6963 31.0263C41.8916 30.2141 42.7158 29.7224 43.5293 29.9148C44.3427 30.1072 44.8525 30.9088 44.6681 31.7103C44.5163 32.4157 43.8872 32.8966 43.1822 32.8966M44.2885 28.6644C44.1367 28.6644 43.9848 28.643 43.833 28.5895C43.0304 28.3437 42.5857 27.4994 42.8352 26.7085C43.0738 25.9283 43.9089 25.4688 44.7115 25.6932C45.525 25.9176 45.9913 26.7513 45.7636 27.5528C45.7636 27.5635 45.7527 27.5956 45.7419 27.6063C45.5358 28.2475 44.9393 28.6537 44.2885 28.6537M43.8872 35.8892C43.7788 36.6373 43.128 37.1824 42.3796 37.1824C42.3145 37.1824 42.2386 37.1824 42.1735 37.1717C41.3384 37.0648 40.7527 36.306 40.872 35.483C40.872 35.4617 40.872 35.4403 40.872 35.4189C41.013 34.596 41.7939 34.0509 42.6291 34.1898C43.4534 34.3288 44.0065 35.0876 43.8872 35.8999M46.5119 18.3936C46.5119 18.3936 46.5119 18.3936 46.5119 18.3829C46.9566 17.6882 47.9002 17.4744 48.6052 17.9126C49.3211 18.3508 49.538 19.2806 49.0933 19.986C49.0933 19.986 49.0933 19.986 49.0933 19.9967C48.8004 20.4456 48.3124 20.6914 47.8026 20.6914C47.5315 20.6914 47.2495 20.6166 47 20.467C46.2842 20.0288 46.0673 19.099 46.5119 18.3936ZM64.9393 16.7691C64.6573 16.4271 65.0369 15.9247 65.4273 16.1171C74.7983 20.7235 79.9935 31.8599 81.5879 36.3701C81.9241 37.3106 81.2842 38.2298 80.3189 38.3153L76.3276 38.5718C75.5141 38.6359 74.9284 38.0267 74.7224 37.2144C72.0217 26.3024 67.2169 19.5158 64.9393 16.7691ZM69.4729 37.3961C69.2994 36.5839 69.8308 35.7823 70.6551 35.622C71.4686 35.451 72.2712 35.964 72.4555 36.7656C72.6399 37.5564 72.1519 38.3473 71.3493 38.5611C71.2191 38.5931 71.089 38.6038 70.9588 38.6038C70.2863 38.6038 69.6573 38.1549 69.4837 37.4816C69.4837 37.4603 69.4729 37.4282 69.4621 37.4068M63.4859 19.9433C64.2017 19.4944 65.1453 19.6975 65.59 20.4028C66.0456 21.1082 65.8395 22.038 65.1345 22.4869C64.8742 22.6472 64.5922 22.7221 64.3102 22.7221C63.8113 22.7221 63.3232 22.4762 63.0304 22.0274C62.5748 21.322 62.7809 20.3922 63.4968 19.9433M69.744 34.4677C69.8959 34.4677 70.0586 34.4464 70.2104 34.3929C71.013 34.1364 71.4577 33.2921 71.1974 32.5012C71.1974 32.4905 71.1866 32.4585 71.1757 32.4478C70.8937 31.6676 70.0152 31.2614 69.2234 31.5393C68.4317 31.8172 68.0195 32.6615 68.2907 33.4417C68.5076 34.0723 69.1041 34.4784 69.744 34.4784M68.2365 30.4171C67.6291 30.4171 67.0542 30.0537 66.8156 29.4659C66.5011 28.6964 66.8807 27.82 67.6616 27.5101C68.4425 27.2002 69.3319 27.5635 69.6464 28.333V28.3544C69.961 29.1239 69.5814 30.0003 68.8004 30.3102C68.6161 30.3851 68.4208 30.4171 68.2365 30.4171ZM65.0803 25.6398C64.7115 24.8916 65.0152 23.9939 65.7744 23.6198C66.5228 23.2457 67.4447 23.5557 67.8135 24.2931V24.3145C68.1822 25.0626 67.8677 25.9604 67.1193 26.3238C66.9024 26.4306 66.6746 26.4841 66.4469 26.4841C65.8829 26.4841 65.3406 26.1741 65.0803 25.6398ZM60.5575 18.7249C60.0152 18.0943 60.0803 17.1431 60.7202 16.5981C61.3601 16.0637 62.3254 16.1278 62.8677 16.7584C63.41 17.3889 63.3449 18.3401 62.705 18.8852C62.423 19.131 62.0651 19.2486 61.7072 19.2486C61.2733 19.2486 60.8503 19.0669 60.5467 18.7249H60.5575ZM50.1237 13.3704C50.9588 10.2924 52.0651 4.80963 52.4447 1.00485C52.5749 -0.352477 53.8113 -0.245601 54.1041 0.812471C55.167 4.59588 57.2495 9.77937 58.551 12.7078C58.8004 13.2742 58.1605 13.8086 57.6399 13.488L55.0152 11.8421C54.538 11.5428 53.9089 11.5856 53.4751 11.9703L51.154 14.0117C50.6876 14.4285 49.9501 13.9903 50.1128 13.3811M70.449 88.3974C70.3948 89.8188 70.4816 91.3258 70.7419 92.8434C70.7527 92.9182 70.7093 92.993 70.6334 93.0037C69.9501 93.132 69.2994 93.1747 68.7788 93.1854C68.6811 93.1854 68.6052 93.0999 68.6161 93.0144C68.8113 91.3471 69.2126 89.7333 69.7657 88.2691C69.9067 87.895 70.4707 88.0126 70.4599 88.408M75.5683 102.719C73.8547 103.681 71.859 103.948 70.7961 104.033C70.6334 104.044 70.4707 103.959 70.3948 103.82C69.9176 102.954 69.538 102.024 69.2451 101.062C69.2126 100.945 69.2994 100.816 69.4295 100.816C70.4165 100.774 71.8156 100.603 73.2907 100.079C73.4425 100.025 73.6052 100.079 73.7028 100.207C74.2343 100.955 74.8634 101.703 75.6009 102.419C75.6985 102.505 75.6768 102.665 75.5683 102.729M80.8937 106.887C79.6573 107.464 78.4534 107.956 77.3579 108.33C75.1345 109.099 73.6703 108.063 72.2712 106.459C72.1519 106.32 72.2278 106.107 72.4122 106.075C73.8764 105.84 75.7744 105.316 77.4122 104.194C77.5423 104.108 77.705 104.108 77.8352 104.194C78.7245 104.781 79.7332 105.305 80.8612 105.754C81.3709 105.957 81.3926 106.662 80.8937 106.887ZM68.6378 95.3977C69.3644 95.3977 70.2755 95.3336 71.1432 95.1626C71.2191 95.1519 71.295 95.1947 71.3167 95.2695C71.5879 96.1566 71.9241 97.0329 72.3362 97.8773C72.3796 97.9628 72.3362 98.0589 72.2495 98.091C70.8503 98.5399 69.5488 98.604 68.833 98.604C68.7571 98.604 68.692 98.5506 68.6811 98.4758C68.5401 97.5139 68.4751 96.5413 68.4751 95.5581C68.4751 95.4619 68.551 95.387 68.6486 95.3977" fill="white"/>
</g>
<mask id="path-2-outside-1_39_242" maskUnits="userSpaceOnUse" x="12" y="129" width="94" height="33" fill="black">
<rect fill="white" x="12" y="129" width="94" height="33"/>
<path d="M25.457 154.092C25.457 159.636 22.201 161 17.229 161H12.961V130.2H16.921C21.849 130.2 24.797 131.432 24.797 136.492C24.797 141.112 21.057 143.488 19.297 144.5V144.676C21.629 145.996 25.457 149.252 25.457 154.092ZM21.277 136.448C21.277 132.752 19.297 131.96 16.349 131.96V144.016C18.989 143.576 21.277 140.496 21.277 136.448ZM21.937 154.048C21.937 150.132 18.901 146.26 16.349 145.688V159.24C19.825 159.24 21.937 158.14 21.937 154.048ZM41.5315 161H38.1435V140.452H38.0555L32.2475 154.136V161H28.8595V130.2H32.2475V149.472H32.3355L38.1435 135.788V130.2H41.5315V161ZM60.6907 130.2L60.3387 133.368C58.8867 132.752 56.4227 131.96 54.3987 131.96H54.1787V161H50.7907V131.96H48.6787C48.1067 131.96 47.7547 132.268 47.7107 132.84L47.3587 138.12H44.6747V130.2H60.6907ZM72.8237 161H69.4357V145.952C67.5437 145.952 66.2237 148.9 64.5517 155.456L63.1437 161H59.5797L61.3837 154.752C62.9677 149.208 64.3317 146.348 67.2357 145.204V145.072C64.2877 143.884 60.9877 141.42 60.9877 136.58C60.9877 131.652 63.6277 130.2 68.8637 130.2H72.8237V161ZM69.4357 144.28V131.96C66.3557 131.96 64.5077 132.796 64.5077 136.58C64.5077 139.924 65.8717 143.84 69.4357 144.28ZM89.508 151.54C89.508 158.976 86.252 161.66 82.16 161.66C77.716 161.66 76.748 158.052 76.22 153.564L79.212 152.992C79.696 157.612 80.664 159.284 82.996 159.284C85.24 159.284 86.032 157.084 86.032 153.916C86.032 147.448 84.932 145.424 82.38 145.424C81.984 145.424 81.368 145.732 81.06 146.084L79.872 144.896C83.788 139.968 84.976 135.348 84.976 131.96H80.972C80.4 131.96 80.048 132.268 80.004 132.84L79.696 137.504H77.056V130.2H88.54C88.54 133.016 88.012 137.988 83.304 143.048C87 143.488 89.508 146.04 89.508 151.54ZM105.379 153.96C105.379 159.504 102.123 161 97.1509 161H92.8829V130.2H96.2709V143.444C97.9869 143.752 105.379 146.084 105.379 153.96ZM101.859 153.96C101.859 148.768 98.4709 145.864 96.2709 145.292V159.24C99.7469 159.24 101.859 158.052 101.859 153.96Z"/>
</mask>
<path d="M25.457 154.092C25.457 159.636 22.201 161 17.229 161H12.961V130.2H16.921C21.849 130.2 24.797 131.432 24.797 136.492C24.797 141.112 21.057 143.488 19.297 144.5V144.676C21.629 145.996 25.457 149.252 25.457 154.092ZM21.277 136.448C21.277 132.752 19.297 131.96 16.349 131.96V144.016C18.989 143.576 21.277 140.496 21.277 136.448ZM21.937 154.048C21.937 150.132 18.901 146.26 16.349 145.688V159.24C19.825 159.24 21.937 158.14 21.937 154.048ZM41.5315 161H38.1435V140.452H38.0555L32.2475 154.136V161H28.8595V130.2H32.2475V149.472H32.3355L38.1435 135.788V130.2H41.5315V161ZM60.6907 130.2L60.3387 133.368C58.8867 132.752 56.4227 131.96 54.3987 131.96H54.1787V161H50.7907V131.96H48.6787C48.1067 131.96 47.7547 132.268 47.7107 132.84L47.3587 138.12H44.6747V130.2H60.6907ZM72.8237 161H69.4357V145.952C67.5437 145.952 66.2237 148.9 64.5517 155.456L63.1437 161H59.5797L61.3837 154.752C62.9677 149.208 64.3317 146.348 67.2357 145.204V145.072C64.2877 143.884 60.9877 141.42 60.9877 136.58C60.9877 131.652 63.6277 130.2 68.8637 130.2H72.8237V161ZM69.4357 144.28V131.96C66.3557 131.96 64.5077 132.796 64.5077 136.58C64.5077 139.924 65.8717 143.84 69.4357 144.28ZM89.508 151.54C89.508 158.976 86.252 161.66 82.16 161.66C77.716 161.66 76.748 158.052 76.22 153.564L79.212 152.992C79.696 157.612 80.664 159.284 82.996 159.284C85.24 159.284 86.032 157.084 86.032 153.916C86.032 147.448 84.932 145.424 82.38 145.424C81.984 145.424 81.368 145.732 81.06 146.084L79.872 144.896C83.788 139.968 84.976 135.348 84.976 131.96H80.972C80.4 131.96 80.048 132.268 80.004 132.84L79.696 137.504H77.056V130.2H88.54C88.54 133.016 88.012 137.988 83.304 143.048C87 143.488 89.508 146.04 89.508 151.54ZM105.379 153.96C105.379 159.504 102.123 161 97.1509 161H92.8829V130.2H96.2709V143.444C97.9869 143.752 105.379 146.084 105.379 153.96ZM101.859 153.96C101.859 148.768 98.4709 145.864 96.2709 145.292V159.24C99.7469 159.24 101.859 158.052 101.859 153.96Z" fill="white"/>
<path d="M12.961 161H12.661V161.3H12.961V161ZM12.961 130.2V129.9H12.661V130.2H12.961ZM19.297 144.5L19.1475 144.24L18.997 144.326V144.5H19.297ZM19.297 144.676H18.997V144.851L19.1492 144.937L19.297 144.676ZM16.349 131.96V131.66H16.049V131.96H16.349ZM16.349 144.016H16.049V144.37L16.3983 144.312L16.349 144.016ZM16.349 145.688L16.4146 145.395L16.049 145.313V145.688H16.349ZM16.349 159.24H16.049V159.54H16.349V159.24ZM25.457 154.092H25.157C25.157 156.803 24.3644 158.422 23.0322 159.382C21.6769 160.358 19.7015 160.7 17.229 160.7V161V161.3C19.7285 161.3 21.8671 160.96 23.3829 159.868C24.9216 158.76 25.757 156.925 25.757 154.092H25.457ZM17.229 161V160.7H12.961V161V161.3H17.229V161ZM12.961 161H13.261V130.2H12.961H12.661V161H12.961ZM12.961 130.2V130.5H16.921V130.2V129.9H12.961V130.2ZM16.921 130.2V130.5C19.3755 130.5 21.2632 130.81 22.5358 131.695C23.7814 132.561 24.497 134.023 24.497 136.492H24.797H25.097C25.097 133.901 24.3386 132.217 22.8782 131.202C21.4448 130.206 19.3946 129.9 16.921 129.9V130.2ZM24.797 136.492H24.497C24.497 140.928 20.9092 143.227 19.1475 144.24L19.297 144.5L19.4466 144.76C21.2048 143.749 25.097 141.296 25.097 136.492H24.797ZM19.297 144.5H18.997V144.676H19.297H19.597V144.5H19.297ZM19.297 144.676L19.1492 144.937C21.45 146.239 25.157 149.417 25.157 154.092H25.457H25.757C25.757 149.087 21.8081 145.753 19.4448 144.415L19.297 144.676ZM21.277 136.448H21.577C21.577 134.549 21.0666 133.318 20.1007 132.58C19.1541 131.856 17.8351 131.66 16.349 131.66V131.96V132.26C17.811 132.26 18.956 132.46 19.7363 133.056C20.4974 133.638 20.977 134.651 20.977 136.448H21.277ZM16.349 131.96H16.049V144.016H16.349H16.649V131.96H16.349ZM16.349 144.016L16.3983 144.312C19.2348 143.839 21.577 140.583 21.577 136.448H21.277H20.977C20.977 140.409 18.7432 143.313 16.2997 143.72L16.349 144.016ZM21.937 154.048H22.237C22.237 152.016 21.451 150.01 20.3452 148.441C19.245 146.881 17.7921 145.704 16.4146 145.395L16.349 145.688L16.2834 145.981C17.458 146.244 18.799 147.289 19.8548 148.787C20.9051 150.276 21.637 152.164 21.637 154.048H21.937ZM16.349 145.688H16.049V159.24H16.349H16.649V145.688H16.349ZM16.349 159.24V159.54C18.1057 159.54 19.5911 159.265 20.6363 158.411C21.6956 157.545 22.237 156.142 22.237 154.048H21.937H21.637C21.637 156.046 21.1224 157.239 20.2567 157.946C19.3769 158.665 18.0683 158.94 16.349 158.94V159.24ZM41.5315 161V161.3H41.8315V161H41.5315ZM38.1435 161H37.8435V161.3H38.1435V161ZM38.1435 140.452H38.4435V140.152H38.1435V140.452ZM38.0555 140.452V140.152H37.8569L37.7793 140.335L38.0555 140.452ZM32.2475 154.136L31.9713 154.019L31.9475 154.075V154.136H32.2475ZM32.2475 161V161.3H32.5475V161H32.2475ZM28.8595 161H28.5595V161.3H28.8595V161ZM28.8595 130.2V129.9H28.5595V130.2H28.8595ZM32.2475 130.2H32.5475V129.9H32.2475V130.2ZM32.2475 149.472H31.9475V149.772H32.2475V149.472ZM32.3355 149.472V149.772H32.534L32.6116 149.589L32.3355 149.472ZM38.1435 135.788L38.4196 135.905L38.4435 135.849V135.788H38.1435ZM38.1435 130.2V129.9H37.8435V130.2H38.1435ZM41.5315 130.2H41.8315V129.9H41.5315V130.2ZM41.5315 161V160.7H38.1435V161V161.3H41.5315V161ZM38.1435 161H38.4435V140.452H38.1435H37.8435V161H38.1435ZM38.1435 140.452V140.152H38.0555V140.452V140.752H38.1435V140.452ZM38.0555 140.452L37.7793 140.335L31.9713 154.019L32.2475 154.136L32.5236 154.253L38.3316 140.569L38.0555 140.452ZM32.2475 154.136H31.9475V161H32.2475H32.5475V154.136H32.2475ZM32.2475 161V160.7H28.8595V161V161.3H32.2475V161ZM28.8595 161H29.1595V130.2H28.8595H28.5595V161H28.8595ZM28.8595 130.2V130.5H32.2475V130.2V129.9H28.8595V130.2ZM32.2475 130.2H31.9475V149.472H32.2475H32.5475V130.2H32.2475ZM32.2475 149.472V149.772H32.3355V149.472V149.172H32.2475V149.472ZM32.3355 149.472L32.6116 149.589L38.4196 135.905L38.1435 135.788L37.8673 135.671L32.0593 149.355L32.3355 149.472ZM38.1435 135.788H38.4435V130.2H38.1435H37.8435V135.788H38.1435ZM38.1435 130.2V130.5H41.5315V130.2V129.9H38.1435V130.2ZM41.5315 130.2H41.2315V161H41.5315H41.8315V130.2H41.5315ZM60.6907 130.2L60.9889 130.233L61.0259 129.9H60.6907V130.2ZM60.3387 133.368L60.2215 133.644L60.5924 133.802L60.6369 133.401L60.3387 133.368ZM54.1787 131.96V131.66H53.8787V131.96H54.1787ZM54.1787 161V161.3H54.4787V161H54.1787ZM50.7907 161H50.4907V161.3H50.7907V161ZM50.7907 131.96H51.0907V131.66H50.7907V131.96ZM47.7107 132.84L47.4116 132.817L47.4114 132.82L47.7107 132.84ZM47.3587 138.12V138.42H47.6394L47.658 138.14L47.3587 138.12ZM44.6747 138.12H44.3747V138.42H44.6747V138.12ZM44.6747 130.2V129.9H44.3747V130.2H44.6747ZM60.6907 130.2L60.3925 130.167L60.0405 133.335L60.3387 133.368L60.6369 133.401L60.9889 130.233L60.6907 130.2ZM60.3387 133.368L60.4559 133.092C58.9905 132.47 56.4825 131.66 54.3987 131.66V131.96V132.26C56.3629 132.26 58.7829 133.034 60.2215 133.644L60.3387 133.368ZM54.3987 131.96V131.66H54.1787V131.96V132.26H54.3987V131.96ZM54.1787 131.96H53.8787V161H54.1787H54.4787V131.96H54.1787ZM54.1787 161V160.7H50.7907V161V161.3H54.1787V161ZM50.7907 161H51.0907V131.96H50.7907H50.4907V161H50.7907ZM50.7907 131.96V131.66H48.6787V131.96V132.26H50.7907V131.96ZM48.6787 131.96V131.66C48.3397 131.66 48.03 131.752 47.796 131.963C47.5608 132.174 47.438 132.473 47.4116 132.817L47.7107 132.84L48.0098 132.863C48.0274 132.635 48.1026 132.494 48.1974 132.408C48.2934 132.322 48.4457 132.26 48.6787 132.26V131.96ZM47.7107 132.84L47.4114 132.82L47.0594 138.1L47.3587 138.12L47.658 138.14L48.01 132.86L47.7107 132.84ZM47.3587 138.12V137.82H44.6747V138.12V138.42H47.3587V138.12ZM44.6747 138.12H44.9747V130.2H44.6747H44.3747V138.12H44.6747ZM44.6747 130.2V130.5H60.6907V130.2V129.9H44.6747V130.2ZM72.8237 161V161.3H73.1237V161H72.8237ZM69.4357 161H69.1357V161.3H69.4357V161ZM69.4357 145.952H69.7357V145.652H69.4357V145.952ZM64.5517 155.456L64.261 155.382L64.2609 155.382L64.5517 155.456ZM63.1437 161V161.3H63.377L63.4345 161.074L63.1437 161ZM59.5797 161L59.2915 160.917L59.1808 161.3H59.5797V161ZM61.3837 154.752L61.6719 154.835L61.6722 154.834L61.3837 154.752ZM67.2357 145.204L67.3457 145.483L67.5357 145.408V145.204H67.2357ZM67.2357 145.072H67.5357V144.869L67.3478 144.794L67.2357 145.072ZM72.8237 130.2H73.1237V129.9H72.8237V130.2ZM69.4357 144.28L69.3989 144.578L69.7357 144.619V144.28H69.4357ZM69.4357 131.96H69.7357V131.66H69.4357V131.96ZM72.8237 161V160.7H69.4357V161V161.3H72.8237V161ZM69.4357 161H69.7357V145.952H69.4357H69.1357V161H69.4357ZM69.4357 145.952V145.652C68.3025 145.652 67.4247 146.542 66.6427 148.112C65.8516 149.7 65.0972 152.103 64.261 155.382L64.5517 155.456L64.8424 155.53C65.6782 152.253 66.4198 149.904 67.1797 148.379C67.9487 146.836 68.6769 146.252 69.4357 146.252V145.952ZM64.5517 155.456L64.2609 155.382L62.8529 160.926L63.1437 161L63.4345 161.074L64.8425 155.53L64.5517 155.456ZM63.1437 161V160.7H59.5797V161V161.3H63.1437V161ZM59.5797 161L59.8679 161.083L61.6719 154.835L61.3837 154.752L61.0955 154.669L59.2915 160.917L59.5797 161ZM61.3837 154.752L61.6722 154.834C63.2615 149.272 64.5966 146.566 67.3457 145.483L67.2357 145.204L67.1257 144.925C64.0668 146.13 62.6739 149.144 61.0952 154.67L61.3837 154.752ZM67.2357 145.204H67.5357V145.072H67.2357H66.9357V145.204H67.2357ZM67.2357 145.072L67.3478 144.794C64.4534 143.627 61.2877 141.244 61.2877 136.58H60.9877H60.6877C60.6877 141.596 64.122 144.141 67.1236 145.35L67.2357 145.072ZM60.9877 136.58H61.2877C61.2877 134.168 61.9315 132.684 63.1414 131.783C64.3739 130.865 66.2581 130.5 68.8637 130.5V130.2V129.9C66.2333 129.9 64.1795 130.261 62.783 131.301C61.3639 132.358 60.6877 134.064 60.6877 136.58H60.9877ZM68.8637 130.2V130.5H72.8237V130.2V129.9H68.8637V130.2ZM72.8237 130.2H72.5237V161H72.8237H73.1237V130.2H72.8237ZM69.4357 144.28H69.7357V131.96H69.4357H69.1357V144.28H69.4357ZM69.4357 131.96V131.66C67.8844 131.66 66.5608 131.867 65.6286 132.617C64.6803 133.381 64.2077 134.645 64.2077 136.58H64.5077H64.8077C64.8077 134.731 65.2591 133.685 66.0049 133.085C66.7666 132.471 67.907 132.26 69.4357 132.26V131.96ZM64.5077 136.58H64.2077C64.2077 138.287 64.5549 140.154 65.3714 141.662C66.1918 143.176 67.4977 144.343 69.3989 144.578L69.4357 144.28L69.4725 143.982C67.8097 143.777 66.6516 142.766 65.899 141.376C65.1425 139.98 64.8077 138.217 64.8077 136.58H64.5077ZM76.22 153.564L76.1636 153.269L75.8894 153.322L75.922 153.599L76.22 153.564ZM79.212 152.992L79.5103 152.961L79.4763 152.636L79.1556 152.697L79.212 152.992ZM81.06 146.084L80.8478 146.296L81.0746 146.523L81.2857 146.282L81.06 146.084ZM79.872 144.896L79.6371 144.709L79.4706 144.919L79.6598 145.108L79.872 144.896ZM84.976 131.96H85.276V131.66H84.976V131.96ZM80.004 132.84L79.7048 132.817L79.7046 132.82L80.004 132.84ZM79.696 137.504V137.804H79.9768L79.9953 137.524L79.696 137.504ZM77.056 137.504H76.756V137.804H77.056V137.504ZM77.056 130.2V129.9H76.756V130.2H77.056ZM88.54 130.2H88.84V129.9H88.54V130.2ZM83.304 143.048L83.0843 142.844L82.682 143.276L83.2685 143.346L83.304 143.048ZM89.5079 151.54H89.208C89.208 155.22 88.4015 157.671 87.1374 159.197C85.8807 160.715 84.1369 161.36 82.16 161.36V161.66V161.96C84.275 161.96 86.2052 161.263 87.5995 159.58C88.9864 157.905 89.808 155.296 89.808 151.54H89.5079ZM82.16 161.66V161.36C81.0903 161.36 80.2494 161.143 79.5787 160.765C78.9084 160.387 78.3897 159.837 77.9798 159.143C77.152 157.74 76.7821 155.775 76.5179 153.529L76.22 153.564L75.922 153.599C76.1858 155.841 76.5639 157.924 77.4631 159.447C77.9167 160.216 78.5062 160.849 79.2839 161.287C80.061 161.726 81.0076 161.96 82.16 161.96V161.66ZM76.22 153.564L76.2763 153.859L79.2683 153.287L79.212 152.992L79.1556 152.697L76.1636 153.269L76.22 153.564ZM79.212 152.992L78.9136 153.023C79.1559 155.336 79.5228 156.968 80.1533 158.024C80.4731 158.56 80.8649 158.956 81.347 159.215C81.8276 159.473 82.3772 159.584 82.996 159.584V159.284V158.984C82.4487 158.984 82.0028 158.886 81.6309 158.686C81.2605 158.487 80.9428 158.176 80.6686 157.717C80.1111 156.782 79.752 155.268 79.5103 152.961L79.212 152.992ZM82.996 159.284V159.584C83.6082 159.584 84.1372 159.433 84.5816 159.142C85.0244 158.851 85.3657 158.432 85.6232 157.923C86.1337 156.914 86.332 155.515 86.332 153.916H86.032H85.732C85.732 155.485 85.5342 156.77 85.0878 157.653C84.8668 158.09 84.5893 158.419 84.2524 158.64C83.9172 158.86 83.5057 158.984 82.996 158.984V159.284ZM86.032 153.916H86.332C86.332 150.68 86.0591 148.499 85.4363 147.121C85.1212 146.424 84.71 145.917 84.187 145.587C83.6647 145.259 83.0577 145.124 82.38 145.124V145.424V145.724C82.9783 145.724 83.4658 145.842 83.8674 146.095C84.2684 146.348 84.6107 146.751 84.8896 147.368C85.4548 148.619 85.732 150.684 85.732 153.916H86.032ZM82.38 145.424V145.124C82.1167 145.124 81.8157 145.222 81.5528 145.354C81.2864 145.487 81.0205 145.673 80.8342 145.886L81.06 146.084L81.2857 146.282C81.4074 146.143 81.6036 145.999 81.8211 145.89C82.0423 145.78 82.2472 145.724 82.38 145.724V145.424ZM81.06 146.084L81.2721 145.872L80.0841 144.684L79.872 144.896L79.6598 145.108L80.8478 146.296L81.06 146.084ZM79.872 144.896L80.1068 145.083C84.0628 140.104 85.276 135.419 85.276 131.96H84.976H84.676C84.676 135.277 83.5132 139.832 79.6371 144.709L79.872 144.896ZM84.976 131.96V131.66H80.972V131.96V132.26H84.976V131.96ZM80.972 131.96V131.66C80.6329 131.66 80.3232 131.752 80.0893 131.963C79.8541 132.174 79.7313 132.473 79.7048 132.817L80.004 132.84L80.3031 132.863C80.3206 132.635 80.3958 132.494 80.4906 132.408C80.5867 132.322 80.739 132.26 80.972 132.26V131.96ZM80.004 132.84L79.7046 132.82L79.3966 137.484L79.696 137.504L79.9953 137.524L80.3033 132.86L80.004 132.84ZM79.696 137.504V137.204H77.056V137.504V137.804H79.696V137.504ZM77.056 137.504H77.3559V130.2H77.056H76.756V137.504H77.056ZM77.056 130.2V130.5H88.54V130.2V129.9H77.056V130.2ZM88.54 130.2H88.24C88.24 132.969 87.724 137.857 83.0843 142.844L83.304 143.048L83.5236 143.252C88.2999 138.119 88.84 133.063 88.84 130.2H88.54ZM83.304 143.048L83.2685 143.346C85.0541 143.558 86.5261 144.276 87.5564 145.582C88.5906 146.893 89.208 148.833 89.208 151.54H89.5079H89.808C89.808 148.747 89.1713 146.661 88.0275 145.211C86.8798 143.756 85.2498 142.978 83.3394 142.75L83.304 143.048ZM92.8829 161H92.5829V161.3H92.8829V161ZM92.8829 130.2V129.9H92.5829V130.2H92.8829ZM96.2709 130.2H96.5709V129.9H96.2709V130.2ZM96.2709 143.444H95.9709V143.695L96.2179 143.739L96.2709 143.444ZM96.2709 145.292L96.3464 145.002L95.9709 144.904V145.292H96.2709ZM96.2709 159.24H95.9709V159.54H96.2709V159.24ZM105.379 153.96H105.079C105.079 156.671 104.286 158.326 102.95 159.318C101.595 160.326 99.6195 160.7 97.1509 160.7V161V161.3C99.6543 161.3 101.793 160.926 103.308 159.8C104.844 158.658 105.679 156.793 105.679 153.96H105.379ZM97.1509 161V160.7H92.8829V161V161.3H97.1509V161ZM92.8829 161H93.1829V130.2H92.8829H92.5829V161H92.8829ZM92.8829 130.2V130.5H96.2709V130.2V129.9H92.8829V130.2ZM96.2709 130.2H95.9709V143.444H96.2709H96.5709V130.2H96.2709ZM96.2709 143.444L96.2179 143.739C97.0403 143.887 99.2687 144.531 101.284 146.101C103.289 147.662 105.079 150.132 105.079 153.96H105.379H105.679C105.679 149.912 103.773 147.278 101.653 145.627C99.543 143.985 97.2174 143.309 96.3239 143.149L96.2709 143.444ZM101.859 153.96H102.159C102.159 148.631 98.6779 145.608 96.3464 145.002L96.2709 145.292L96.1954 145.582C98.2639 146.12 101.559 148.905 101.559 153.96H101.859ZM96.2709 145.292H95.9709V159.24H96.2709H96.5709V145.292H96.2709ZM96.2709 159.24V159.54C98.0315 159.54 99.5169 159.242 100.561 158.364C101.618 157.477 102.159 156.054 102.159 153.96H101.859H101.559C101.559 155.958 101.044 157.175 100.175 157.905C99.2949 158.644 97.9863 158.94 96.2709 158.94V159.24Z" fill="white" mask="url(#path-2-outside-1_39_242)"/>
<path d="M25.6398 171.574H28.5378C28.9398 171.574 29.2818 171.634 29.5638 171.754C29.8458 171.868 30.0738 172.021 30.2478 172.213C30.4278 172.405 30.5568 172.627 30.6348 172.879C30.7188 173.125 30.7608 173.377 30.7608 173.635C30.7608 173.899 30.7188 174.154 30.6348 174.4C30.5568 174.646 30.4278 174.865 30.2478 175.057C30.0738 175.249 29.8458 175.405 29.5638 175.525C29.2818 175.639 28.9398 175.696 28.5378 175.696H27.0528V178H25.6398V171.574ZM28.1508 174.598C28.3128 174.598 28.4688 174.586 28.6188 174.562C28.7688 174.538 28.9008 174.493 29.0148 174.427C29.1288 174.355 29.2188 174.256 29.2848 174.13C29.3568 174.004 29.3928 173.839 29.3928 173.635C29.3928 173.431 29.3568 173.266 29.2848 173.14C29.2188 173.014 29.1288 172.918 29.0148 172.852C28.9008 172.78 28.7688 172.732 28.6188 172.708C28.4688 172.684 28.3128 172.672 28.1508 172.672H27.0528V174.598H28.1508ZM32.5428 171.574H37.3488V172.762H33.9558V174.139H37.0698V175.237H33.9558V176.812H37.4208V178H32.5428V171.574ZM39.3237 171.574H43.7877V172.762H40.7367V178H39.3237V171.574ZM45.3467 171.574H50.1167V172.735H46.7597V173.95H48.4337C48.7577 173.95 49.0577 173.989 49.3337 174.067C49.6097 174.145 49.8497 174.268 50.0537 174.436C50.2577 174.598 50.4167 174.808 50.5307 175.066C50.6507 175.318 50.7107 175.618 50.7107 175.966C50.7107 176.32 50.6537 176.626 50.5397 176.884C50.4257 177.136 50.2637 177.346 50.0537 177.514C49.8497 177.682 49.6037 177.805 49.3157 177.883C49.0277 177.961 48.7097 178 48.3617 178H45.3467V171.574ZM48.2087 176.848C48.5507 176.848 48.8177 176.785 49.0097 176.659C49.2017 176.527 49.2977 176.29 49.2977 175.948C49.2977 175.78 49.2707 175.639 49.2167 175.525C49.1627 175.411 49.0847 175.321 48.9827 175.255C48.8867 175.183 48.7697 175.132 48.6317 175.102C48.4997 175.072 48.3557 175.057 48.1997 175.057H46.7597V176.848H48.2087ZM52.566 171.574H53.97V176.029H53.997L56.445 171.574H58.029V178H56.625V173.536H56.598L54.15 178H52.566V171.574ZM59.5511 174.994H64.0511V176.092H59.5511V174.994ZM65.5721 171.574H66.9851V174.148L69.4961 171.574H71.2601L68.4881 174.265L71.5031 178H69.7301L67.4621 175.147L66.9851 175.66V178H65.5721V171.574ZM73.0662 178.072C72.8442 178.072 72.6402 178.036 72.4542 177.964V176.812C72.4782 176.824 72.5112 176.833 72.5532 176.839C72.6012 176.845 72.6402 176.848 72.6702 176.848C72.8982 176.848 73.0842 176.773 73.2282 176.623C73.3782 176.473 73.4922 176.239 73.5702 175.921C73.6542 175.603 73.7112 175.192 73.7412 174.688C73.7712 174.184 73.7862 173.578 73.7862 172.87V171.574H78.4122V178H77.0082V172.762H75.1272C75.1092 173.506 75.0822 174.202 75.0462 174.85C75.0162 175.498 74.9382 176.062 74.8122 176.542C74.6862 177.016 74.4882 177.391 74.2182 177.667C73.9482 177.937 73.5642 178.072 73.0662 178.072ZM81.7977 178.117C81.6417 178.117 81.5007 178.096 81.3747 178.054C81.2547 178.012 81.1647 177.973 81.1047 177.937V176.794C81.1707 176.83 81.2487 176.863 81.3387 176.893C81.4347 176.917 81.5517 176.929 81.6897 176.929C82.1157 176.929 82.3737 176.752 82.4637 176.398L79.8897 171.574H81.4737L83.2197 174.922L84.5247 171.574H86.0007L83.9937 176.29C83.8497 176.62 83.7027 176.902 83.5527 177.136C83.4087 177.364 83.2467 177.553 83.0667 177.703C82.8927 177.847 82.7007 177.952 82.4907 178.018C82.2867 178.084 82.0557 178.117 81.7977 178.117ZM87.2828 171.574H92.0528V172.735H88.6958V173.95H90.3698C90.6938 173.95 90.9938 173.989 91.2698 174.067C91.5458 174.145 91.7858 174.268 91.9898 174.436C92.1938 174.598 92.3528 174.808 92.4668 175.066C92.5868 175.318 92.6468 175.618 92.6468 175.966C92.6468 176.32 92.5898 176.626 92.4758 176.884C92.3618 177.136 92.1998 177.346 91.9898 177.514C91.7858 177.682 91.5398 177.805 91.2518 177.883C90.9638 177.961 90.6458 178 90.2978 178H87.2828V171.574ZM90.1448 176.848C90.4868 176.848 90.7538 176.785 90.9458 176.659C91.1378 176.527 91.2338 176.29 91.2338 175.948C91.2338 175.78 91.2068 175.639 91.1528 175.525C91.0988 175.411 91.0208 175.321 90.9188 175.255C90.8228 175.183 90.7058 175.132 90.5678 175.102C90.4358 175.072 90.2918 175.057 90.1358 175.057H88.6958V176.848H90.1448Z" fill="white"/>
<defs>
<clipPath id="clip0_39_242">
<rect width="75" height="113" fill="white" transform="translate(17)"/>
</clipPath>
</defs>
</svg>
