<svg width="176" height="69" viewBox="0 0 176 69" fill="none" xmlns="http://www.w3.org/2000/svg">
<g clip-path="url(#clip0_437_916)">
<path d="M165.27 31.0958V22.8015H158.763L160.982 25.9463V39.3824L162.524 38.1505L171.53 30.6443V38.9156H175.811V22.3271L165.27 31.0958Z" fill="white"/>
<path d="M119.802 35.4342V32.4501H126.128V28.9457H119.802V26.4819L119.844 26.3212H127.027V22.8015H113.271L115.522 25.9692V38.9156H127.283V35.4342H119.802Z" fill="white"/>
<path d="M106.384 22.8015H97.7734L100.041 25.9922V38.9156H104.322V34.6614H106.359C110.252 34.6614 113.122 32.2741 113.122 28.7314C113.122 25.1888 110.277 22.8015 106.384 22.8015ZM106.062 31.287H104.322V26.1758H106.062C107.728 26.1758 108.726 27.293 108.726 28.7314C108.726 30.1699 107.728 31.287 106.062 31.287Z" fill="white"/>
<path d="M141.278 22.8015H128.907L131.167 25.9845V38.9156H135.456V26.3671H141.278V22.8015Z" fill="white"/>
<path d="M151.382 29.0987H149.328V26.3671H156.949V22.8015H142.78L145.04 25.9845V38.9156H152.561C156.066 38.9156 158.326 36.9339 158.326 34.0569C158.326 30.1929 155.638 29.0987 151.382 29.0987ZM152.058 35.6255H149.336V32.297H152.058C153.238 32.297 153.955 32.9627 153.955 33.9727C153.955 34.9827 153.213 35.6255 152.058 35.6255Z" fill="white"/>
<path d="M103.67 49.6507V45.3046H101.402V49.6507H100.049V44.0957H105.014V49.6507H103.662H103.67Z" fill="white"/>
<path d="M106.466 49.6507V44.0957H110.177V45.3276H107.818V46.2687H109.674V47.47H107.818V48.4111H110.177V49.643H106.466V49.6507Z" fill="white"/>
<path d="M111.39 49.6507V44.0957H113.361C113.938 44.0957 114.425 44.2793 114.821 44.6466C115.216 45.0139 115.414 45.4576 115.414 45.9856C115.414 46.5136 115.216 46.9573 114.821 47.3246C114.425 47.6919 113.938 47.8755 113.361 47.8755H112.734V49.6583H111.381L111.39 49.6507ZM112.742 46.6972H113.352C113.567 46.6972 113.748 46.6283 113.889 46.483C114.037 46.3376 114.111 46.1692 114.111 45.978C114.111 45.7867 114.037 45.6183 113.889 45.4806C113.74 45.3429 113.559 45.2664 113.352 45.2664H112.742V46.6972Z" fill="white"/>
<path d="M116.437 49.6507V44.0345L119.423 46.812L122.408 44.0345V49.6507H121.056V46.9267L119.423 48.4417L117.79 46.9267V49.6507H116.437Z" fill="white"/>
<path d="M126.59 49.7119C125.748 49.7119 125.023 49.4364 124.429 48.8779C123.827 48.3193 123.53 47.6536 123.53 46.8732C123.53 46.0927 123.827 45.4194 124.429 44.8685C125.031 44.3176 125.748 44.0345 126.59 44.0345C127.093 44.0345 127.571 44.1416 128.008 44.3558C128.445 44.5701 128.808 44.8685 129.097 45.2358L128.074 46.0086C127.917 45.7714 127.711 45.5877 127.447 45.4423C127.192 45.3046 126.903 45.2281 126.59 45.2281C126.103 45.2281 125.699 45.3888 125.377 45.7025C125.047 46.0239 124.891 46.4064 124.891 46.8579C124.891 47.3093 125.056 47.6995 125.377 48.0133C125.707 48.3346 126.111 48.4876 126.59 48.4876C126.903 48.4876 127.192 48.4188 127.447 48.2734C127.703 48.1357 127.917 47.9444 128.074 47.7072L129.097 48.48C128.808 48.8473 128.445 49.1457 128.008 49.3599C127.571 49.5742 127.101 49.6813 126.59 49.6813V49.7119Z" fill="white"/>
<path d="M130.045 49.6507V44.0957H131.398V46.8808L133.485 44.0957H135.035L132.94 46.9038L135.307 49.6507H133.641L131.398 47.0492V49.6507H130.045Z" fill="white"/>
<path d="M140.478 48.8779C139.876 49.4364 139.159 49.7119 138.318 49.7119C137.476 49.7119 136.751 49.4364 136.157 48.8779C135.555 48.3193 135.258 47.6536 135.258 46.8732C135.258 46.0927 135.555 45.4194 136.157 44.8685C136.759 44.3099 137.476 44.0345 138.318 44.0345C139.159 44.0345 139.885 44.3099 140.478 44.8685C141.08 45.427 141.377 46.0927 141.377 46.8732C141.377 47.6536 141.08 48.327 140.478 48.8779ZM137.105 48.0286C137.435 48.3499 137.839 48.503 138.318 48.503C138.796 48.503 139.208 48.3423 139.53 48.0286C139.86 47.7072 140.017 47.3246 140.017 46.8732C140.017 46.4217 139.852 46.0315 139.53 45.7178C139.2 45.3964 138.796 45.2434 138.318 45.2434C137.839 45.2434 137.427 45.4041 137.105 45.7178C136.775 46.0392 136.619 46.4217 136.619 46.8732C136.619 47.3246 136.784 47.7148 137.105 48.0286Z" fill="white"/>
<path d="M145.996 44.0957V45.3276H143.843V49.643H142.491V44.088H145.988L145.996 44.0957Z" fill="white"/>
<path d="M151.678 48.8779C151.076 49.4364 150.359 49.7119 149.517 49.7119C148.676 49.7119 147.95 49.4364 147.356 48.8779C146.754 48.3193 146.458 47.6536 146.458 46.8732C146.458 46.0927 146.754 45.4194 147.356 44.8685C147.959 44.3176 148.676 44.0345 149.517 44.0345C150.359 44.0345 151.084 44.3099 151.678 44.8685C152.28 45.427 152.577 46.0927 152.577 46.8732C152.577 47.6536 152.28 48.327 151.678 48.8779ZM148.305 48.0286C148.635 48.3499 149.039 48.503 149.517 48.503C149.996 48.503 150.408 48.3423 150.73 48.0286C151.06 47.7072 151.216 47.3246 151.216 46.8732C151.216 46.4217 151.051 46.0315 150.73 45.7178C150.4 45.3964 149.996 45.2434 149.517 45.2434C149.039 45.2434 148.627 45.4041 148.305 45.7178C147.975 46.0392 147.818 46.4217 147.818 46.8732C147.818 47.3246 147.983 47.7148 148.305 48.0286Z" fill="white"/>
<path d="M155.703 49.6507V44.0957H157.056V46.8808L159.142 44.0957H160.693L158.598 46.9038L160.965 49.6507H159.299L157.056 47.0492V49.6507H155.703Z" fill="white"/>
<path d="M161.641 49.6507V44.0957H163.612C164.19 44.0957 164.676 44.2793 165.072 44.6466C165.468 45.0139 165.666 45.4576 165.666 45.9856C165.666 46.5136 165.468 46.9573 165.072 47.3246C164.676 47.6919 164.19 47.8755 163.612 47.8755H162.985V49.6583H161.633L161.641 49.6507ZM162.994 46.6972H163.604C163.818 46.6972 164 46.6283 164.14 46.483C164.288 46.3376 164.363 46.1692 164.363 45.978C164.363 45.7867 164.288 45.6183 164.14 45.4806C163.992 45.3429 163.81 45.2664 163.604 45.2664H162.994V46.6972Z" fill="white"/>
<path d="M165.41 49.6507L168.363 44.0345L171.315 49.6507H169.897L169.46 48.7937H167.266L166.829 49.6507H165.41ZM167.777 47.7684H168.94L168.354 46.6207L167.769 47.7684H167.777Z" fill="white"/>
<path d="M171.456 49.6507L173.08 47.5771C172.75 47.4241 172.478 47.2098 172.28 46.9344C172.074 46.6589 171.975 46.3376 171.975 45.9856C171.975 45.4576 172.173 45.0139 172.569 44.6466C172.965 44.2793 173.451 44.0957 174.029 44.0957H176V49.6507H174.647V47.8679H174.383L172.998 49.6507H171.447H171.456ZM174.045 46.6972H174.656V45.2664H174.045C173.823 45.2664 173.641 45.3352 173.501 45.4653C173.361 45.5954 173.286 45.7714 173.286 45.978C173.286 46.1845 173.361 46.3605 173.501 46.4906C173.641 46.6283 173.823 46.6972 174.045 46.6972Z" fill="white"/>
<path d="M78.7546 39.9103L74.0701 49.5283H0L65.0144 68.5117L74.0536 49.5665L73.9876 49.5895L74.0536 49.5589V49.5665L74.0701 49.5589L74.1443 49.5283H74.1113L84.2474 42.4659L78.7546 39.9103Z" fill="white"/>
<path d="M70.1442 30.5602L64.907 33.483L54.5153 29.0987L59.406 36.4748L64.8246 33.5519L78.9112 39.9562L97.6906 0L53.8802 17.4148L59.7277 19.8404L53.0308 22.7862L70.1442 30.5602Z" fill="white"/>
</g>
<defs>
<clipPath id="clip0_437_916">
<rect width="176" height="68.5117" fill="white"/>
</clipPath>
</defs>
</svg>
