<svg width="50" height="92" viewBox="0 0 50 92" fill="none" xmlns="http://www.w3.org/2000/svg">
<g clip-path="url(#clip0_121_790)">
<path d="M11.4674 29.1383C20.2704 28.0209 28.4094 27.0633 37.8447 26.3594C38.8577 26.2833 39.097 26.231 39.5494 27.2501C40.3971 29.1622 41.1553 32.3046 42.6137 32.3815C42.8623 32.3946 43.1557 32.2408 43.0175 31.4255C42.6562 29.2936 41.8378 24.7516 41.6239 24.0146C41.2904 22.868 40.7067 22.3631 40.1647 22.3861C34.4291 22.6321 20.959 23.8079 11.0242 25.4003C9.09792 25.7085 9.47159 29.392 11.4666 29.1383M38.88 23.3491C38.8854 23.3491 38.8916 23.3491 38.8963 23.3491C39.4498 23.3245 39.9208 23.751 39.9463 24.3028C39.971 24.8508 39.5486 25.315 39.0013 25.3465C38.9958 25.3465 38.9897 25.348 38.985 25.348C38.9696 25.348 38.9542 25.3496 38.9387 25.3496C38.4045 25.3496 37.9597 24.9307 37.9358 24.3935C37.9111 23.8463 38.3326 23.3821 38.88 23.3499M35.8891 23.5597C35.8891 23.5597 35.8976 23.5597 35.8984 23.5597C36.4496 23.5189 36.9329 23.9347 36.9731 24.4865C37.0124 25.0383 36.5947 25.5163 36.042 25.5563C36.0173 25.5578 35.9925 25.5586 35.9686 25.5586C35.4467 25.5586 35.0028 25.1567 34.9649 24.6302C34.924 24.08 35.3371 23.6012 35.8891 23.5604M32.8912 23.7987C32.8981 23.7987 32.912 23.7971 32.919 23.7971C33.4702 23.7572 33.9535 24.1722 33.9929 24.724C34.0323 25.2719 33.6216 25.7484 33.0726 25.793C33.0425 25.7945 33.0132 25.7961 32.9838 25.7961C32.4704 25.7961 32.0319 25.4064 31.9832 24.8877C31.9323 24.3382 32.3384 23.8502 32.8912 23.7995M29.9134 24.0615C29.9134 24.0615 29.9219 24.06 29.9234 24.06C30.4762 24.0108 30.9641 24.4181 31.0135 24.9676C31.063 25.5179 30.6545 26.0043 30.1025 26.0535C30.0716 26.0558 30.0415 26.0574 30.0114 26.0574C29.4972 26.0574 29.0564 25.6677 29.0085 25.1474C28.9583 24.5987 29.3613 24.1115 29.9134 24.0615ZM26.9201 24.3497C26.927 24.3482 26.9402 24.3474 26.9479 24.3466C27.4999 24.2982 27.9894 24.7032 28.0388 25.2543C28.0874 25.8007 27.6852 26.2841 27.1378 26.3386C27.1015 26.3425 27.066 26.344 27.0313 26.344C26.5256 26.344 26.0901 25.9659 26.033 25.4541C25.9712 24.9046 26.3681 24.4104 26.9209 24.3489M23.9461 24.6587C23.9461 24.6587 23.9554 24.6587 23.9569 24.6571C24.509 24.5979 25.0046 24.996 25.0633 25.5455C25.1227 26.095 24.7228 26.5884 24.1716 26.6468C24.1345 26.6507 24.0982 26.6522 24.0627 26.6522C23.5562 26.6522 23.1185 26.2733 23.0621 25.7615C23.0019 25.2128 23.3957 24.7201 23.9469 24.6587M20.9737 24.9891C21.5219 24.923 22.0214 25.3119 22.0901 25.8583C22.1588 26.407 21.7682 26.9066 21.2177 26.975C21.213 26.975 21.203 26.9765 21.1976 26.9773C21.1598 26.9819 21.1227 26.9834 21.0849 26.9834C20.58 26.9834 20.1437 26.6045 20.0874 26.0935C20.0264 25.5448 20.4232 25.0498 20.9737 24.9883M17.9882 25.3426C17.9959 25.3426 18.009 25.3403 18.016 25.3396C18.568 25.2804 19.0636 25.6785 19.1231 26.228C19.181 26.7736 18.788 27.2639 18.2414 27.3269C18.1997 27.3323 18.158 27.3354 18.1171 27.3354C17.6191 27.3354 17.1868 26.9673 17.1204 26.4639C17.0501 25.9152 17.4377 25.4133 17.9882 25.3426ZM15.0219 25.7161C15.0219 25.7161 15.032 25.7146 15.0335 25.7146C15.584 25.647 16.0858 26.0351 16.1553 26.5838C16.224 27.1325 15.8333 27.6321 15.2829 27.7004C15.2404 27.7058 15.1979 27.7089 15.157 27.7089C14.6583 27.7089 14.2228 27.34 14.158 26.8343C14.0877 26.2871 14.473 25.7876 15.0227 25.7161M12.0286 26.1219C12.0371 26.1204 12.0487 26.1188 12.0572 26.1173C12.6069 26.0405 13.1149 26.4216 13.1914 26.9688C13.2686 27.5137 12.8887 28.0171 12.3436 28.0978C12.2927 28.1055 12.2425 28.1093 12.1923 28.1093C11.7098 28.1093 11.2844 27.7627 11.2025 27.2732C11.1107 26.7275 11.4805 26.2126 12.0286 26.1219ZM31.1155 29.3681C31.923 29.0869 33.752 28.7917 34.5951 29.02C35.2707 29.2029 36.3616 30.1159 34.7302 30.5693C32.8348 31.0958 30.1118 29.7178 31.1155 29.3681ZM38.8592 43.4958C38.799 43.9815 38.7727 44.5302 38.7689 44.9152C38.7673 45.0713 38.6229 45.1642 38.4701 45.1327C37.5513 44.9429 36.7082 44.926 36.0697 44.9229C35.947 44.9229 35.8891 44.7708 35.9825 44.6901C36.5585 44.1951 37.4803 43.6049 38.3859 43.213C38.8522 43.0116 38.8924 43.2307 38.8592 43.495M39.5378 37.8702C37.3846 38.0186 36.2118 38.3375 35.3942 38.1692C34.1064 37.9041 34.6113 36.3532 35.5208 36.0865C36.1084 35.9151 36.1678 35.3626 35.4498 35.3741C34.223 35.3933 33.1475 36.3232 33.0464 37.9064C33.0139 38.4243 32.8734 38.9515 31.8775 39.5917C30.0778 40.7468 28.8433 42.2877 28.1824 44.0299C27.9408 44.6685 27.4937 45.0935 27.3733 43.9915C26.9687 40.2964 27.4003 34.4895 29.3397 32.2455C30.3789 31.0435 31.3502 31.6867 32.5221 31.7259C33.9836 31.7744 35.151 31.1741 35.2606 31.7736C35.5749 33.4805 32.16 34.0507 31.9948 34.4926C31.7956 35.0237 32.5816 35.1589 33.6331 34.8892C37.6872 33.8517 37.2278 30.3534 37.1398 29.05C37.0811 28.1715 37.8316 27.8388 38.2508 28.6742C39.151 30.471 40.3207 33.9208 40.9715 35.7991C41.3722 36.9542 40.7422 37.7872 39.5363 37.8702M25.8122 39.3619C25.8361 39.4065 25.8446 39.458 25.8408 39.5087C25.806 39.989 25.7867 40.4678 25.7836 40.9482C25.769 42.8894 25.3312 41.6444 24.7969 40.9105C24.3237 40.2603 23.5161 39.4173 22.7765 39.0276C22.3572 38.8055 22.3441 38.6887 22.7471 38.316C23.039 38.047 23.3007 37.7496 23.5416 37.4322C23.5809 37.3807 23.6535 37.3676 23.7076 37.4038C24.4781 37.9187 25.4594 38.6995 25.813 39.3619M27.2799 30.6001C27.1602 30.5071 27.0421 30.4195 26.9278 30.3372C26.8931 30.3126 26.883 30.2673 26.9031 30.2312C27.2088 29.6748 27.8334 28.7256 28.3476 28.7641C28.6503 28.7856 28.7584 29.2067 28.4179 29.9737C28.2534 30.3441 28.0975 30.7115 27.9477 31.075C27.9346 31.1073 27.8937 31.1173 27.8674 31.0927C27.6875 30.9298 27.493 30.7653 27.2799 30.6001ZM26.8228 34.0845C26.5966 33.8732 26.3411 33.6595 26.0554 33.4443C25.9265 33.3475 25.7991 33.2561 25.6763 33.1708C25.6609 33.16 25.6547 33.1416 25.6616 33.1239C25.728 32.954 26.0623 32.0856 26.2376 31.6622C26.2561 31.6199 26.3094 31.6053 26.3472 31.6337C26.8699 32.0341 27.1401 32.3023 27.3401 32.5244C27.3617 32.5483 27.3679 32.5813 27.3563 32.6105C27.1803 33.1024 27.0181 33.5888 26.8707 34.0707C26.8645 34.0922 26.839 34.0984 26.8236 34.0838M26.0214 37.4545C25.813 37.2593 25.5806 37.0618 25.3243 36.8604C24.9907 36.5999 24.668 36.3762 24.404 36.2033C24.3715 36.1818 24.3607 36.1403 24.3793 36.1065C24.6526 35.5924 24.895 35.0552 25.1181 34.5141C25.1336 34.4765 25.1799 34.4634 25.2115 34.488C25.6755 34.8354 26.1249 35.2327 26.409 35.6123C26.4329 35.6438 26.4399 35.6853 26.4306 35.723C26.2947 36.2963 26.1789 36.865 26.0863 37.4322C26.0809 37.4637 26.043 37.4768 26.0199 37.4545M19.4914 39.2221C18.9069 39.0415 19.0791 38.6864 19.4103 38.5281C20.8888 37.8187 22.0222 36.6091 22.8598 35.0344C23.6388 33.5688 24.36 31.5369 24.9876 30.0168C25.3374 29.1699 25.1984 28.791 23.9708 28.9262C20.187 29.3428 15.4257 29.903 12.5405 30.3956C12.1059 30.4694 11.6225 30.8176 11.4519 31.221C9.95799 34.7539 2.78403 51.9057 3.82013 53.9676C5.58505 57.4805 17.0856 64.7568 30.172 62.4805C33.5281 61.8972 33.8609 61.4783 31.9423 59.0882C25.1644 50.6476 26.7765 41.4654 19.4921 39.2221M24.6827 58.8877C18.8637 59.3411 8.66711 56.5737 7.50362 52.4283C6.71766 49.6316 12.2332 33.8701 13.6963 32.0756C14.2414 31.4085 18.8174 30.7438 20.9976 30.6162C22.5896 30.5232 22.4761 31.085 22.2113 31.9411C21.8477 33.1185 21.1235 34.5725 20.3298 35.5593C19.0065 37.2062 15.3253 38.9738 15.2983 37.8864C15.2767 37.0203 17.1783 36.6106 18.5888 35.0882C19.7438 33.8424 20.6803 32.1794 19.906 32.2032C19.4242 32.2178 16.126 32.4238 15.3601 33.0755C14.3232 33.9569 9.58277 48.0469 10.2382 51.1448C10.9223 54.378 18.8197 55.9342 22.0808 55.9342C23.0776 55.9342 22.8676 55.2057 22.7325 54.6062C21.0455 47.1524 18.6699 43.3759 15.7932 41.8612C13.5959 40.7038 14.5803 39.8791 16.5838 40.557C22.3016 42.4898 24.8294 51.8926 26.1812 55.4801C27.0791 57.8625 26.3874 58.7539 24.6827 58.8869M38.6206 41.4738C37.2217 41.9149 35.7493 42.8118 34.992 43.4458C32.4419 45.5839 31.178 48.0685 30.7688 51.4415C30.619 52.6773 30.5905 53.7417 29.6686 51.9326C28.1307 48.9146 28.5762 44.7408 31.046 42.1301C32.4913 40.6023 34.4314 39.199 37.7791 39.1252C38.6646 39.106 39.3911 39.3258 39.5656 39.9314C39.7795 40.673 39.3433 41.2456 38.6206 41.4738ZM44.865 55.2564C44.1856 56.1156 43.0739 57.1239 42.0748 57.6288C41.1012 58.1207 39.7324 57.7772 38.6662 57.1646C37.454 56.4684 36.4751 55.5208 35.7926 54.2819C34.3311 51.629 34.5195 48.4112 35.1008 46.6836C35.2267 46.3109 35.5687 46.0557 35.9632 46.0404C36.3353 46.0258 36.7353 46.0511 37.1483 46.0788C38.0725 46.1433 38.9418 46.3478 39.1449 47.0894C39.947 50.019 41.2016 51.8434 44.506 53.7816C45.1067 54.1344 45.1916 54.8429 44.865 55.2572M19.4991 21.4801C19.7122 18.7879 20.5691 12.8335 24.0148 8.55206C24.2441 8.26694 24.6541 8.23159 24.9251 8.47521C28.9969 12.1188 30.7657 17.7835 31.3988 20.4041C31.5756 21.1388 31.4783 21.8574 30.5179 21.9212C28.4519 22.0588 21.9434 22.7258 20.607 22.8964C19.9747 22.9771 19.4396 22.2355 19.4991 21.4808M11.4975 22.9241C11.97 20.3012 13.9449 13.3568 18.6421 9.95999C18.8413 9.81474 19.0914 10.0553 18.9656 10.2712C17.9658 11.9943 15.8388 16.5915 15.3238 22.8388C15.2852 23.3007 14.9293 23.6673 14.4815 23.7049L12.3637 24.0208C11.8287 24.0654 11.3986 23.4682 11.4975 22.9241ZM18.2692 22.337C18.2329 22.7742 17.8646 23.1062 17.4315 23.1062C17.4076 23.1062 17.3844 23.1047 17.3605 23.1032C16.898 23.0655 16.5537 22.6613 16.5923 22.2002V22.1979C16.6309 21.7368 17.0408 21.3948 17.501 21.4332C17.9642 21.4708 18.3078 21.8766 18.2692 22.337ZM18.815 12.5107C18.9934 12.0895 19.4767 11.8867 19.9036 12.0565C20.3352 12.2279 20.5452 12.7159 20.373 13.1455C20.37 13.1532 20.3638 13.1678 20.3599 13.1755C20.2217 13.4898 19.9129 13.6788 19.5886 13.6788C19.4759 13.6788 19.3617 13.6558 19.2528 13.6089C18.8289 13.4252 18.6336 12.9342 18.8158 12.5115M18.1464 18.3107C18.0893 18.3107 18.0322 18.3053 17.975 18.293C17.5195 18.1993 17.2277 17.7574 17.3219 17.3039C17.3234 17.2955 17.3265 17.2817 17.3281 17.2732C17.4354 16.8236 17.8893 16.5454 18.341 16.6515C18.7888 16.7575 19.0683 17.2025 18.9679 17.649C18.8837 18.0417 18.5348 18.3107 18.1464 18.3107ZM18.7594 15.9613C18.6761 15.9613 18.5911 15.949 18.5062 15.9221C18.0654 15.7838 17.8199 15.3166 17.955 14.8777C18.0862 14.4404 18.5456 14.1876 18.9887 14.3113C19.4358 14.4366 19.6967 14.8993 19.5709 15.3442C19.5686 15.3527 19.5647 15.368 19.5616 15.3765C19.4489 15.7331 19.1169 15.9613 18.7587 15.9613M18.5371 19.9815C18.4769 20.398 18.1171 20.6993 17.7048 20.6993C17.667 20.6993 17.6292 20.6969 17.5906 20.6908C17.1312 20.6293 16.8077 20.2074 16.8702 19.7494C16.8718 19.7401 16.8741 19.7248 16.8756 19.7148C16.9528 19.2591 17.3867 18.9516 17.8461 19.0293C18.2993 19.1061 18.6058 19.5296 18.5371 19.9807M19.9855 10.2382C19.9855 10.2382 19.9886 10.2336 19.9901 10.2297C20.2379 9.8424 20.7544 9.72636 21.1459 9.96921C21.5404 10.2151 21.6601 10.7316 21.4138 11.1243C21.4122 11.1266 21.4107 11.1289 21.4091 11.132C21.2486 11.3825 20.976 11.5193 20.6981 11.5193C20.546 11.5193 20.3923 11.4786 20.2534 11.3917C19.8589 11.1473 19.7392 10.6309 19.9855 10.2382ZM30.1403 9.33749C29.9828 9.14536 30.1913 8.86716 30.4113 8.97552C35.5787 11.537 38.4407 17.742 39.3201 20.2504C39.5023 20.7715 39.1541 21.2849 38.6191 21.331L36.4179 21.4755C35.9702 21.5131 35.6451 21.1696 35.5347 20.72C34.0446 14.6418 31.3973 10.8684 30.1403 9.33749ZM32.6364 20.823C32.5422 20.3703 32.8341 19.9269 33.2888 19.8324C33.7397 19.7386 34.1805 20.023 34.2809 20.4679C34.3828 20.9075 34.1157 21.351 33.6741 21.4655C33.6023 21.4839 33.5312 21.4924 33.461 21.4924C33.0873 21.4924 32.746 21.2434 32.6472 20.8668C32.6441 20.853 32.6395 20.8368 32.6372 20.823M29.3359 11.102C29.7273 10.8522 30.2477 10.9667 30.4978 11.3556C30.7487 11.7453 30.6368 12.2663 30.2446 12.5153C30.1033 12.6052 29.9458 12.6483 29.7906 12.6483C29.5142 12.6483 29.2448 12.513 29.0849 12.264L29.0811 12.2586C28.8309 11.869 28.9444 11.3518 29.3359 11.102ZM32.787 19.1914C32.8719 19.1914 32.9591 19.1791 33.0441 19.1515C33.4864 19.01 33.7296 18.5374 33.5876 18.0978C33.5853 18.0894 33.5799 18.074 33.5768 18.0663C33.4208 17.6313 32.9391 17.4038 32.5021 17.5591C32.0682 17.7136 31.8412 18.1847 31.9871 18.6158C32.1037 18.9685 32.4326 19.1914 32.787 19.1914ZM31.9585 16.9366C31.6242 16.9366 31.3092 16.7368 31.1772 16.4102L31.9578 16.0989L31.1764 16.4078C31.0027 15.979 31.2104 15.491 31.6405 15.3181C32.0705 15.1436 32.56 15.3488 32.7352 15.7769C32.7352 15.7784 32.7383 15.7861 32.7391 15.7884C32.912 16.2173 32.702 16.7053 32.2705 16.8766C32.1678 16.9174 32.062 16.9366 31.9578 16.9366M30.216 14.276L30.9711 13.9063L30.2152 14.2737C30.0106 13.8594 30.1797 13.3568 30.5951 13.1516C31.0105 12.9457 31.5131 13.1132 31.7215 13.5259C31.7215 13.5274 31.7262 13.5359 31.7269 13.5374C31.9315 13.9524 31.7594 14.4543 31.3424 14.6579C31.2228 14.7163 31.0969 14.744 30.9719 14.744C30.6615 14.744 30.3627 14.5719 30.216 14.2752M27.7246 10.4242C27.4227 10.073 27.4636 9.54422 27.8165 9.24296C28.1685 8.94247 28.7005 8.9832 29.0023 9.33441C29.3042 9.68486 29.2641 10.2151 28.9112 10.5156C28.753 10.6509 28.5576 10.7177 28.3638 10.7177C28.1268 10.7177 27.8921 10.6186 27.7261 10.4265L27.7246 10.4249V10.4242ZM21.9727 7.44232C22.4314 5.72776 23.0451 2.67828 23.2536 0.557176C23.3277 -0.195972 24.0079 -0.138333 24.1708 0.447278C24.7545 2.55532 25.9056 5.44034 26.6236 7.06883C26.7626 7.38315 26.409 7.68441 26.1187 7.50073L24.6703 6.58389C24.4047 6.41558 24.0588 6.44325 23.8241 6.65306L22.5456 7.792C22.2854 8.02256 21.8832 7.7774 21.9735 7.44232M33.1784 49.2151C33.1483 50.0051 33.1954 50.8451 33.3398 51.692C33.3475 51.7335 33.3189 51.7743 33.278 51.7819C32.902 51.8526 32.5453 51.8765 32.255 51.8803C32.2017 51.8819 32.1608 51.8357 32.167 51.7835C32.2774 50.8559 32.4928 49.9575 32.7993 49.1413C32.8765 48.9346 33.1869 48.9961 33.1792 49.2159M35.9979 57.1923C35.056 57.728 33.9551 57.8794 33.3683 57.9216C33.2772 57.9285 33.19 57.8817 33.1475 57.8017C32.8873 57.3176 32.6773 56.8019 32.5144 56.2647C32.4944 56.1971 32.5438 56.1287 32.614 56.1256C33.1575 56.101 33.9304 56.0065 34.7434 55.7168C34.8267 55.6868 34.9186 55.7152 34.9688 55.7875C35.2606 56.204 35.6065 56.6213 36.0173 57.0202C36.069 57.0701 36.0605 57.157 35.9972 57.1923M38.9349 59.5079C38.2508 59.8306 37.5876 60.1004 36.9846 60.3125C35.7617 60.7436 34.9541 60.1642 34.1798 59.2711C34.1134 59.1943 34.1558 59.0744 34.257 59.0575C35.0668 58.9238 36.1122 58.634 37.0132 58.0085C37.0835 57.9601 37.1746 57.9578 37.2448 58.0046C37.7359 58.3305 38.2902 58.6248 38.9156 58.8738C39.1981 58.986 39.2113 59.378 38.9356 59.5071M32.177 53.113C32.58 53.1146 33.0788 53.0754 33.559 52.9808C33.6023 52.9724 33.6447 52.997 33.6563 53.0392C33.8053 53.5319 33.9898 54.0183 34.2176 54.4933C34.24 54.5394 34.216 54.5955 34.1674 54.6109C33.3953 54.8583 32.6766 54.899 32.2813 54.899C32.2403 54.899 32.2041 54.8683 32.1979 54.8268C32.1199 54.2912 32.0821 53.747 32.0821 53.2037C32.0821 53.1522 32.1245 53.1107 32.1763 53.1115" fill="white"/>
<path d="M5.58275 77.3754C5.26003 76.9627 4.90488 76.6015 4.52735 76.3025C4.22161 76.0605 3.93363 75.8583 3.67036 75.7C3.8626 75.5809 4.08573 75.4357 4.33588 75.2681C4.6694 75.0445 4.99135 74.7594 5.29323 74.4205C5.59587 74.0808 5.85915 73.6696 6.07609 73.1993C6.29613 72.722 6.40731 72.1733 6.40731 71.5677C6.40731 70.9037 6.31157 70.345 6.12319 69.9062C5.93017 69.4597 5.64065 69.1023 5.26235 68.8456C4.89021 68.5936 4.43933 68.4183 3.92283 68.3253C3.41867 68.2339 2.83886 68.1878 2.19959 68.1878H0.167537C0.0748896 68.1878 0 68.2623 0 68.3545V84.0846C0 84.1768 0.0748896 84.2513 0.167537 84.2513H2.35709C2.9979 84.2513 3.59007 84.1975 4.11738 84.0907C4.65705 83.9823 5.12646 83.7871 5.51326 83.512C5.90547 83.2338 6.21275 82.848 6.42661 82.3654C6.63815 81.8889 6.74547 81.2802 6.74547 80.5563C6.74547 79.923 6.6312 79.3305 6.40499 78.7949C6.18187 78.2669 5.9047 77.7896 5.58121 77.3754H5.58275ZM3.53988 74.0685C3.3183 74.3882 3.05812 74.6541 2.7686 74.8585C2.54393 75.0168 2.31 75.1313 2.07375 75.1997V69.422C2.37253 69.4297 2.65047 69.4581 2.90139 69.5065C3.18242 69.5611 3.42871 69.6679 3.6333 69.8232C3.83327 69.9761 3.98999 70.1905 4.09885 70.4603C4.2108 70.7393 4.26793 71.1043 4.26793 71.5447C4.26793 72.0503 4.20231 72.5214 4.07183 72.9457C3.94213 73.3683 3.76378 73.7465 3.54143 74.0677L3.53988 74.0685ZM2.07375 76.487C2.31463 76.5723 2.56169 76.7114 2.80797 76.902C3.13069 77.1518 3.43025 77.473 3.69893 77.8542C3.9676 78.2377 4.18841 78.6665 4.35595 79.1299C4.52194 79.5895 4.6061 80.0621 4.6061 80.534C4.6061 81.0351 4.5451 81.4501 4.42466 81.7667C4.30808 82.0749 4.13514 82.3231 3.91124 82.5053C3.68349 82.6905 3.40246 82.8227 3.07588 82.8987C2.78095 82.9679 2.44433 83.0071 2.07375 83.0163V76.4862V76.487Z" fill="white"/>
<path d="M15.2705 68.1875H13.5318C13.4392 68.1875 13.3643 68.262 13.3643 68.3543V71.174L10.6745 77.4827V68.3543C10.6745 68.262 10.5996 68.1875 10.5069 68.1875H8.76824C8.6756 68.1875 8.60071 68.262 8.60071 68.3543V84.0843C8.60071 84.1765 8.6756 84.2511 8.76824 84.2511H10.5069C10.5996 84.2511 10.6745 84.1765 10.6745 84.0843V80.6129L13.3643 74.3049V84.0851C13.3643 84.1773 13.4392 84.2518 13.5318 84.2518H15.2705C15.3632 84.2518 15.4381 84.1773 15.4381 84.0851V68.355C15.4381 68.2628 15.3632 68.1883 15.2705 68.1883V68.1875Z" fill="white"/>
<path d="M25.6662 68.2428C25.6346 68.2075 25.589 68.1875 25.5412 68.1875H17.3242C17.2315 68.1875 17.1566 68.262 17.1566 68.3543V72.399C17.1566 72.4912 17.2315 72.5657 17.3242 72.5657H18.7015C18.7895 72.5657 18.8629 72.4973 18.869 72.4097L19.0489 69.7184C19.0705 69.5032 19.1632 69.4194 19.3786 69.4194H20.2943V84.0835C20.2943 84.1757 20.3691 84.2503 20.4618 84.2503H22.1997C22.2923 84.2503 22.3672 84.1757 22.3672 84.0835V69.4194C22.8606 69.4248 23.3771 69.5017 23.9044 69.6492C24.4572 69.8029 24.9243 69.9628 25.2933 70.1242C25.342 70.1457 25.3983 70.1426 25.4447 70.1157C25.491 70.0896 25.5219 70.0419 25.5273 69.9897L25.7079 68.3712C25.7133 68.3243 25.6979 68.2766 25.6662 68.2413V68.2428Z" fill="white"/>
<path d="M32.5337 68.1875H30.5017C29.8169 68.1875 29.2093 68.2413 28.6951 68.3481C28.1693 68.4572 27.7223 68.6448 27.3664 68.9053C27.0035 69.1704 26.7302 69.5316 26.5534 69.9789C26.3812 70.4154 26.2932 70.9649 26.2932 71.6128C26.2932 72.2606 26.3959 72.8155 26.5989 73.3058C26.8004 73.7923 27.0606 74.2234 27.371 74.5862C27.6814 74.9497 28.0404 75.2594 28.4364 75.5069C28.7337 75.6928 29.0325 75.8535 29.3258 75.9872C29.044 76.1286 28.7893 76.3061 28.5684 76.5144C28.2805 76.7857 28.0126 77.1269 27.7717 77.5281C27.5347 77.9238 27.31 78.4057 27.1039 78.9598C26.8993 79.5116 26.6962 80.1472 26.5017 80.8481L25.576 84.0389C25.5613 84.0889 25.5713 84.1435 25.603 84.1857C25.6346 84.2272 25.6848 84.2526 25.7373 84.2526H27.5655C27.642 84.2526 27.7091 84.2011 27.7277 84.1266L28.4496 81.2961C28.8811 79.6369 29.2872 78.4072 29.657 77.641C29.9535 77.027 30.2793 76.6735 30.6252 76.5874V84.0851C30.6252 84.1773 30.7001 84.2518 30.7927 84.2518H32.5306C32.6233 84.2518 32.6982 84.1773 32.6982 84.0851V68.355C32.6982 68.2628 32.6233 68.1883 32.5306 68.1883L32.5337 68.1875ZM30.6275 69.4225V75.3478C30.2878 75.2771 29.9883 75.141 29.7366 74.9428C29.4324 74.703 29.1807 74.4063 28.9892 74.0605C28.7954 73.7101 28.6534 73.3181 28.5661 72.8947C28.4789 72.4658 28.4341 72.0347 28.4341 71.6136C28.4341 71.1563 28.4874 70.7789 28.5932 70.4915C28.6951 70.2148 28.8441 69.9974 29.0363 69.846C29.2332 69.6907 29.4802 69.5801 29.769 69.5186C30.0261 69.464 30.3148 69.4317 30.6275 69.4233V69.4225Z" fill="white"/>
<path d="M38.3798 74.8006C38.8916 74.2265 39.3116 73.6501 39.6282 73.0868C39.9857 72.4512 40.2628 71.8364 40.4535 71.26C40.6442 70.6829 40.7685 70.1388 40.8218 69.6415C40.8751 69.1505 40.9021 68.717 40.9021 68.3543C40.9021 68.262 40.8272 68.1875 40.7345 68.1875H34.8422C34.7496 68.1875 34.6747 68.262 34.6747 68.3543V72.0846C34.6747 72.1769 34.7496 72.2514 34.8422 72.2514H36.1964C36.2844 72.2514 36.3577 72.183 36.3639 72.0954L36.5214 69.7192C36.543 69.504 36.6357 69.4202 36.8511 69.4202H38.7357C38.7133 70.2302 38.5311 71.1655 38.1929 72.2015C37.8316 73.3089 37.146 74.5047 36.1555 75.7566C36.103 75.8227 36.1084 75.918 36.1686 75.978L36.7777 76.5851C36.8109 76.6181 36.8565 76.6366 36.9036 76.6335C36.9507 76.6312 36.9947 76.6097 37.0248 76.5736C37.0843 76.5021 37.173 76.4368 37.2865 76.3799C37.3977 76.3246 37.4942 76.2961 37.573 76.2961C37.8702 76.2961 38.1258 76.3599 38.3319 76.4852C38.535 76.6089 38.7063 76.8256 38.8422 77.13C38.9851 77.4504 39.0947 77.8854 39.168 78.4218C39.2422 78.9683 39.2792 79.6561 39.2792 80.4669C39.2792 81.2777 39.1665 81.8902 38.9441 82.3751C38.7388 82.8239 38.3937 83.0414 37.8887 83.0414C37.3452 83.0414 36.9561 82.8331 36.7013 82.4035C36.4296 81.9478 36.2319 81.1316 36.1146 79.9781C36.1099 79.932 36.086 79.8889 36.0482 79.8613C36.0103 79.8336 35.9632 79.8221 35.9169 79.8313L34.3821 80.1233C34.2956 80.1395 34.2377 80.2179 34.2469 80.3047C34.3072 80.8757 34.3952 81.4229 34.5094 81.9301C34.626 82.4473 34.8036 82.9061 35.0375 83.2942C35.2769 83.6908 35.5919 84.009 35.9748 84.2388C36.3616 84.4708 36.8611 84.5884 37.461 84.5884C38.0061 84.5884 38.5241 84.4939 39.0013 84.3072C39.4854 84.1173 39.9108 83.8022 40.2659 83.3703C40.6172 82.943 40.8974 82.3828 41.0982 81.705C41.2974 81.0333 41.3985 80.2079 41.3985 79.2534C41.3985 77.8109 41.0889 76.7203 40.4775 76.0102C39.9316 75.3762 39.2259 74.9697 38.379 74.8014L38.3798 74.8006Z" fill="white"/>
<path d="M49.3669 77.8862C48.9515 77.1976 48.4667 76.6373 47.9262 76.2216C47.3889 75.8089 46.85 75.5022 46.3242 75.3093C45.888 75.1495 45.5614 75.0434 45.3275 74.985V68.3535C45.3275 68.2613 45.2526 68.1867 45.16 68.1867H43.4221C43.3294 68.1867 43.2545 68.2613 43.2545 68.3535V84.0835C43.2545 84.1757 43.3294 84.2503 43.4221 84.2503H45.6116C46.2524 84.2503 46.8454 84.1926 47.3742 84.0781C47.9139 83.9613 48.3833 83.7592 48.7701 83.4764C49.1615 83.1897 49.468 82.797 49.6819 82.3075C49.8934 81.8241 50.0008 81.2123 50.0008 80.4884C50.0008 79.4586 49.7877 78.5832 49.3669 77.8854V77.8862ZM45.3267 76.2907C45.5359 76.3691 45.7591 76.4867 45.9922 76.6396C46.3057 76.8456 46.6037 77.1315 46.877 77.4889C47.1519 77.8493 47.3873 78.285 47.5757 78.7838C47.7633 79.2803 47.8583 79.8536 47.8583 80.4891C47.8583 80.991 47.7973 81.4098 47.6769 81.7349C47.5595 82.0508 47.3858 82.3075 47.1611 82.4973C46.9349 82.6886 46.6547 82.8247 46.3281 82.9C46.0332 82.9692 45.6965 83.0083 45.3259 83.0176V76.2915L45.3267 76.2907Z" fill="white"/>
</g>
<defs>
<clipPath id="clip0_121_790">
<rect width="50" height="92" fill="white"/>
</clipPath>
</defs>
</svg>
