<svg width="294" height="124" viewBox="0 0 294 124" fill="none" xmlns="http://www.w3.org/2000/svg">
<g clip-path="url(#clip0_1_183)">
<path d="M124.135 89.718L141.23 76.8534L132.013 72.2383L124.135 89.718Z" fill="#ED1B26"/>
<path d="M132.276 72.3213L163.766 0L90.3195 31.5171L100.121 35.9048L88.8956 41.2473L117.578 55.3083L108.628 60.7076L132.276 72.3213Z" fill="#ED1B26"/>
<path d="M108.848 60.6201L91.3862 52.6597L99.5815 66.0147L108.848 60.6201Z" fill="#ED1B26"/>
<path d="M88.9381 103.405C88.0205 103.405 87.4788 104.056 87.4788 104.793C87.4788 105.53 88.0205 106.181 88.9381 106.181C89.8558 106.181 90.3975 105.53 90.3975 104.793C90.3975 104.056 89.8558 103.405 88.9381 103.405Z" fill="#ED1B26"/>
<path d="M88.9382 101.379C89.4491 101.379 89.7518 101.003 89.7518 100.569C89.7518 100.135 89.4514 99.7588 88.9382 99.7588C88.425 99.7588 88.1246 100.135 88.1246 100.569C88.1246 101.003 88.425 101.379 88.9382 101.379Z" fill="#ED1B26"/>
<path d="M97.3488 99.761C96.4311 99.761 95.8895 100.413 95.8895 101.149C95.8895 101.886 96.4311 102.538 97.3488 102.538C98.2665 102.538 98.8081 101.886 98.8081 101.149C98.8081 100.413 98.2665 99.761 97.3488 99.761Z" fill="#ED1B26"/>
<path d="M124.291 89.6423H0L108.99 124L124.135 89.7158L124.026 89.7489L124.291 89.6423ZM83.6094 108.103H81.3223V99.9198L83.6094 97.7212V108.103ZM88.9382 108.219C86.8024 108.219 85.1917 106.729 85.1917 104.793C85.1917 103.68 85.7333 102.77 86.5919 102.192C86.2158 101.772 85.9912 101.223 85.9912 100.574C85.9912 98.9982 87.2991 97.7259 88.9406 97.7259C90.582 97.7259 91.8899 98.9982 91.8899 100.574C91.8899 101.225 91.6652 101.775 91.2892 102.192C92.1477 102.77 92.6894 103.682 92.6894 104.793C92.6894 106.731 91.0787 108.219 88.9429 108.219H88.9382ZM100.419 103.144L97.6042 108.103H95.0617L97.0626 104.561C95.1657 104.473 93.6023 103.087 93.6023 101.149C93.6023 99.2114 95.213 97.7236 97.3488 97.7236C99.4846 97.7236 101.095 99.2138 101.095 101.149C101.095 101.9 100.764 102.538 100.419 103.144ZM109.123 101.275C109.08 101.988 108.775 102.533 108.347 103.189L107.921 103.798L106.325 106.077H109.113V108.093H102.313L104.865 104.488L106.672 101.934C106.684 101.917 106.696 101.898 106.708 101.879L106.71 101.874C106.857 101.661 106.942 101.401 106.942 101.121C106.942 101.071 106.94 101.021 106.935 100.974C106.935 100.967 106.935 100.962 106.935 100.955C106.89 100.562 106.67 100.223 106.358 100.017C106.348 100.012 106.341 100.005 106.332 100C106.32 99.9932 106.308 99.9861 106.299 99.979C106.282 99.9695 106.266 99.9601 106.249 99.9506C106.102 99.8748 105.939 99.825 105.764 99.8132C105.743 99.8132 105.722 99.8108 105.698 99.8108C105.686 99.8108 105.677 99.8108 105.665 99.8108C105.648 99.8108 105.632 99.8108 105.615 99.8108C105.043 99.8321 104.494 100.216 104.425 100.775C104.388 101.097 104.359 101.453 104.359 101.453H102.349C102.344 101.374 102.339 101.296 102.339 101.216C102.339 100.777 102.424 100.356 102.576 99.9719C103.073 98.7186 104.298 97.8326 105.731 97.8326C105.759 97.8326 105.788 97.8326 105.816 97.8326C105.821 97.8326 105.823 97.8326 105.828 97.8326C105.849 97.8326 105.873 97.8326 105.894 97.8349C106.117 97.8468 106.337 97.8776 106.547 97.9297C106.552 97.9297 106.556 97.9297 106.561 97.9344C106.571 97.9368 106.58 97.9392 106.592 97.9415C108.047 98.323 109.12 99.6426 109.12 101.213C109.12 101.235 109.12 101.254 109.12 101.275H109.123Z" fill="#ED1B26"/>
<path d="M247.879 49.7195V38.3475H239.617L242.439 42.6594V61.0915L244.397 59.3999V59.4023V59.3975L255.833 49.1011V60.4423H261.273V37.7007L247.879 49.7195Z" fill="#28223C"/>
<path d="M190.13 55.6708V51.5745H198.16V46.7745H190.13V43.4009L190.178 43.1805H199.307V38.3474H181.826L184.69 42.6901V60.4423H199.629V55.6708H190.13Z" fill="#28223C"/>
<path d="M173.087 38.3474H162.146L165.029 42.7209V60.4447H170.469V54.6118H173.056C177.997 54.6118 181.644 51.3423 181.644 46.4808C181.644 41.6192 178.028 38.3498 173.087 38.3498V38.3474ZM172.675 49.9848H170.469V42.972H172.675C174.792 42.972 176.058 44.5049 176.058 46.4784C176.058 48.4519 174.792 49.9848 172.675 49.9848Z" fill="#28223C"/>
<path d="M217.411 38.3474H201.689L204.565 42.7114V60.4447H210.007V43.2374H217.411V38.3474Z" fill="#28223C"/>
<path d="M230.244 46.9807H227.635V43.2398H237.313V38.3499H219.317L222.193 42.7115V60.4447H231.741C236.199 60.4447 239.064 57.7249 239.064 53.7755C239.064 48.4804 235.644 46.9807 230.242 46.9807H230.244ZM231.098 55.9362H227.638V51.3708H231.098C232.597 51.3708 233.51 52.2829 233.51 53.6689C233.51 55.0549 232.569 55.9386 231.098 55.9386V55.9362Z" fill="#28223C"/>
<path d="M195.088 89.9479C188.354 89.9479 183.56 85.2332 183.56 78.5166C183.56 71.8 188.383 67.2039 195.088 67.2039C201.793 67.2039 206.616 71.8593 206.616 78.5166C206.616 85.174 201.822 89.9479 195.088 89.9479ZM201.029 78.519C201.029 75.0126 198.647 72.3923 195.088 72.3923C191.528 72.3923 189.147 75.015 189.147 78.519C189.147 82.023 191.5 84.7949 195.088 84.7949C198.676 84.7949 201.029 82.0846 201.029 78.519Z" fill="#28223C"/>
<path d="M173.087 67.5308H162.146L165.029 71.9042V89.628H170.469V83.7951H173.056C177.997 83.7951 181.644 80.5257 181.644 75.6641C181.644 70.8026 178.028 67.5331 173.087 67.5331V67.5308ZM172.675 79.1658H170.469V72.153H172.675C174.792 72.153 176.058 73.6859 176.058 75.6594C176.058 77.6329 174.792 79.1658 172.675 79.1658Z" fill="#28223C"/>
<path d="M220.402 84.8494C216.788 84.7239 214.35 82.0822 214.35 78.519C214.35 74.9558 216.732 72.3236 220.379 72.3236C220.516 72.3236 226.673 74.6715 226.673 74.6715V68.8457C224.738 67.8435 222.408 67.2039 220.026 67.2039C213.321 67.2039 208.673 71.9777 208.673 78.5759C208.673 85.174 213.262 89.9479 219.939 89.9479C222.321 89.9479 224.646 89.4172 226.732 88.299V82.8285L220.4 84.8494H220.402Z" fill="#28223C"/>
<path d="M240.686 84.8494C237.072 84.7239 234.634 82.0822 234.634 78.519C234.634 74.9558 237.015 72.3236 240.663 72.3236C240.8 72.3236 246.956 74.6715 246.956 74.6715V68.8457C245.022 67.8435 242.692 67.2039 240.31 67.2039C233.605 67.2039 228.957 71.9777 228.957 78.5759C228.957 85.174 233.546 89.9479 240.223 89.9479C242.604 89.9479 244.929 89.4172 247.015 88.299V82.8285L240.684 84.8494H240.686Z" fill="#28223C"/>
<path d="M257.046 78.9004V67.5284H248.785L251.606 71.8403V90.2724L253.565 88.5808V88.5832V88.5808L265 78.282V89.6256H270.44V66.8816L257.046 78.9004Z" fill="#28223C"/>
<path d="M280.606 78.9004V67.5284H272.344L275.166 71.8403V90.2724L277.124 88.5808V88.5832V88.5808L288.56 78.282V89.6256H294V66.8816L280.606 78.9004Z" fill="#28223C"/>
</g>
<defs>
<clipPath id="clip0_1_183">
<rect width="294" height="124" fill="white"/>
</clipPath>
</defs>
</svg>
