<svg width="78" height="144" viewBox="0 0 78 144" fill="none" xmlns="http://www.w3.org/2000/svg">
<g clip-path="url(#clip0_311_989)">
<path d="M17.8891 45.6078C31.6218 43.8588 44.3187 42.36 59.0378 41.2582C60.618 41.1391 60.9914 41.0573 61.6971 42.6523C63.0196 45.6451 64.2023 50.5638 66.4774 50.6841C66.8653 50.7045 67.3229 50.4639 67.1073 49.1877C66.5437 45.8508 65.267 38.7417 64.9334 37.5881C64.4131 35.7934 63.5025 35.0031 62.657 35.0392C53.7095 35.4241 32.6961 37.2645 17.1978 39.757C14.1928 40.2393 14.7757 46.0048 17.8879 45.6078M60.6529 36.5464C60.6613 36.5464 60.671 36.5464 60.6782 36.5464C61.5418 36.5079 62.2765 37.1755 62.3162 38.0392C62.3547 38.8969 61.6959 39.6234 60.842 39.6727C60.8336 39.6727 60.8239 39.6752 60.8167 39.6752C60.7926 39.6752 60.7685 39.6776 60.7444 39.6776C59.911 39.6776 59.2173 39.022 59.1799 38.1812C59.1414 37.3247 59.799 36.5981 60.6529 36.5476M55.987 36.876C55.987 36.876 56.0003 36.876 56.0015 36.876C56.8614 36.8123 57.6154 37.463 57.678 38.3267C57.7394 39.1904 57.0879 39.9386 56.2255 40.0011C56.187 40.0035 56.1484 40.0047 56.1111 40.0047C55.2969 40.0047 54.6044 39.3756 54.5453 38.5516C54.4815 37.6904 55.1259 36.941 55.987 36.8772M51.3103 37.2501C51.3211 37.2501 51.3428 37.2477 51.3537 37.2477C52.2136 37.1852 52.9676 37.8347 53.029 38.6984C53.0904 39.5561 52.4497 40.3019 51.5933 40.3716C51.5464 40.374 51.5006 40.3764 51.4548 40.3764C50.6539 40.3764 49.9698 39.7666 49.8939 38.9546C49.8144 38.0945 50.4479 37.3307 51.3103 37.2513M46.6649 37.6615C46.6649 37.6615 46.6781 37.6591 46.6805 37.6591C47.5429 37.5821 48.3041 38.2197 48.3812 39.0797C48.4583 39.941 47.8211 40.7024 46.96 40.7794C46.9118 40.783 46.8648 40.7854 46.8179 40.7854C46.0157 40.7854 45.328 40.1756 45.2533 39.3612C45.175 38.5023 45.8037 37.7397 46.6649 37.6615ZM41.9954 38.1126C42.0062 38.1102 42.0267 38.109 42.0388 38.1078C42.8999 38.032 43.6635 38.6659 43.7406 39.5284C43.8165 40.3837 43.189 41.1403 42.335 41.2257C42.2784 41.2317 42.223 41.2341 42.1688 41.2341C41.3799 41.2341 40.7007 40.6423 40.6115 39.8412C40.5152 38.9811 41.1342 38.2076 41.9966 38.1114M37.356 38.5962C37.356 38.5962 37.3705 38.5962 37.3729 38.5938C38.234 38.5011 39.0073 39.1242 39.0988 39.9843C39.1915 40.8444 38.5676 41.6166 37.7077 41.708C37.6499 41.7141 37.5933 41.7165 37.5379 41.7165C36.7478 41.7165 36.0649 41.1234 35.977 40.3223C35.883 39.4634 36.4973 38.6924 37.3572 38.5962M32.719 39.1134C33.5742 39.01 34.3534 39.6186 34.4606 40.4739C34.5678 41.3327 33.9584 42.1146 33.0996 42.2217C33.0924 42.2217 33.0767 42.2241 33.0683 42.2253C33.0093 42.2325 32.9515 42.2349 32.8925 42.2349C32.1048 42.2349 31.4243 41.6419 31.3364 40.842C31.2412 39.9831 31.8603 39.2084 32.719 39.1122M28.0616 39.6667C28.0736 39.6667 28.0941 39.6631 28.1049 39.6619C28.9661 39.5693 29.7393 40.1924 29.8321 41.0525C29.9224 41.9065 29.3093 42.674 28.4566 42.7726C28.3916 42.781 28.3265 42.7858 28.2627 42.7858C27.4859 42.7858 26.8114 42.2097 26.7078 41.4218C26.5982 40.5629 27.2028 39.7774 28.0616 39.6667ZM23.4342 40.2513C23.4342 40.2513 23.4499 40.2489 23.4523 40.2489C24.311 40.1431 25.0939 40.7505 25.2023 41.6094C25.3095 42.4683 24.7001 43.2502 23.8413 43.3572C23.7751 43.3656 23.7088 43.3705 23.645 43.3705C22.867 43.3705 22.1877 42.7931 22.0865 42.0016C21.9769 41.1451 22.5779 40.3632 23.4354 40.2513M18.7647 40.8865C18.778 40.8841 18.7961 40.8817 18.8093 40.8793C19.6668 40.759 20.4593 41.3556 20.5786 42.2121C20.699 43.0649 20.1065 43.8528 19.2561 43.9791C19.1766 43.9911 19.0984 43.9972 19.0201 43.9972C18.2673 43.9972 17.6037 43.4547 17.476 42.6884C17.3327 41.8344 17.9096 41.0284 18.7647 40.8865ZM48.5402 45.9675C49.8 45.5272 52.6532 45.0653 53.9684 45.4226C55.0223 45.7089 56.7241 47.1379 54.1792 47.8476C51.2224 48.6716 46.9744 46.5148 48.5402 45.9675ZM60.6204 68.0804C60.5264 68.8406 60.4855 69.6995 60.4795 70.3021C60.4771 70.5463 60.2518 70.6919 60.0134 70.6425C58.5801 70.3454 57.2649 70.319 56.2689 70.3141C56.0774 70.3141 55.987 70.076 56.1328 69.9497C57.0312 69.175 58.4693 68.2512 59.8821 67.6377C60.6096 67.3225 60.6722 67.6654 60.6204 68.0792M61.6791 59.2752C58.32 59.5073 56.4905 60.0065 55.215 59.7431C53.206 59.3281 53.9937 56.9006 55.4125 56.4832C56.3291 56.215 56.4218 55.3501 55.3017 55.3681C53.3879 55.3982 51.7102 56.8537 51.5524 59.3317C51.5018 60.1424 51.2826 60.9676 49.7289 61.9696C46.9214 63.7776 44.9956 66.1894 43.9646 68.9164C43.5876 69.916 42.8903 70.5812 42.7024 68.8562C42.0713 63.0727 42.7445 53.9836 45.77 50.4712C47.3912 48.5898 48.9063 49.5966 50.7346 49.658C53.0145 49.7338 54.8356 48.7943 55.0066 49.7326C55.4968 52.4042 50.1697 53.2968 49.912 53.9884C49.6012 54.8196 50.8273 55.0313 52.4677 54.6091C58.7921 52.9852 58.0755 47.5096 57.9382 45.4695C57.8466 44.0946 59.0173 43.5737 59.6713 44.8813C61.0757 47.6937 62.9003 53.0935 63.9157 56.0334C64.5407 57.8413 63.5579 59.1452 61.6767 59.2752M40.2671 61.61C40.3044 61.6797 40.3177 61.7603 40.3116 61.8397C40.2574 62.5915 40.2273 63.341 40.2225 64.0928C40.1996 67.1313 39.5167 65.1826 38.6833 64.0338C37.945 63.0162 36.6852 61.6966 35.5313 61.0867C34.8773 60.7391 34.8569 60.5562 35.4856 59.9728C35.9408 59.5518 36.3491 59.0863 36.7249 58.5895C36.7863 58.5089 36.8995 58.4885 36.9838 58.545C38.1858 59.3509 39.7167 60.5731 40.2683 61.61M42.5567 47.8958C42.37 47.7502 42.1857 47.6131 42.0074 47.4844C41.9532 47.4459 41.9376 47.3749 41.9689 47.3184C42.4458 46.4475 43.4202 44.9619 44.2224 45.022C44.6945 45.0557 44.8631 45.7149 44.332 46.9154C44.0754 47.4952 43.8321 48.0702 43.5985 48.6391C43.578 48.6897 43.5142 48.7053 43.4732 48.6668C43.1926 48.4118 42.8891 48.1544 42.5567 47.8958ZM41.8436 53.3497C41.4907 53.0189 41.0921 52.6845 40.6465 52.3477C40.4453 52.1961 40.2466 52.053 40.0551 51.9194C40.031 51.9026 40.0214 51.8737 40.0322 51.8461C40.1358 51.5802 40.6573 50.221 40.9307 49.5582C40.9596 49.492 41.0427 49.4691 41.1017 49.5136C41.9171 50.1404 42.3387 50.5602 42.6506 50.9078C42.6843 50.9451 42.694 50.9968 42.6759 51.0425C42.4013 51.8124 42.1484 52.5738 41.9183 53.328C41.9087 53.3617 41.8689 53.3713 41.8448 53.3485M40.5935 58.6244C40.2683 58.3189 39.9057 58.0097 39.5059 57.6946C38.9856 57.2868 38.4821 56.9367 38.0702 56.6661C38.0196 56.6324 38.0028 56.5674 38.0317 56.5145C38.458 55.7098 38.8362 54.8689 39.1843 54.0221C39.2084 53.9632 39.2807 53.9427 39.33 53.9812C40.0539 54.5249 40.7549 55.1468 41.1981 55.741C41.2354 55.7904 41.2463 55.8553 41.2318 55.9143C41.0198 56.8116 40.8392 57.7018 40.6946 58.5895C40.6862 58.6388 40.6272 58.6593 40.5911 58.6244M30.4066 61.3911C29.4948 61.1084 29.7634 60.5526 30.2801 60.3048C32.5865 59.1946 34.3546 57.3012 35.6614 54.8365C36.8767 52.5425 38.0016 49.3621 38.9808 46.9827C39.5264 45.6572 39.3096 45.0641 37.3946 45.2758C31.4917 45.9278 24.0641 46.8047 19.5633 47.5758C18.8852 47.6913 18.1312 48.2362 17.865 48.8677C15.5345 54.3974 4.34314 81.2437 5.95945 84.471C8.71273 89.9695 26.6536 101.359 47.0684 97.7955C52.3039 96.8825 52.823 96.227 49.8301 92.4859C39.2566 79.2745 41.7714 64.9023 30.4078 61.3911M38.505 92.172C29.4274 92.8817 13.5207 88.5501 11.7057 82.0616C10.4796 77.6843 19.0839 53.0141 21.3663 50.2053C22.2166 49.1612 29.3551 48.1207 32.7564 47.921C35.2399 47.7755 35.0628 48.6548 34.6497 49.9948C34.0824 51.8376 32.9527 54.1135 31.7146 55.658C29.6502 58.2359 23.9076 61.0025 23.8654 59.3004C23.8317 57.9448 26.7982 57.3036 28.9986 54.9207C30.8004 52.9708 32.2614 50.3677 31.0533 50.405C30.3018 50.4278 25.1565 50.7502 23.9618 51.7703C22.3442 53.15 14.9492 75.2039 15.9717 80.0528C17.0388 85.1134 29.3587 87.5493 34.4462 87.5493C36.001 87.5493 35.6734 86.4089 35.4627 85.4706C32.831 73.8037 29.1251 67.8927 24.6374 65.5218C21.2097 63.7102 22.7453 62.4195 25.8708 63.4805C34.7906 66.5058 38.7339 81.2232 40.8428 86.8383C42.2435 90.5673 41.1644 91.9627 38.505 92.1708M60.2482 64.9155C58.0658 65.606 55.769 67.0098 54.5875 68.0022C50.6093 71.3486 48.6377 75.2376 47.9994 80.5171C47.7657 82.4514 47.7212 84.1174 46.2831 81.2858C43.8839 76.562 44.5789 70.0291 48.4318 65.9428C50.6864 63.5515 53.7131 61.355 58.9354 61.2395C60.3169 61.2094 61.4502 61.5534 61.7224 62.5013C62.056 63.6621 61.3756 64.5583 60.2482 64.9155ZM69.9895 86.4883C68.9296 87.8331 67.1953 89.4113 65.6368 90.2016C64.118 90.9715 61.9826 90.4338 60.3193 89.4751C58.4284 88.3853 56.9012 86.9021 55.8365 84.963C53.5565 80.8106 53.8504 75.7741 54.7573 73.07C54.9536 72.4866 55.4872 72.0872 56.1026 72.0632C56.6832 72.0403 57.3071 72.08 57.9514 72.1233C59.3931 72.2243 60.7493 72.5443 61.066 73.7051C62.3174 78.2906 64.2746 81.1462 69.4295 84.1799C70.3665 84.7321 70.499 85.8411 69.9895 86.4895M30.4186 33.621C30.751 29.4072 32.0879 20.0872 37.4632 13.3858C37.8209 12.9396 38.4605 12.8842 38.8832 13.2655C45.2353 18.9685 47.9946 27.835 48.9822 31.9369C49.258 33.0869 49.1062 34.2116 47.6079 34.3114C44.3849 34.5268 34.2318 35.5709 32.1469 35.8379C31.1605 35.9642 30.3259 34.8034 30.4186 33.6222M17.9361 35.8812C18.6732 31.7757 21.7541 20.9063 29.0817 15.5895C29.3925 15.3622 29.7827 15.7387 29.5864 16.0767C28.0266 18.7736 24.7085 25.9693 23.9052 35.7477C23.8449 36.4706 23.2897 37.0444 22.5912 37.1034L19.2875 37.5978C18.4528 37.6675 17.7819 36.7329 17.9361 35.8812ZM28.5 34.9622C28.4434 35.6467 27.8689 36.1663 27.1932 36.1663C27.1559 36.1663 27.1197 36.1639 27.0824 36.1615C26.361 36.1026 25.8238 35.4698 25.884 34.7481V34.7445C25.9442 34.0227 26.5838 33.4875 27.3016 33.5476C28.0242 33.6065 28.5602 34.2417 28.5 34.9622ZM29.3515 19.582C29.6297 18.9228 30.3837 18.6052 31.0497 18.871C31.723 19.1393 32.0506 19.9031 31.782 20.5756C31.7772 20.5876 31.7675 20.6104 31.7615 20.6225C31.5459 21.1145 31.0642 21.4104 30.5583 21.4104C30.3825 21.4104 30.2042 21.3743 30.0344 21.3009C29.3732 21.0134 29.0685 20.2448 29.3527 19.5832M28.3085 28.6602C28.2194 28.6602 28.1302 28.6518 28.0411 28.6326C27.3305 28.4858 26.8752 27.7941 27.0222 27.0844C27.0246 27.0712 27.0294 27.0495 27.0318 27.0363C27.1992 26.3326 27.9074 25.8972 28.612 26.0632C29.3106 26.2292 29.7465 26.9256 29.59 27.6245C29.4587 28.2392 28.9143 28.6602 28.3085 28.6602ZM29.2648 24.983C29.1347 24.983 29.0022 24.9637 28.8697 24.9216C28.182 24.7051 27.799 23.9737 28.0098 23.2869C28.2145 22.6024 28.9312 22.2067 29.6225 22.4003C30.3198 22.5964 30.7269 23.3206 30.5306 24.017C30.527 24.0303 30.521 24.0543 30.5162 24.0676C30.3403 24.6257 29.8224 24.983 29.2636 24.983M28.9179 31.2753C28.824 31.9273 28.2627 32.3988 27.6196 32.3988C27.5605 32.3988 27.5015 32.3952 27.4413 32.3856C26.7247 32.2894 26.22 31.629 26.3176 30.9121C26.32 30.8976 26.3236 30.8736 26.326 30.8579C26.4465 30.1446 27.1233 29.6634 27.84 29.7849C28.547 29.9052 29.0251 30.568 28.9179 31.2741M31.1774 16.025C31.1774 16.025 31.1822 16.0178 31.1846 16.0118C31.5712 15.4055 32.377 15.2239 32.9876 15.604C33.6031 15.9889 33.7898 16.7973 33.4055 17.4119C33.4031 17.4155 33.4007 17.4192 33.3983 17.424C33.1478 17.8161 32.7226 18.0302 32.2891 18.0302C32.0518 18.0302 31.8121 17.9665 31.5953 17.8305C30.9799 17.448 30.7932 16.6397 31.1774 16.025ZM47.019 14.6152C46.7733 14.3145 47.0985 13.879 47.4417 14.0486C55.5029 18.0579 59.9676 27.7701 61.3394 31.6963C61.6237 32.5119 61.0805 33.3154 60.2458 33.3876L56.812 33.6138C56.1135 33.6727 55.6064 33.135 55.4342 32.4313C53.1097 22.9176 48.9798 17.0114 47.019 14.6152ZM50.9128 32.5925C50.7659 31.884 51.2212 31.1899 51.9306 31.042C52.6339 30.8952 53.3217 31.3403 53.4782 32.0368C53.6372 32.7248 53.2205 33.4189 52.5316 33.5981C52.4196 33.627 52.3088 33.6402 52.1992 33.6402C51.6162 33.6402 51.0839 33.2505 50.9297 32.6611C50.9249 32.6394 50.9177 32.6142 50.9141 32.5925M45.764 17.3771C46.3746 16.9861 47.1864 17.1653 47.5766 17.774C47.9681 18.3839 47.7934 19.1994 47.1816 19.5892C46.9612 19.7299 46.7155 19.7973 46.4734 19.7973C46.0422 19.7973 45.6219 19.5856 45.3726 19.1958L45.3665 19.1874C44.9763 18.5775 45.1534 17.768 45.764 17.3771ZM51.1477 30.0387C51.2802 30.0387 51.4163 30.0195 51.5488 29.9762C52.2389 29.7549 52.6183 29.0151 52.3967 28.327C52.3931 28.3138 52.3846 28.2897 52.3798 28.2777C52.1365 27.5969 51.385 27.2408 50.7033 27.4838C50.0264 27.7256 49.6723 28.4629 49.8999 29.1378C50.0818 29.6899 50.5949 30.0387 51.1477 30.0387ZM49.8554 26.5094C49.3339 26.5094 48.8425 26.1967 48.6365 25.6855L49.8542 25.1983L48.6353 25.6819C48.3643 25.0106 48.6883 24.2468 49.3592 23.9761C50.03 23.7031 50.7936 24.0243 51.067 24.6943C51.067 24.6967 51.0718 24.7087 51.073 24.7123C51.3428 25.3835 51.0152 26.1474 50.342 26.4156C50.1818 26.4794 50.0168 26.5094 49.8542 26.5094M47.137 22.345L48.3149 21.7664L47.1358 22.3414C46.8166 21.693 47.0804 20.9063 47.7284 20.5852C48.3764 20.2628 49.1604 20.525 49.4856 21.171C49.4856 21.1734 49.4928 21.1866 49.4941 21.189C49.8132 21.8386 49.5446 22.6241 48.8943 22.9429C48.7076 23.0343 48.5113 23.0776 48.3161 23.0776C47.832 23.0776 47.3659 22.8081 47.137 22.3438M43.2504 16.3161C42.7795 15.7664 42.8433 14.9388 43.3937 14.4672C43.9429 13.9969 44.7728 14.0607 45.2437 14.6104C45.7146 15.1589 45.652 15.9889 45.1016 16.4592C44.8547 16.6709 44.5499 16.7756 44.2476 16.7756C43.8779 16.7756 43.5117 16.6204 43.2528 16.3197L43.2504 16.3173V16.3161ZM34.2775 11.6489C34.993 8.96519 35.9505 4.1921 36.2757 0.872099C36.3913 -0.30674 37.4524 -0.216522 37.7065 0.700085C38.617 3.99963 40.4128 8.51531 41.5329 11.0642C41.7497 11.5562 41.1981 12.0278 40.7452 11.7403L38.4857 10.3052C38.0714 10.0418 37.5319 10.0851 37.1657 10.4135L35.1712 12.1962C34.7653 12.557 34.1378 12.1733 34.2787 11.6489M51.7583 77.0323C51.7114 78.2689 51.7848 79.5837 52.0101 80.9093C52.0221 80.9742 51.9775 81.038 51.9137 81.05C51.3272 81.1607 50.7707 81.198 50.3179 81.204C50.2348 81.2064 50.1709 81.1342 50.1806 81.0524C50.3528 79.6005 50.6888 78.1943 51.167 76.9168C51.2874 76.5933 51.7716 76.6895 51.7595 77.0335M56.1568 89.5184C54.6875 90.3568 52.97 90.5938 52.0546 90.6599C51.9125 90.6708 51.7764 90.5974 51.7102 90.4723C51.3043 89.7145 50.9767 88.9073 50.7226 88.0665C50.6912 87.9606 50.7683 87.8536 50.8779 87.8488C51.7258 87.8103 52.9314 87.6623 54.1997 87.2088C54.3298 87.1619 54.4731 87.2064 54.5514 87.3195C55.0066 87.9715 55.5462 88.6246 56.187 89.2489C56.2677 89.3271 56.2544 89.4631 56.1556 89.5184M60.7384 93.1427C59.6713 93.6479 58.6367 94.0702 57.6961 94.4022C55.7883 95.077 54.5285 94.17 53.3205 92.7722C53.2169 92.6519 53.2831 92.4643 53.4409 92.4378C54.7043 92.2285 56.3351 91.775 57.7406 90.7959C57.8503 90.7201 57.9924 90.7165 58.102 90.7899C58.868 91.2999 59.7327 91.7606 60.7083 92.1503C61.1491 92.326 61.1696 92.9394 60.7396 93.1415M50.1962 83.1334C50.8249 83.1358 51.603 83.0745 52.3521 82.9265C52.4196 82.9133 52.4858 82.9518 52.5039 83.0179C52.7363 83.789 53.0242 84.5504 53.3795 85.2938C53.4144 85.366 53.3771 85.4538 53.3012 85.4779C52.0968 85.8652 50.9755 85.9289 50.3588 85.9289C50.295 85.9289 50.2384 85.8808 50.2287 85.8159C50.1071 84.9775 50.0481 84.1258 50.0481 83.2754C50.0481 83.1948 50.1143 83.1298 50.195 83.131" fill="#28223C"/>
<path d="M13.2411 141.664C13.0123 141.753 12.7521 141.798 12.4619 141.798H11.178V143.814H10.0049V138.201H12.5582C12.8569 138.201 13.1159 138.242 13.3363 138.324C13.5567 138.405 13.7398 138.523 13.8843 138.678C14.03 138.834 14.1372 139.022 14.2095 139.244C14.2805 139.465 14.3167 139.718 14.3167 139.999C14.3167 140.261 14.2745 140.502 14.1902 140.722C14.1059 140.942 13.9843 141.132 13.8253 141.291C13.6663 141.45 13.4712 141.574 13.2423 141.663L13.2411 141.664ZM11.1768 140.828H12.2896C12.5546 140.828 12.763 140.763 12.9147 140.633C13.0665 140.503 13.1424 140.291 13.1424 139.999C13.1424 139.851 13.1231 139.726 13.0834 139.621C13.0436 139.517 12.9882 139.431 12.9147 139.364C12.8425 139.297 12.7533 139.247 12.6474 139.215C12.5414 139.184 12.4221 139.167 12.2896 139.167H11.1768V140.828Z" fill="#28223C"/>
<path d="M11.1769 143.859H10.0038C9.97848 143.859 9.95801 143.839 9.95801 143.814V138.201C9.95801 138.176 9.97848 138.155 10.0038 138.155H12.5571C12.8594 138.155 13.1256 138.197 13.3508 138.28C13.5773 138.365 13.7676 138.487 13.9169 138.647C14.0663 138.807 14.1783 139.002 14.2517 139.229C14.324 139.454 14.3613 139.713 14.3613 139.999C14.3613 140.265 14.318 140.514 14.2325 140.739C14.1457 140.964 14.0205 141.161 13.8567 141.324C13.6929 141.486 13.4917 141.615 13.2581 141.706C13.0244 141.796 12.7571 141.843 12.462 141.843H11.2226V143.814C11.2226 143.839 11.2022 143.859 11.1769 143.859ZM10.0483 143.769H11.1311V141.799C11.1311 141.774 11.1516 141.753 11.1769 141.753H12.4608C12.7438 141.753 13.0016 141.709 13.2244 141.622C13.446 141.535 13.6375 141.414 13.7916 141.26C13.9458 141.106 14.065 140.921 14.1469 140.707C14.2288 140.492 14.2698 140.254 14.2698 139.999C14.2698 139.723 14.2349 139.474 14.165 139.257C14.0964 139.043 13.9904 138.859 13.8507 138.709C13.7109 138.559 13.5327 138.444 13.3195 138.365C13.1051 138.285 12.8486 138.245 12.5571 138.245H10.0483V143.768V143.769ZM12.2897 140.874H11.1769C11.1516 140.874 11.1311 140.853 11.1311 140.828V139.167C11.1311 139.142 11.1516 139.121 11.1769 139.121H12.2897C12.4258 139.121 12.5511 139.138 12.6607 139.17C12.7727 139.204 12.8691 139.257 12.9461 139.329C13.0232 139.401 13.0847 139.494 13.1256 139.604C13.1666 139.713 13.1882 139.845 13.1882 139.997C13.1882 140.302 13.1063 140.527 12.9449 140.664C12.7848 140.8 12.5656 140.87 12.291 140.87L12.2897 140.874ZM11.2226 140.784H12.2897C12.5427 140.784 12.7426 140.722 12.8859 140.6C13.0268 140.479 13.0979 140.277 13.0979 140C13.0979 139.86 13.0786 139.737 13.0413 139.638C13.004 139.541 12.9522 139.46 12.8847 139.398C12.8173 139.335 12.733 139.288 12.6354 139.259C12.5342 139.229 12.4186 139.214 12.291 139.214H11.2238V140.785L11.2226 140.784Z" fill="#28223C"/>
<path d="M19.8918 141.381H17.1361V142.797H20.2664V143.812H16.0076V138.2H20.1327V139.166H17.1361V140.411H19.8918V141.38V141.381Z" fill="#28223C"/>
<path d="M20.2665 143.859H16.0077C15.9824 143.859 15.9619 143.839 15.9619 143.814V138.201C15.9619 138.176 15.9824 138.155 16.0077 138.155H20.1328C20.1581 138.155 20.1786 138.176 20.1786 138.201V139.167C20.1786 139.192 20.1581 139.212 20.1328 139.212H17.1808V140.367H19.8919C19.9172 140.367 19.9377 140.388 19.9377 140.413V141.382C19.9377 141.408 19.9172 141.428 19.8919 141.428H17.1808V142.754H20.2665C20.2918 142.754 20.3122 142.774 20.3122 142.8V143.815C20.3122 143.84 20.2918 143.86 20.2665 143.86V143.859ZM16.0534 143.769H20.2219V142.844H17.1362C17.1109 142.844 17.0904 142.824 17.0904 142.798V141.382C17.0904 141.357 17.1109 141.337 17.1362 141.337H19.8473V140.457H17.1362C17.1109 140.457 17.0904 140.437 17.0904 140.412V139.167C17.0904 139.142 17.1109 139.121 17.1362 139.121H20.0882V138.245H16.0534V143.768V143.769Z" fill="#28223C"/>
<path d="M22.0129 138.202H25.7936V139.168H23.1872V143.814H22.0141V138.201L22.0129 138.202Z" fill="#28223C"/>
<path d="M23.1861 143.859H22.0131C21.9878 143.859 21.9673 143.839 21.9673 143.814V138.201C21.9673 138.176 21.9878 138.155 22.0131 138.155H25.7937C25.819 138.155 25.8395 138.176 25.8395 138.201V139.167C25.8395 139.192 25.819 139.212 25.7937 139.212H23.2319V143.814C23.2319 143.839 23.2114 143.859 23.1861 143.859ZM22.0576 143.769H23.1404V139.168C23.1404 139.143 23.1609 139.122 23.1861 139.122H25.7479V138.247H22.0576V143.769Z" fill="#28223C"/>
<path d="M30.2148 140.42C30.3473 140.425 30.4882 140.444 30.6375 140.476C30.7869 140.507 30.9374 140.557 31.0892 140.626C31.2409 140.694 31.3782 140.792 31.4999 140.918C31.6227 141.044 31.7215 141.204 31.7986 141.399C31.8744 141.594 31.913 141.834 31.913 142.119C31.913 142.404 31.8744 142.64 31.7986 142.833C31.7227 143.027 31.6251 143.187 31.5059 143.312C31.3879 143.438 31.2554 143.534 31.1109 143.602C30.9651 143.669 30.8242 143.719 30.6881 143.751C30.552 143.783 30.4267 143.802 30.3135 143.806C30.2003 143.811 30.1172 143.814 30.063 143.814H27.3218V138.201H31.412V139.167H28.4949V140.412H29.8896C29.9739 140.412 30.0823 140.414 30.2148 140.419V140.42ZM28.4949 142.844H29.7643C29.8715 142.844 29.9811 142.837 30.0955 142.821C30.2087 142.806 30.3135 142.773 30.4087 142.721C30.5038 142.671 30.5821 142.595 30.6435 142.494C30.705 142.394 30.7351 142.259 30.7351 142.091C30.7351 141.923 30.705 141.777 30.6447 141.677C30.5845 141.577 30.5062 141.502 30.4099 141.45C30.3135 141.399 30.2039 141.367 30.0835 141.355C29.963 141.342 29.8414 141.336 29.7186 141.336H28.4949V142.844Z" fill="#28223C"/>
<path d="M30.0619 143.859H27.3207C27.2954 143.859 27.2749 143.839 27.2749 143.814V138.201C27.2749 138.176 27.2954 138.155 27.3207 138.155H31.4108C31.4361 138.155 31.4566 138.176 31.4566 138.201V139.167C31.4566 139.192 31.4361 139.212 31.4108 139.212H28.5395V140.367H29.8897C29.974 140.367 30.0836 140.37 30.2161 140.374C30.351 140.379 30.4955 140.399 30.646 140.431C30.7978 140.463 30.952 140.515 31.1061 140.585C31.2627 140.656 31.4048 140.757 31.5313 140.887C31.6577 141.017 31.7613 141.184 31.8396 141.382C31.9179 141.581 31.9576 141.829 31.9576 142.119C31.9576 142.409 31.9179 142.652 31.8396 142.849C31.7613 143.047 31.6602 143.213 31.5385 143.342C31.4169 143.472 31.2796 143.573 31.129 143.643C30.9821 143.711 30.8363 143.762 30.6978 143.794C30.5593 143.827 30.4305 143.846 30.3148 143.851C30.2004 143.856 30.1161 143.858 30.0619 143.858V143.859ZM27.3664 143.769H30.0619C30.1149 143.769 30.198 143.767 30.31 143.762C30.4208 143.757 30.5437 143.739 30.6762 143.708C30.8086 143.676 30.9484 143.627 31.0893 143.562C31.229 143.497 31.3566 143.403 31.4711 143.282C31.5855 143.16 31.6806 143.004 31.7541 142.818C31.8276 142.63 31.8649 142.395 31.8649 142.12C31.8649 141.844 31.8276 141.605 31.7541 141.416C31.6806 141.229 31.5831 141.071 31.465 140.949C31.347 140.828 31.2133 140.733 31.0676 140.667C30.9194 140.599 30.7713 140.55 30.6256 140.519C30.4798 140.488 30.3401 140.469 30.2113 140.465C30.08 140.46 29.9716 140.457 29.8885 140.457H28.4938C28.4685 140.457 28.448 140.437 28.448 140.412V139.167C28.448 139.142 28.4685 139.121 28.4938 139.121H31.3651V138.245H27.3652V143.768L27.3664 143.769ZM29.7632 142.889H28.4938C28.4685 142.889 28.448 142.868 28.448 142.843V141.334C28.448 141.309 28.4685 141.289 28.4938 141.289H29.7174C29.8403 141.289 29.9656 141.295 30.0872 141.308C30.2137 141.321 30.3293 141.355 30.4305 141.408C30.534 141.462 30.6195 141.545 30.6834 141.652C30.7472 141.759 30.7797 141.906 30.7797 142.09C30.7797 142.274 30.7472 142.409 30.681 142.516C30.6159 142.623 30.5304 142.704 30.4293 142.759C30.3293 142.812 30.2185 142.846 30.1004 142.863C29.986 142.879 29.8728 142.886 29.7644 142.886L29.7632 142.889ZM28.5395 142.798H29.7632C29.868 142.798 29.9764 142.791 30.0884 142.775C30.1956 142.761 30.2968 142.73 30.3871 142.682C30.475 142.635 30.5485 142.564 30.6051 142.471C30.6617 142.379 30.6906 142.251 30.6906 142.092C30.6906 141.933 30.6629 141.794 30.6075 141.701C30.5521 141.609 30.4786 141.538 30.3907 141.491C30.2992 141.443 30.1956 141.413 30.08 141.401C29.9607 141.389 29.8403 141.381 29.7199 141.381H28.5419V142.8L28.5395 142.798Z" fill="#28223C"/>
<path d="M37.0525 143.814V140.015H37.0368L34.8159 143.814H33.6235V138.201H34.7509V142.022H34.7665L36.9911 138.201H38.1798V143.814H37.0525Z" fill="#28223C"/>
<path d="M38.1809 143.859H37.0536C37.0283 143.859 37.0078 143.839 37.0078 143.814V140.156L34.8555 143.836C34.8471 143.851 34.8326 143.859 34.817 143.859H33.6246C33.5993 143.859 33.5789 143.839 33.5789 143.814V138.201C33.5789 138.176 33.5993 138.155 33.6246 138.155H34.752C34.7772 138.155 34.7977 138.176 34.7977 138.201V141.882L36.9536 138.178C36.962 138.164 36.9765 138.155 36.9922 138.155H38.1809C38.2062 138.155 38.2267 138.176 38.2267 138.201V143.814C38.2267 143.839 38.2062 143.859 38.1809 143.859ZM37.0981 143.769H38.1351V138.247H37.0174L34.8062 142.045C34.7977 142.06 34.7833 142.068 34.7676 142.068H34.752C34.7267 142.068 34.7062 142.048 34.7062 142.022V138.245H33.6692V143.768H34.7905L36.9982 139.992C37.0066 139.978 37.0211 139.969 37.0367 139.969H37.0524C37.0777 139.969 37.0981 139.99 37.0981 140.015V143.769Z" fill="#28223C"/>
<path d="M39.6936 141.118H41.888V142.149H39.6936V141.118Z" fill="#28223C"/>
<path d="M41.8869 142.194H39.6925C39.6672 142.194 39.6467 142.174 39.6467 142.149V141.118C39.6467 141.093 39.6672 141.072 39.6925 141.072H41.8869C41.9122 141.072 41.9327 141.093 41.9327 141.118V142.149C41.9327 142.174 41.9122 142.194 41.8869 142.194ZM39.7383 142.104H41.8424V141.164H39.7383V142.104Z" fill="#28223C"/>
<path d="M48.5567 143.814H47.0693L45.3301 141.328L44.7568 141.913V143.815H43.5837V138.202H44.7568V140.485L46.9055 138.202H48.4231L46.1299 140.501L48.5567 143.815V143.814Z" fill="#28223C"/>
<path d="M48.5568 143.859H47.0694C47.0549 143.859 47.0405 143.852 47.0321 143.84L45.3242 141.399L44.8015 141.931V143.814C44.8015 143.839 44.781 143.859 44.7557 143.859H43.5826C43.5573 143.859 43.5369 143.839 43.5369 143.814V138.201C43.5369 138.176 43.5573 138.155 43.5826 138.155H44.7557C44.781 138.155 44.8015 138.176 44.8015 138.201V140.37L46.8719 138.17C46.8803 138.16 46.8924 138.155 46.9044 138.155H48.422C48.44 138.155 48.4569 138.166 48.4641 138.183C48.4713 138.2 48.4677 138.219 48.4545 138.232L46.1878 140.503L48.5918 143.786C48.6014 143.799 48.6038 143.818 48.5954 143.833C48.5882 143.848 48.5725 143.858 48.5556 143.858L48.5568 143.859ZM47.0935 143.769H48.4677L46.0926 140.527C46.0794 140.509 46.0818 140.484 46.0974 140.468L48.3148 138.247H46.9261L44.7907 140.515C44.7774 140.528 44.7581 140.533 44.7413 140.526C44.7244 140.519 44.7124 140.502 44.7124 140.484V138.247H43.6296V143.769H44.7124V141.913C44.7124 141.901 44.7172 141.89 44.7256 141.882L45.2989 141.297C45.3085 141.287 45.3218 141.283 45.335 141.284C45.3483 141.284 45.3603 141.292 45.3688 141.303L47.0947 143.769H47.0935Z" fill="#28223C"/>
<path d="M50.6055 138.202H54.527V143.815H53.3539V139.169H51.7063L51.7099 140.016C51.7123 140.527 51.7015 140.978 51.6774 141.369C51.6533 141.76 51.6148 142.099 51.563 142.388C51.5112 142.677 51.4449 142.92 51.3642 143.116C51.2836 143.312 51.1884 143.47 51.08 143.587C50.9704 143.705 50.8451 143.791 50.7054 143.841C50.5657 143.892 50.4116 143.917 50.2429 143.917C50.1056 143.917 49.984 143.909 49.878 143.892C49.772 143.875 49.6672 143.845 49.5625 143.802L49.5588 142.729C49.595 142.747 49.6323 142.761 49.6721 142.773C49.7118 142.784 49.7503 142.793 49.7889 142.8C49.8274 142.806 49.8623 142.81 49.8937 142.813C49.925 142.815 49.9503 142.816 49.9683 142.816C50.037 142.816 50.102 142.807 50.161 142.787C50.2213 142.768 50.2743 142.727 50.3212 142.664C50.3682 142.6 50.4104 142.508 50.4453 142.388C50.4814 142.268 50.5103 142.109 50.5356 141.911C50.5609 141.712 50.5778 141.467 50.5886 141.173C50.6007 140.881 50.6055 140.531 50.6055 140.123V138.198V138.202Z" fill="#28223C"/>
<path d="M50.2419 143.962C50.1021 143.962 49.9781 143.953 49.8697 143.936C49.7601 143.919 49.6505 143.888 49.5445 143.844C49.5276 143.836 49.5168 143.821 49.5168 143.802L49.5132 142.729C49.5132 142.713 49.5216 142.698 49.5349 142.69C49.5481 142.682 49.565 142.68 49.5794 142.688C49.6119 142.704 49.6481 142.718 49.6842 142.729C49.7215 142.739 49.7589 142.748 49.795 142.754C49.8324 142.76 49.8661 142.765 49.8962 142.767C49.9263 142.769 49.9504 142.771 49.9672 142.771C50.0311 142.771 50.0913 142.762 50.1467 142.744C50.1973 142.729 50.2431 142.691 50.2852 142.636C50.3286 142.577 50.3683 142.489 50.402 142.375C50.437 142.258 50.4671 142.101 50.49 141.905C50.514 141.707 50.5321 141.461 50.543 141.171C50.555 140.88 50.5598 140.527 50.5598 140.123V138.198C50.5598 138.173 50.5803 138.153 50.6056 138.153H54.5271C54.5524 138.153 54.5729 138.173 54.5729 138.198V143.811C54.5729 143.836 54.5524 143.857 54.5271 143.857H53.354C53.3288 143.857 53.3083 143.836 53.3083 143.811V139.21H51.751L51.7546 140.012C51.757 140.522 51.7462 140.98 51.7221 141.369C51.698 141.76 51.6594 142.104 51.6064 142.394C51.5535 142.685 51.486 142.933 51.4053 143.13C51.3234 143.33 51.2246 143.494 51.1114 143.615C50.997 143.738 50.8657 143.828 50.7188 143.881C50.5743 143.934 50.4141 143.96 50.2406 143.96L50.2419 143.962ZM49.6071 143.771C49.6987 143.808 49.7914 143.833 49.8841 143.847C49.9877 143.863 50.1082 143.871 50.2419 143.871C50.4044 143.871 50.5538 143.846 50.6887 143.798C50.8212 143.75 50.9416 143.668 51.0452 143.556C51.15 143.442 51.2439 143.288 51.321 143.098C51.3993 142.905 51.4655 142.664 51.5173 142.38C51.5691 142.093 51.6077 141.753 51.6317 141.366C51.6558 140.978 51.6667 140.524 51.6643 140.015L51.6606 139.168C51.6606 139.156 51.6655 139.144 51.6739 139.135C51.6823 139.127 51.6944 139.122 51.7064 139.122H53.354C53.3793 139.122 53.3998 139.143 53.3998 139.168V143.769H54.4826V138.247H50.6513V140.125C50.6513 140.532 50.6453 140.886 50.6345 141.177C50.6236 141.469 50.6044 141.718 50.5803 141.918C50.5562 142.119 50.5249 142.281 50.4888 142.403C50.4514 142.526 50.4081 142.624 50.3575 142.691C50.3045 142.762 50.2431 142.809 50.1744 142.832C50.1106 142.852 50.0407 142.863 49.9672 142.863C49.948 142.863 49.9227 142.862 49.889 142.86C49.8564 142.857 49.8203 142.852 49.7794 142.845C49.7396 142.838 49.6987 142.83 49.6577 142.818C49.6396 142.813 49.6204 142.806 49.6023 142.8L49.6059 143.773L49.6071 143.771Z" fill="#28223C"/>
<path d="M57.3743 142.905C57.5345 142.905 57.661 142.858 57.7525 142.765C57.844 142.671 57.9079 142.552 57.944 142.41L55.9519 138.202H57.2743L58.551 141.218L59.6711 138.202H60.9321L59.14 142.345C58.9051 142.892 58.657 143.298 58.3944 143.561C58.1319 143.824 57.8392 143.955 57.5152 143.955C57.4129 143.955 57.3249 143.951 57.2491 143.94C57.1744 143.93 57.1093 143.917 57.0539 143.901C56.9985 143.886 56.9504 143.871 56.9082 143.856C56.8661 143.84 56.8263 143.827 56.7878 143.814V142.748C56.8612 142.796 56.9467 142.834 57.0443 142.862C57.1407 142.89 57.2503 142.904 57.3731 142.904L57.3743 142.905Z" fill="#28223C"/>
<path d="M57.5153 144C57.4117 144 57.3201 143.995 57.2431 143.984C57.166 143.974 57.0985 143.96 57.0419 143.945C56.9853 143.929 56.9359 143.913 56.8938 143.898C56.8516 143.882 56.8119 143.869 56.7745 143.856C56.7565 143.85 56.7432 143.833 56.7432 143.812V142.747C56.7432 142.73 56.7529 142.715 56.7673 142.707C56.7818 142.698 56.7998 142.7 56.8131 142.709C56.8829 142.755 56.9648 142.791 57.0576 142.819C57.1503 142.846 57.2563 142.858 57.3731 142.858C57.5225 142.858 57.6357 142.816 57.7188 142.731C57.8007 142.647 57.8597 142.54 57.8946 142.412L55.9098 138.22C55.9037 138.206 55.9038 138.19 55.9122 138.177C55.9206 138.164 55.9351 138.156 55.9507 138.156H57.2732C57.2912 138.156 57.3081 138.167 57.3153 138.184L58.5474 141.095L59.6278 138.185C59.6338 138.167 59.6507 138.156 59.6699 138.156H60.931C60.9466 138.156 60.9599 138.164 60.9683 138.177C60.9767 138.19 60.9779 138.206 60.9719 138.219L59.1797 142.362C58.9437 142.911 58.6908 143.325 58.4246 143.591C58.1548 143.862 57.8477 143.999 57.5128 143.999L57.5153 144ZM56.8348 143.781C56.8637 143.791 56.8938 143.802 56.9251 143.814C56.966 143.828 57.013 143.844 57.0672 143.858C57.1202 143.873 57.1828 143.885 57.2563 143.895C57.3286 143.905 57.4165 143.91 57.5165 143.91C57.826 143.91 58.1114 143.781 58.3632 143.528C58.6209 143.27 58.8678 142.866 59.099 142.327L60.8647 138.248H59.7037L58.5944 141.235C58.5884 141.251 58.5715 141.263 58.5535 141.263C58.5366 141.266 58.5185 141.253 58.5113 141.236L57.2467 138.248H56.0254L57.9862 142.391C57.991 142.4 57.9922 142.411 57.9898 142.421C57.9525 142.571 57.8838 142.697 57.7874 142.796C57.6875 142.898 57.549 142.951 57.3767 142.951C57.2503 142.951 57.1359 142.937 57.0359 142.908C56.9636 142.887 56.8974 142.861 56.8372 142.828V143.782L56.8348 143.781Z" fill="#28223C"/>
<path d="M65.3053 140.42C65.4378 140.425 65.5787 140.444 65.7281 140.476C65.8774 140.507 66.028 140.557 66.1797 140.626C66.3315 140.694 66.4688 140.792 66.5905 140.918C66.7133 141.044 66.8121 141.204 66.8891 141.399C66.965 141.594 67.0036 141.834 67.0036 142.119C67.0036 142.404 66.965 142.64 66.8891 142.833C66.8133 143.027 66.7157 143.187 66.5965 143.312C66.4784 143.438 66.346 143.534 66.2014 143.602C66.0557 143.669 65.9148 143.719 65.7787 143.751C65.6426 143.783 65.5173 143.802 65.4041 143.806C65.2909 143.811 65.2078 143.814 65.1536 143.814H62.4124V138.201H66.5025V139.167H63.5854V140.412H64.9802C65.0645 140.412 65.1729 140.414 65.3053 140.419V140.42ZM63.5854 142.844H64.8549C64.9621 142.844 65.0717 142.837 65.1861 142.821C65.2993 142.806 65.4041 142.773 65.4993 142.721C65.5944 142.671 65.6727 142.595 65.7341 142.494C65.7955 142.394 65.8256 142.259 65.8256 142.091C65.8256 141.923 65.7955 141.777 65.7353 141.677C65.6751 141.577 65.5968 141.502 65.5005 141.45C65.4041 141.399 65.2945 141.367 65.1741 141.355C65.0536 141.342 64.932 141.336 64.8091 141.336H63.5854V142.844Z" fill="#28223C"/>
<path d="M65.1525 143.859H62.4112C62.386 143.859 62.3655 143.839 62.3655 143.814V138.201C62.3655 138.176 62.386 138.155 62.4112 138.155H66.5014C66.5267 138.155 66.5472 138.176 66.5472 138.201V139.167C66.5472 139.192 66.5267 139.212 66.5014 139.212H63.6301V140.367H64.9803C65.0646 140.367 65.1742 140.37 65.3066 140.374C65.4415 140.379 65.5861 140.399 65.7366 140.431C65.8884 140.463 66.0425 140.515 66.1967 140.585C66.3533 140.656 66.4954 140.757 66.6219 140.887C66.7483 141.017 66.8519 141.184 66.9302 141.382C67.0085 141.581 67.0482 141.829 67.0482 142.119C67.0482 142.409 67.0085 142.652 66.9302 142.849C66.8519 143.047 66.7507 143.213 66.6291 143.342C66.5074 143.472 66.3701 143.573 66.2196 143.643C66.0727 143.711 65.9269 143.762 65.7884 143.794C65.6499 143.827 65.521 143.846 65.4054 143.851C65.291 143.856 65.2067 143.858 65.1525 143.858V143.859ZM62.457 143.769H65.1525C65.2055 143.769 65.2886 143.767 65.4006 143.762C65.5114 143.757 65.6342 143.739 65.7667 143.708C65.8992 143.676 66.0389 143.627 66.1798 143.562C66.3196 143.497 66.4472 143.403 66.5616 143.282C66.6761 143.16 66.7712 143.004 66.8447 142.818C66.9181 142.63 66.9555 142.395 66.9555 142.12C66.9555 141.844 66.9181 141.605 66.8447 141.416C66.7712 141.229 66.6737 141.071 66.5556 140.949C66.4376 140.828 66.3039 140.733 66.1582 140.667C66.01 140.599 65.8619 140.55 65.7161 140.519C65.5704 140.488 65.4307 140.469 65.3018 140.465C65.1706 140.46 65.0622 140.457 64.979 140.457H63.5843C63.559 140.457 63.5386 140.437 63.5386 140.412V139.167C63.5386 139.142 63.559 139.121 63.5843 139.121H66.4557V138.245H62.4558V143.768L62.457 143.769ZM64.8538 142.889H63.5843C63.559 142.889 63.5386 142.868 63.5386 142.843V141.334C63.5386 141.309 63.559 141.289 63.5843 141.289H64.808C64.9309 141.289 65.0561 141.295 65.1778 141.308C65.3042 141.321 65.4199 141.355 65.521 141.408C65.6246 141.462 65.7101 141.545 65.774 141.652C65.8378 141.759 65.8703 141.906 65.8703 142.09C65.8703 142.274 65.8378 142.409 65.7716 142.516C65.7065 142.623 65.621 142.704 65.5198 142.759C65.4199 142.812 65.3091 142.846 65.191 142.863C65.0766 142.879 64.9634 142.886 64.855 142.886L64.8538 142.889ZM63.6301 142.798H64.8538C64.9586 142.798 65.067 142.791 65.179 142.775C65.2862 142.761 65.3873 142.73 65.4777 142.682C65.5656 142.635 65.6391 142.564 65.6957 142.471C65.7523 142.379 65.7812 142.251 65.7812 142.092C65.7812 141.933 65.7535 141.794 65.6981 141.701C65.6427 141.609 65.5692 141.538 65.4813 141.491C65.3898 141.443 65.2862 141.413 65.1705 141.401C65.0513 141.389 64.9309 141.381 64.8104 141.381H63.6325V142.8L63.6301 142.798Z" fill="#28223C"/>
<path d="M8.70909 121.109C8.20565 120.463 7.65162 119.898 7.06266 119.43C6.58571 119.051 6.13647 118.734 5.72577 118.487C6.02566 118.3 6.37374 118.073 6.76397 117.811C7.28427 117.461 7.78651 117.014 8.25743 116.484C8.72956 115.952 9.14027 115.309 9.47871 114.572C9.82196 113.825 9.9954 112.967 9.9954 112.019C9.9954 110.979 9.84605 110.105 9.55218 109.418C9.25107 108.719 8.79942 108.16 8.20926 107.758C7.62873 107.363 6.92536 107.089 6.11961 106.944C5.33313 106.8 4.42862 106.728 3.43136 106.728H0.261357C0.116828 106.728 0 106.845 0 106.989V131.61C0 131.755 0.116828 131.871 0.261357 131.871H3.67706C4.67672 131.871 5.60051 131.787 6.42312 131.62C7.265 131.45 7.99728 131.145 8.60069 130.714C9.21253 130.279 9.69189 129.675 10.0255 128.919C10.3555 128.174 10.5229 127.221 10.5229 126.088C10.5229 125.097 10.3447 124.169 9.99179 123.331C9.64371 122.504 9.21133 121.757 8.70668 121.109H8.70909ZM5.52222 115.933C5.17655 116.433 4.77067 116.849 4.31901 117.169C3.96853 117.417 3.6036 117.596 3.23505 117.704V108.66C3.70115 108.672 4.13474 108.717 4.52617 108.792C4.96458 108.878 5.34879 109.045 5.66795 109.288C5.9799 109.527 6.22439 109.863 6.39421 110.285C6.56885 110.722 6.65798 111.293 6.65798 111.983C6.65798 112.774 6.5556 113.511 6.35206 114.175C6.14972 114.837 5.8715 115.429 5.52463 115.932L5.52222 115.933ZM3.23505 119.718C3.61082 119.852 3.99623 120.07 4.38044 120.368C4.88388 120.759 5.35119 121.262 5.77033 121.858C6.18946 122.459 6.53392 123.13 6.79528 123.855C7.05423 124.574 7.18551 125.314 7.18551 126.053C7.18551 126.837 7.09036 127.487 6.90247 127.982C6.72061 128.465 6.45082 128.853 6.10154 129.138C5.74624 129.428 5.30784 129.635 4.79837 129.754C4.33828 129.862 3.81316 129.924 3.23505 129.938V119.717V119.718Z" fill="#28223C"/>
<path d="M23.8221 106.728H21.1098C20.9653 106.728 20.8484 106.845 20.8484 106.989V111.403L16.6523 121.277V106.989C16.6523 106.845 16.5355 106.728 16.3909 106.728H13.6786C13.5341 106.728 13.4172 106.845 13.4172 106.989V131.61C13.4172 131.755 13.5341 131.871 13.6786 131.871H16.3909C16.5355 131.871 16.6523 131.755 16.6523 131.61V126.177L20.8484 116.303V131.611C20.8484 131.756 20.9653 131.872 21.1098 131.872H23.8221C23.9667 131.872 24.0835 131.756 24.0835 131.611V106.99C24.0835 106.846 23.9667 106.729 23.8221 106.729V106.728Z" fill="#28223C"/>
<path d="M40.0394 106.815C39.99 106.76 39.919 106.728 39.8443 106.728H27.0258C26.8812 106.728 26.7644 106.845 26.7644 106.989V113.32C26.7644 113.464 26.8812 113.581 27.0258 113.581H29.1744C29.3117 113.581 29.4261 113.474 29.4358 113.337L29.7164 109.124C29.7501 108.788 29.8947 108.656 30.2307 108.656H31.6591V131.609C31.6591 131.753 31.776 131.87 31.9205 131.87H34.6316C34.7761 131.87 34.893 131.753 34.893 131.609V108.656C35.6626 108.665 36.4683 108.785 37.2909 109.016C38.1533 109.257 38.882 109.507 39.4577 109.76C39.5336 109.793 39.6215 109.788 39.6937 109.746C39.766 109.705 39.8142 109.631 39.8226 109.549L40.1044 107.016C40.1129 106.942 40.0888 106.868 40.0394 106.812V106.815Z" fill="#28223C"/>
<path d="M50.7527 106.728H47.5826C46.5143 106.728 45.5665 106.812 44.7643 106.98C43.9441 107.15 43.2468 107.444 42.6915 107.852C42.1255 108.267 41.6991 108.832 41.4233 109.532C41.1547 110.215 41.0174 111.076 41.0174 112.09C41.0174 113.104 41.1776 113.972 41.4943 114.74C41.8087 115.501 42.2146 116.176 42.6988 116.744C43.1829 117.313 43.743 117.797 44.3608 118.185C44.8245 118.476 45.2906 118.727 45.7483 118.936C45.3087 119.158 44.9113 119.436 44.5668 119.762C44.1176 120.186 43.6996 120.72 43.3238 121.348C42.9541 121.968 42.6036 122.722 42.282 123.589C41.9629 124.453 41.6461 125.448 41.3426 126.545L39.8985 131.539C39.8756 131.617 39.8913 131.703 39.9407 131.769C39.99 131.834 40.0683 131.874 40.1502 131.874H43.0023C43.1215 131.874 43.2263 131.793 43.2552 131.676L44.3813 127.246C45.0546 124.649 45.6881 122.724 46.265 121.525C46.7275 120.564 47.2358 120.011 47.7753 119.876V131.611C47.7753 131.756 47.8922 131.872 48.0367 131.872H50.7478C50.8924 131.872 51.0092 131.756 51.0092 131.611V106.99C51.0092 106.846 50.8924 106.729 50.7478 106.729L50.7527 106.728ZM47.779 108.661V117.936C47.249 117.825 46.7817 117.612 46.3891 117.302C45.9145 116.926 45.5219 116.462 45.2232 115.921C44.9209 115.372 44.6993 114.759 44.5632 114.096C44.4271 113.425 44.3572 112.75 44.3572 112.091C44.3572 111.375 44.4403 110.784 44.6053 110.335C44.7643 109.901 44.9968 109.561 45.2967 109.324C45.6038 109.081 45.9892 108.908 46.4397 108.812C46.8407 108.726 47.2912 108.676 47.779 108.663V108.661Z" fill="#28223C"/>
<path d="M59.8726 117.079C60.6711 116.181 61.3263 115.278 61.8201 114.397C62.3777 113.402 62.8101 112.44 63.1076 111.537C63.4051 110.634 63.599 109.782 63.6821 109.004C63.7652 108.235 63.8074 107.557 63.8074 106.989C63.8074 106.845 63.6905 106.728 63.546 106.728H54.3539C54.2094 106.728 54.0926 106.845 54.0926 106.989V112.828C54.0926 112.972 54.2094 113.089 54.3539 113.089H56.4665C56.6038 113.089 56.7182 112.982 56.7278 112.845L56.9735 109.126C57.0073 108.789 57.1518 108.658 57.4878 108.658H60.4278C60.3929 109.926 60.1086 111.389 59.5811 113.011C59.0174 114.744 57.9479 116.616 56.4026 118.576C56.3207 118.679 56.3292 118.828 56.4231 118.922L57.3734 119.872C57.4252 119.924 57.4963 119.953 57.5697 119.948C57.6432 119.944 57.7118 119.911 57.7588 119.854C57.8516 119.742 57.9901 119.64 58.1671 119.551C58.3405 119.465 58.4911 119.42 58.6139 119.42C59.0776 119.42 59.4763 119.52 59.7979 119.716C60.1146 119.91 60.382 120.249 60.594 120.725C60.8168 121.227 60.9878 121.908 61.1023 122.747C61.2179 123.602 61.2757 124.679 61.2757 125.948C61.2757 127.217 61.0998 128.176 60.753 128.935C60.4326 129.637 59.8942 129.978 59.1065 129.978C58.2586 129.978 57.6516 129.652 57.2542 128.979C56.8302 128.266 56.5219 126.989 56.3388 125.183C56.3316 125.111 56.2943 125.044 56.2352 125C56.1762 124.957 56.1027 124.939 56.0305 124.953L53.6361 125.41C53.5012 125.436 53.4109 125.558 53.4253 125.694C53.5193 126.588 53.6566 127.445 53.8348 128.238C54.0167 129.048 54.2937 129.766 54.6587 130.374C55.032 130.994 55.5234 131.492 56.1208 131.852C56.7242 132.215 57.5035 132.399 58.4393 132.399C59.2896 132.399 60.0978 132.251 60.8421 131.959C61.5973 131.662 62.2609 131.169 62.8149 130.493C63.3629 129.824 63.8001 128.947 64.1133 127.886C64.424 126.835 64.5818 125.543 64.5818 124.049C64.5818 121.791 64.0988 120.084 63.1449 118.973C62.2934 117.98 61.1926 117.344 59.8713 117.08L59.8726 117.079Z" fill="#28223C"/>
<path d="M77.0124 121.909C76.3644 120.831 75.608 119.954 74.7649 119.303C73.9267 118.657 73.086 118.177 72.2658 117.875C71.5853 117.625 71.0758 117.459 70.7109 117.368V106.988C70.7109 106.844 70.5941 106.727 70.4495 106.727H67.7384C67.5939 106.727 67.4771 106.844 67.4771 106.988V131.609C67.4771 131.753 67.5939 131.87 67.7384 131.87H71.1541C72.1538 131.87 73.0788 131.78 73.9038 131.601C74.7457 131.418 75.4779 131.101 76.0814 130.659C76.692 130.21 77.1701 129.595 77.5038 128.829C77.8338 128.072 78.0012 127.115 78.0012 125.982C78.0012 124.37 77.6688 123 77.0124 121.908V121.909ZM70.7097 119.412C71.0361 119.534 71.3842 119.718 71.7479 119.958C72.2369 120.28 72.7018 120.728 73.1281 121.287C73.5569 121.851 73.9243 122.533 74.2181 123.314C74.5108 124.091 74.6589 124.988 74.6589 125.983C74.6589 126.768 74.5638 127.424 74.3759 127.933C74.1928 128.427 73.9218 128.829 73.5714 129.126C73.2185 129.426 72.7813 129.639 72.2718 129.756C71.8117 129.865 71.2866 129.926 70.7085 129.941V119.413L70.7097 119.412Z" fill="#28223C"/>
</g>
<defs>
<clipPath id="clip0_311_989">
<rect width="78" height="144" fill="white"/>
</clipPath>
</defs>
</svg>
