<svg width="176" height="77" viewBox="0 0 176 77" fill="none" xmlns="http://www.w3.org/2000/svg">
<g clip-path="url(#clip0_39_179)">
<path d="M165.27 34.5753V25.3678H158.763L160.981 28.8588V43.7743L162.524 42.4068L171.53 34.0742V43.2562H175.81V24.8411L165.27 34.5753Z" fill="white"/>
<path d="M119.802 39.3914V36.0787H126.128V32.1885H119.802V29.4534L119.843 29.275H127.027V25.3678H113.27L115.522 28.8843V43.2562H127.283V39.3914H119.802Z" fill="white"/>
<path d="M106.384 25.3678H97.7732L100.041 28.9098V43.2562H104.322V38.5335H106.359C110.252 38.5335 113.122 35.8834 113.122 31.9506C113.122 28.0179 110.276 25.3678 106.384 25.3678ZM106.062 34.7876H104.322V29.1136H106.062C107.728 29.1136 108.726 30.3538 108.726 31.9506C108.726 33.5475 107.728 34.7876 106.062 34.7876Z" fill="white"/>
<path d="M141.278 25.3678H128.907L131.167 28.9013V43.2562H135.456V29.326H141.278V25.3678Z" fill="white"/>
<path d="M151.381 32.3584H149.328V29.326H156.948V25.3678H142.779L145.039 28.9013V43.2562H152.561C156.066 43.2562 158.326 41.0562 158.326 37.8625C158.326 33.573 155.637 32.3584 151.381 32.3584ZM152.058 39.6038H149.336V35.9089H152.058C153.237 35.9089 153.955 36.6478 153.955 37.7691C153.955 38.8903 153.212 39.6038 152.058 39.6038Z" fill="white"/>
<path d="M103.67 55.1733V50.3487H101.402V55.1733H100.049V49.0067H105.014V55.1733H103.662H103.67Z" fill="white"/>
<path d="M106.466 55.1733V49.0067H110.177V50.3742H107.819V51.419H109.674V52.7525H107.819V53.7973H110.177V55.1648H106.466V55.1733Z" fill="white"/>
<path d="M111.39 55.1733V49.0067H113.361C113.938 49.0067 114.425 49.2105 114.821 49.6182C115.216 50.0259 115.414 50.5186 115.414 51.1047C115.414 51.6908 115.216 52.1834 114.821 52.5911C114.425 52.9989 113.938 53.2027 113.361 53.2027H112.734V55.1818H111.381L111.39 55.1733ZM112.742 51.8946H113.352C113.567 51.8946 113.748 51.8182 113.889 51.6568C114.037 51.4954 114.111 51.3085 114.111 51.0962C114.111 50.8838 114.037 50.697 113.889 50.5441C113.74 50.3912 113.559 50.3063 113.352 50.3063H112.742V51.8946Z" fill="white"/>
<path d="M116.437 55.1733V48.9387L119.423 52.022L122.408 48.9387V55.1733H121.056V52.1495L119.423 53.8313L117.79 52.1495V55.1733H116.437Z" fill="white"/>
<path d="M126.59 55.2413C125.748 55.2413 125.023 54.9355 124.429 54.3154C123.827 53.6954 123.53 52.9564 123.53 52.09C123.53 51.2236 123.827 50.4761 124.429 49.8646C125.031 49.253 125.748 48.9387 126.59 48.9387C127.093 48.9387 127.571 49.0576 128.008 49.2955C128.445 49.5333 128.808 49.8646 129.097 50.2723L128.074 51.1302C127.918 50.8669 127.711 50.663 127.447 50.5016C127.192 50.3487 126.903 50.2638 126.59 50.2638C126.103 50.2638 125.699 50.4421 125.377 50.7904C125.047 51.1472 124.891 51.5719 124.891 52.073C124.891 52.5742 125.056 53.0073 125.377 53.3556C125.707 53.7124 126.111 53.8822 126.59 53.8822C126.903 53.8822 127.192 53.8058 127.447 53.6444C127.703 53.4915 127.918 53.2792 128.074 53.0158L129.097 53.8737C128.808 54.2815 128.445 54.6127 128.008 54.8506C127.571 55.0884 127.101 55.2073 126.59 55.2073V55.2413Z" fill="white"/>
<path d="M130.045 55.1733V49.0067H131.398V52.0985L133.484 49.0067H135.035L132.94 52.124L135.307 55.1733H133.641L131.398 52.2854V55.1733H130.045Z" fill="white"/>
<path d="M140.478 54.3154C139.876 54.9355 139.159 55.2413 138.317 55.2413C137.476 55.2413 136.75 54.9355 136.157 54.3154C135.555 53.6954 135.258 52.9564 135.258 52.09C135.258 51.2236 135.555 50.4761 136.157 49.8646C136.759 49.2445 137.476 48.9387 138.317 48.9387C139.159 48.9387 139.884 49.2445 140.478 49.8646C141.08 50.4846 141.377 51.2236 141.377 52.09C141.377 52.9564 141.08 53.7039 140.478 54.3154ZM137.105 53.3726C137.435 53.7293 137.839 53.8992 138.317 53.8992C138.796 53.8992 139.208 53.7208 139.53 53.3726C139.86 53.0158 140.016 52.5911 140.016 52.09C140.016 51.5888 139.851 51.1556 139.53 50.8074C139.2 50.4506 138.796 50.2808 138.317 50.2808C137.839 50.2808 137.427 50.4591 137.105 50.8074C136.775 51.1641 136.619 51.5888 136.619 52.09C136.619 52.5911 136.783 53.0243 137.105 53.3726Z" fill="white"/>
<path d="M145.996 49.0067V50.3742H143.843V55.1648H142.491V48.9982H145.988L145.996 49.0067Z" fill="white"/>
<path d="M151.678 54.3154C151.076 54.9355 150.359 55.2413 149.517 55.2413C148.676 55.2413 147.95 54.9355 147.357 54.3154C146.755 53.6954 146.458 52.9564 146.458 52.09C146.458 51.2236 146.755 50.4761 147.357 49.8646C147.959 49.253 148.676 48.9387 149.517 48.9387C150.359 48.9387 151.084 49.2445 151.678 49.8646C152.28 50.4846 152.577 51.2236 152.577 52.09C152.577 52.9564 152.28 53.7039 151.678 54.3154ZM148.305 53.3726C148.635 53.7293 149.039 53.8992 149.517 53.8992C149.996 53.8992 150.408 53.7208 150.73 53.3726C151.06 53.0158 151.216 52.5911 151.216 52.09C151.216 51.5888 151.051 51.1556 150.73 50.8074C150.4 50.4506 149.996 50.2808 149.517 50.2808C149.039 50.2808 148.627 50.4591 148.305 50.8074C147.975 51.1641 147.818 51.5888 147.818 52.09C147.818 52.5911 147.983 53.0243 148.305 53.3726Z" fill="white"/>
<path d="M155.703 55.1733V49.0067H157.056V52.0985L159.142 49.0067H160.693L158.598 52.124L160.965 55.1733H159.299L157.056 52.2854V55.1733H155.703Z" fill="white"/>
<path d="M161.641 55.1733V49.0067H163.612C164.19 49.0067 164.676 49.2105 165.072 49.6182C165.468 50.0259 165.666 50.5186 165.666 51.1047C165.666 51.6908 165.468 52.1834 165.072 52.5911C164.676 52.9989 164.19 53.2027 163.612 53.2027H162.986V55.1818H161.633L161.641 55.1733ZM162.994 51.8946H163.604C163.819 51.8946 164 51.8182 164.14 51.6568C164.289 51.4954 164.363 51.3085 164.363 51.0962C164.363 50.8838 164.289 50.697 164.14 50.5441C163.992 50.3912 163.81 50.3063 163.604 50.3063H162.994V51.8946Z" fill="white"/>
<path d="M165.41 55.1733L168.363 48.9387L171.315 55.1733H169.897L169.46 54.222H167.266L166.829 55.1733H165.41ZM167.777 53.0838H168.94L168.355 51.8097L167.769 53.0838H167.777Z" fill="white"/>
<path d="M171.456 55.1733L173.08 52.8715C172.75 52.7016 172.478 52.4637 172.28 52.158C172.074 51.8522 171.975 51.4954 171.975 51.1047C171.975 50.5186 172.173 50.0259 172.569 49.6182C172.965 49.2105 173.452 49.0067 174.029 49.0067H176V55.1733H174.647V53.1942H174.383L172.998 55.1733H171.447H171.456ZM174.045 51.8946H174.656V50.3063H174.045C173.823 50.3063 173.641 50.3827 173.501 50.5271C173.361 50.6715 173.287 50.8669 173.287 51.0962C173.287 51.3255 173.361 51.5209 173.501 51.6653C173.641 51.8182 173.823 51.8946 174.045 51.8946Z" fill="white"/>
<path d="M78.7546 44.3604L74.0701 55.0374H0L65.0144 76.1111L74.0536 55.0799L73.9876 55.1054L74.0536 55.0714V55.0799L74.0701 55.0714L74.1443 55.0374H74.1113L84.2474 47.1974L78.7546 44.3604Z" fill="#E51B23"/>
<path d="M70.1443 33.9807L64.9072 37.2254L54.5154 32.3584L59.4061 40.5466L64.8247 37.3019L78.9113 44.4114L97.6907 0.0555573L53.8804 19.388L59.7278 22.0806L53.0309 25.3508L70.1443 33.9807Z" fill="#E51B23"/>
</g>
<defs>
<clipPath id="clip0_39_179">
<rect width="176" height="76.0556" fill="white" transform="translate(0 0.0555573)"/>
</clipPath>
</defs>
</svg>
