<svg width="74" height="124" viewBox="0 0 74 124" fill="none" xmlns="http://www.w3.org/2000/svg">
<path d="M19.1631 35.299C19.1743 35.2976 19.1896 35.2948 19.2021 35.2934C19.9416 35.1904 20.6267 35.7053 20.7298 36.4455C20.8328 37.1816 20.3232 37.8621 19.5879 37.9706C19.5196 37.9803 19.4514 37.9859 19.3846 37.9859C18.7356 37.9859 18.1619 37.517 18.0519 36.856C17.9293 36.1199 18.4265 35.4228 19.1645 35.3004M23.1933 34.7507C23.1933 34.7507 23.2058 34.7493 23.2072 34.7493C23.948 34.6575 24.6248 35.1821 24.7181 35.9237C24.8114 36.6654 24.285 37.3403 23.5428 37.4335C23.4857 37.4404 23.4286 37.4446 23.3729 37.4446C22.7003 37.4446 22.1154 36.9465 22.0277 36.2633C21.933 35.5244 22.4524 34.8481 23.1919 34.7521L23.1933 34.7507ZM27.1858 34.2456C27.1955 34.2456 27.2136 34.2428 27.2234 34.2414C27.967 34.1621 28.6326 34.6992 28.7134 35.4423C28.7928 36.1798 28.2622 36.8421 27.5269 36.9298C27.4712 36.9367 27.4141 36.9395 27.3598 36.9395C26.69 36.9395 26.1079 36.4428 26.0188 35.7609C25.9227 35.0207 26.4449 34.343 27.1858 34.247V34.2456ZM31.2047 33.7683C31.9442 33.6793 32.6154 34.2053 32.7073 34.9427C32.8006 35.6844 32.2742 36.3593 31.532 36.4525C31.5264 36.4525 31.5111 36.4553 31.5055 36.4553C31.4554 36.4608 31.4039 36.4636 31.3551 36.4636C30.6742 36.4636 30.0893 35.953 30.0113 35.2614C29.9291 34.5197 30.4625 33.8518 31.2047 33.7683ZM35.207 33.3217C35.207 33.3217 35.2181 33.3217 35.2209 33.3203C35.9646 33.2396 36.6302 33.7781 36.711 34.5211C36.7903 35.2642 36.2528 35.9293 35.5092 36.01C35.4604 36.0156 35.4117 36.0184 35.363 36.0184C34.6806 36.0184 34.0915 35.5063 34.0149 34.8133C33.9342 34.0717 34.4647 33.4052 35.207 33.3231V33.3217ZM39.2092 32.9042C39.219 32.9042 39.2371 32.9015 39.2468 32.9001C39.9905 32.8347 40.6492 33.3829 40.7146 34.126C40.7801 34.8648 40.2384 35.5174 39.5017 35.5912C39.4529 35.5967 39.4056 35.5981 39.3583 35.5981C38.6773 35.5981 38.091 35.0861 38.0144 34.3945C37.9323 33.6528 38.467 32.9835 39.2092 32.9015V32.9042ZM43.2394 32.5146C43.2394 32.5146 43.2505 32.5146 43.2519 32.5146C43.9969 32.4478 44.6528 32.9975 44.7197 33.7405C44.7865 34.485 44.2364 35.1417 43.4928 35.2071C43.4524 35.2113 43.4106 35.2127 43.3703 35.2127C42.6782 35.2127 42.0835 34.6853 42.0209 33.984C41.9526 33.241 42.4957 32.5842 43.2394 32.516V32.5146ZM47.2486 32.1598C47.2583 32.1598 47.2764 32.157 47.2848 32.157C48.027 32.1041 48.6774 32.6649 48.7303 33.4093C48.7832 34.1496 48.229 34.7939 47.4909 34.8537C47.4505 34.8579 47.4115 34.8593 47.3725 34.8593C46.6818 34.8593 46.0914 34.3333 46.0259 33.632C45.9577 32.8889 46.5036 32.2308 47.2486 32.1612V32.1598ZM51.2843 31.837C51.2843 31.837 51.2954 31.837 51.2968 31.837C52.039 31.7827 52.6894 32.3449 52.7423 33.0893C52.7952 33.8337 52.234 34.4808 51.489 34.5337C51.4555 34.5364 51.4235 34.5378 51.3915 34.5378C50.6882 34.5378 50.0908 33.9952 50.0393 33.2841C49.985 32.5397 50.5406 31.8926 51.2843 31.8384V31.837ZM55.3116 31.5517C55.3185 31.5517 55.3255 31.5517 55.3325 31.5517C56.0761 31.5197 56.7111 32.0944 56.7459 32.8416C56.7794 33.5819 56.2112 34.2094 55.4731 34.2526C55.4662 34.2526 55.4592 34.2526 55.4522 34.2526C55.4313 34.2526 55.4105 34.254 55.3896 34.254C54.671 34.254 54.0722 33.6876 54.0388 32.9627C54.0053 32.2224 54.5735 31.5949 55.3116 31.5517ZM18.407 39.376C30.2578 37.8662 41.2146 36.5722 53.9162 35.6204C55.2796 35.5188 55.6026 35.4465 56.2112 36.824C57.3531 39.408 58.3739 43.6548 60.3374 43.7591C60.673 43.7772 61.0671 43.5685 60.8819 42.4665C60.3945 39.5861 59.293 33.4469 59.0047 32.452C58.5563 30.9033 57.7709 30.2201 57.0412 30.2521C49.3193 30.5846 31.1852 32.1723 17.811 34.3249C15.218 34.7424 15.7221 39.7197 18.407 39.3774V39.376Z" fill="white"/>
<path d="M49.7245 41.3087C51.922 40.6965 50.4528 39.4623 49.5435 39.2146C48.4099 38.9057 45.9465 39.3064 44.8589 39.6863C43.5081 40.1594 47.1733 42.0198 49.7259 41.3087" fill="white"/>
<path d="M54.6459 58.3961C53.426 58.9262 52.1853 59.7235 51.411 60.3928C51.2857 60.5014 51.3636 60.7059 51.5294 60.7073C52.39 60.7101 53.5235 60.7338 54.7615 60.9898C54.9676 61.0329 55.1612 60.9077 55.1626 60.6962C55.1668 60.1758 55.2016 59.4341 55.2837 58.7773C55.3283 58.4197 55.2726 58.1233 54.6473 58.3947" fill="white"/>
<path d="M58.1288 48.3774C57.2515 45.8394 55.6779 41.178 54.465 38.7498C53.901 37.6199 52.89 38.0694 52.9693 39.2563C53.0863 41.0193 53.7074 45.7462 48.2485 47.1488C46.8323 47.5119 45.7739 47.3297 46.0413 46.6117C46.2641 46.0133 50.861 45.2438 50.4376 42.9368C50.29 42.1269 48.7192 42.9382 46.7515 42.8728C45.1751 42.8199 43.8661 41.9502 42.4679 43.5755C39.8568 46.6075 39.2761 54.4554 39.8206 59.448C39.9836 60.9383 40.5838 60.3622 40.9096 59.5009C41.7995 57.1465 43.4608 55.0649 45.8839 53.5036C47.225 52.6395 47.413 51.9271 47.4575 51.2272C47.5926 49.0871 49.0409 47.8306 50.6925 47.8042C51.6603 47.7889 51.5795 48.5347 50.7886 48.7671C49.5645 49.1275 48.8849 51.223 50.6187 51.5806C51.7188 51.8074 53.2966 51.3775 56.1973 51.1771C57.8211 51.0658 58.6691 49.9387 58.1288 48.3774Z" fill="white"/>
<path d="M34.8852 50.5454C34.8128 50.4967 34.7139 50.5148 34.661 50.5843C34.3365 51.0129 33.9842 51.415 33.5915 51.7782C33.0484 52.2805 33.0665 52.4406 33.6305 52.7383C34.6262 53.2657 35.7124 54.4053 36.3502 55.2833C37.0701 56.2755 37.6592 57.9578 37.6787 55.3348C37.6829 54.685 37.7093 54.038 37.7567 53.3909C37.7623 53.3228 37.7497 53.2532 37.7177 53.192C37.2428 52.2972 35.9213 51.2411 34.8838 50.5454" fill="white"/>
<path d="M40.4849 42.0156C40.5197 42.0476 40.5768 42.0351 40.5949 41.9906C40.7954 41.4994 41.0071 41.004 41.2285 40.5031C41.6867 39.4664 41.5419 38.8987 41.1338 38.8681C40.4403 38.8166 39.5992 40.0982 39.1884 40.851C39.162 40.8997 39.1759 40.9623 39.2204 40.9943C39.375 41.1056 39.5338 41.2239 39.6939 41.3491C39.9808 41.5731 40.244 41.7944 40.4849 42.0142" fill="white"/>
<path d="M39.1437 46.0426C39.3415 45.3913 39.5601 44.7346 39.7968 44.0694C39.8107 44.0291 39.8038 43.9846 39.7745 43.9526C39.5044 43.652 39.1409 43.2888 38.4377 42.7489C38.3875 42.7114 38.3151 42.7294 38.2915 42.7879C38.0547 43.3598 37.6049 44.5328 37.5158 44.7624C37.506 44.786 37.5158 44.8111 37.5353 44.8264C37.701 44.9419 37.8723 45.0657 38.0464 45.1965C38.4321 45.4874 38.7747 45.7754 39.0796 46.062C39.1005 46.0829 39.1354 46.0732 39.1437 46.0439" fill="white"/>
<path d="M38.0896 50.5829C38.2149 49.8176 38.3695 49.0481 38.5533 48.2731C38.5659 48.2216 38.5561 48.1673 38.5241 48.1242C38.1425 47.6108 37.5367 47.075 36.9129 46.6047C36.8697 46.5727 36.807 46.5894 36.7861 46.6395C36.4853 47.3714 36.1595 48.0978 35.7905 48.7921C35.7654 48.838 35.7793 48.8937 35.8239 48.9229C36.179 49.1567 36.6135 49.4586 37.0633 49.8121C37.4086 50.082 37.7206 50.3506 38.0005 50.6136C38.0325 50.6428 38.0826 50.6261 38.0896 50.5829Z" fill="white"/>
<path d="M36.1985 79.5771C28.3652 80.1894 14.6386 76.4491 13.072 70.8484C12.015 67.0691 19.4388 45.7698 21.4093 43.3445C22.1418 42.4428 28.3026 41.5453 31.2381 41.3728C33.3827 41.2475 33.2295 42.0059 32.873 43.1636C32.3828 44.754 31.408 46.7188 30.3399 48.0532C28.5574 50.2796 23.6026 52.6674 23.5664 51.198C23.5372 50.0277 26.0967 49.4739 27.9962 47.4173C29.5503 45.7336 30.812 43.4864 29.7703 43.5184C29.1214 43.5379 24.6819 43.8176 23.6514 44.697C22.256 45.8895 15.8752 64.9291 16.7567 69.1146C17.6772 73.4839 28.3095 75.5878 32.6989 75.5878C34.0414 75.5878 33.7587 74.6026 33.5762 73.7928C31.3049 63.7185 28.1076 58.6159 24.2348 56.5691C21.2756 55.0051 22.6014 53.8891 25.2988 54.8061C32.9955 57.4193 36.399 70.1248 38.2191 74.9727C39.4278 78.1912 38.4962 79.3976 36.2012 79.5771M29.2091 53.0027C28.4223 52.7592 28.6535 52.2792 29.0991 52.0649C31.0905 51.1061 32.6154 49.4711 33.7433 47.3436C34.792 45.3635 35.764 42.6167 36.6079 40.5629C37.0786 39.4177 36.892 38.9057 35.239 39.088C30.1449 39.6515 23.7349 40.4085 19.851 41.0736C19.2661 41.1738 18.6158 41.6427 18.3846 42.1896C16.3724 46.9637 6.71627 70.1415 8.11163 72.9287C10.4874 77.675 25.97 87.5072 43.5874 84.432C48.1064 83.643 48.5534 83.0767 45.9701 79.8471C36.846 68.4411 39.0156 56.032 29.2105 53.0013L29.2091 53.0027Z" fill="white"/>
<path d="M56.2335 53.9614C55.9981 53.1432 55.0205 52.8455 53.8285 52.8719C49.3221 52.9707 46.7096 54.8673 44.7642 56.9322C41.4387 60.461 40.8399 66.1007 42.9093 70.1791C44.1501 72.6239 44.1877 71.1865 44.3896 69.5168C44.9411 64.9569 46.6428 61.5993 50.0755 58.7119C51.0949 57.8548 53.0765 56.6428 54.9606 56.0459C55.9327 55.7384 56.5203 54.9647 56.2321 53.9614" fill="white"/>
<path d="M62.8843 72.6754C58.4364 70.0553 56.7472 67.591 55.668 63.6308C55.395 62.6289 54.2253 62.3534 52.9803 62.2672C52.4247 62.2282 51.8857 62.1934 51.3844 62.2143C50.8539 62.2366 50.3929 62.5802 50.223 63.084C49.4404 65.4189 49.1869 69.7672 51.1546 73.3517C52.0737 75.0256 53.3911 76.3072 55.0232 77.2464C56.459 78.0743 58.3013 78.5377 59.6118 77.874C60.957 77.1921 62.454 75.8299 63.3675 74.668C63.8076 74.1086 63.6934 73.1499 62.8843 72.674" fill="white"/>
<path d="M30.7103 30.9395C32.5109 30.7085 41.2716 29.8068 44.0525 29.6217C45.3449 29.5355 45.4771 28.5642 45.2376 27.5721C44.3868 24.0308 42.0041 16.3777 36.5229 11.4519C36.158 11.1235 35.6066 11.1708 35.2974 11.5562C30.6588 17.342 29.5057 25.3889 29.2188 29.0262C29.1381 30.0461 29.858 31.0494 30.7089 30.9395" fill="white"/>
<path d="M19.6144 32.4604L22.465 32.0332C23.068 31.9817 23.547 31.4863 23.5985 30.8629C24.2934 22.4195 27.1566 16.2079 28.5018 13.8786C28.6703 13.5864 28.3347 13.2622 28.0659 13.4584C21.7436 18.0502 19.0852 27.4343 18.4474 30.977C18.3151 31.7131 18.8944 32.5202 19.6144 32.459" fill="white"/>
<path d="M25.3071 29.9961V30.0002C25.2542 30.6236 25.7179 31.1677 26.3418 31.2205C26.3738 31.2233 26.4058 31.2247 26.4365 31.2247C27.02 31.2247 27.5143 30.7767 27.5645 30.1853C27.616 29.5619 27.1536 29.0151 26.5298 28.9636C25.9101 28.9121 25.3586 29.3741 25.3071 29.9974" fill="white"/>
<path d="M28.8873 18.3884C29.0349 18.4524 29.1881 18.483 29.3399 18.483C29.7772 18.483 30.1922 18.2283 30.3788 17.8039C30.3829 17.7928 30.3913 17.7747 30.3955 17.7636C30.628 17.1833 30.3453 16.5252 29.7646 16.2928C29.1895 16.0632 28.5378 16.3373 28.2997 16.9064C28.0546 17.4783 28.3164 18.1407 28.8873 18.3897" fill="white"/>
<path d="M28.5046 23.8499C28.6397 23.2474 28.2637 22.6463 27.6607 22.5029C27.0521 22.3582 26.4422 22.7339 26.2974 23.3434C26.2946 23.3545 26.2904 23.374 26.2876 23.3838C26.1609 23.996 26.555 24.5943 27.1677 24.721C27.2457 24.7377 27.3223 24.7446 27.3989 24.7446C27.9225 24.7446 28.3918 24.3801 28.506 23.8499" fill="white"/>
<path d="M29.3052 20.7775C29.3094 20.7664 29.3149 20.7455 29.3177 20.7344C29.4862 20.1333 29.1353 19.5085 28.5337 19.3387C27.9377 19.1718 27.3194 19.5141 27.1425 20.104C26.9587 20.6982 27.2901 21.3285 27.8834 21.5164C27.9962 21.5526 28.1118 21.5693 28.2246 21.5693C28.705 21.5693 29.152 21.2604 29.3038 20.7775" fill="white"/>
<path d="M27.9251 27.0016C28.0184 26.3921 27.6048 25.8188 26.9949 25.7159C26.378 25.6115 25.7931 26.0262 25.6887 26.6426C25.6873 26.6551 25.6831 26.676 25.6817 26.6885C25.5981 27.3077 26.0312 27.8768 26.6509 27.9617C26.7025 27.9687 26.754 27.9715 26.8041 27.9715C27.3584 27.9715 27.8416 27.5637 27.9237 27.0016" fill="white"/>
<path d="M30.2355 15.3939C30.4221 15.5108 30.6296 15.5664 30.8343 15.5664C31.2089 15.5664 31.5751 15.3814 31.791 15.0432C31.7938 15.0391 31.7952 15.0363 31.7979 15.0321C32.1294 14.502 31.9678 13.8034 31.4373 13.4723C30.9095 13.1425 30.2146 13.3011 29.8818 13.8243C29.879 13.8271 29.8776 13.8313 29.8748 13.8341C29.5434 14.3642 29.7049 15.0627 30.2355 15.3939Z" fill="white"/>
<path d="M50.8066 28.0007C50.9542 28.6074 51.3929 29.0721 51.9959 29.0206L54.9593 28.8258C55.6792 28.7646 56.1485 28.0702 55.902 27.3662C54.7197 23.9765 50.8665 15.5915 43.9106 12.1295C43.614 11.982 43.3341 12.3591 43.5457 12.6179C45.2377 14.6884 48.8013 19.7868 50.8066 28.0007Z" fill="white"/>
<path d="M46.9185 28.1969C47.0508 28.7062 47.5104 29.0429 48.0131 29.0429C48.1078 29.0429 48.2039 29.0304 48.3 29.0053C48.8946 28.8509 49.2539 28.2511 49.1174 27.6584C48.9823 27.0573 48.3891 26.6732 47.7819 26.7998C47.1692 26.9278 46.7765 27.5262 46.9046 28.1384C46.9088 28.1565 46.913 28.1788 46.9185 28.1969Z" fill="white"/>
<path d="M42.1196 16.5655L42.1238 16.5725C42.3396 16.9092 42.7017 17.0915 43.0735 17.0915C43.2838 17.0915 43.4955 17.0331 43.6862 16.912C44.2126 16.5753 44.3644 15.8712 44.0274 15.3452C43.6904 14.8192 42.9899 14.6648 42.4636 15.0015C41.9372 15.3382 41.7826 16.0382 42.1196 16.5655Z" fill="white"/>
<path d="M47.0662 24.8156L47.1066 24.8031L47.0648 24.817L47.0662 24.8156ZM47.108 25.9343C47.2236 25.9343 47.3391 25.9162 47.4547 25.8801C48.0508 25.688 48.378 25.0507 48.1858 24.4566C48.1817 24.4455 48.1747 24.4246 48.1719 24.4134C47.9616 23.8249 47.3141 23.5187 46.725 23.7288C46.1415 23.9362 45.8352 24.5735 46.0329 25.1579C46.1889 25.6338 46.6317 25.9357 47.108 25.9357V25.9343Z" fill="white"/>
<path d="M46.4129 22.8049C46.9936 22.5725 47.2763 21.9144 47.0438 21.3341C47.0438 21.3313 47.0382 21.3216 47.0382 21.3188C46.8028 20.74 46.1442 20.4644 45.5648 20.6982C44.9855 20.932 44.707 21.5929 44.941 22.1718L45.9938 21.7543L44.9424 22.1746C45.1192 22.6171 45.5453 22.887 45.9938 22.887C46.1344 22.887 46.2764 22.8606 46.4143 22.8063" fill="white"/>
<path d="M44.6652 19.9245C44.8323 19.9245 45.0022 19.887 45.1637 19.8091C45.7249 19.5335 45.9575 18.8559 45.6818 18.2951C45.6804 18.2923 45.6748 18.2826 45.6734 18.2798C45.3949 17.7218 44.7167 17.4964 44.1583 17.7747C43.5985 18.0516 43.3715 18.7307 43.6472 19.2914L44.6652 18.7947L43.6486 19.2928C43.845 19.6936 44.2474 19.9259 44.6666 19.9259" fill="white"/>
<path d="M40.2953 14.0887C40.5195 14.3503 40.8356 14.4839 41.1545 14.4839C41.415 14.4839 41.6781 14.3934 41.8912 14.2111C42.3661 13.8048 42.4204 13.0882 42.0138 12.6137C41.6071 12.1392 40.8913 12.0836 40.4165 12.4913C39.9416 12.8976 39.8859 13.6128 40.2939 14.0873V14.0901L40.2953 14.0887Z" fill="white"/>
<path d="M33.32 10.5293L35.0412 8.99033C35.3573 8.70786 35.8238 8.6689 36.1817 8.8971L38.1313 10.1369C38.5226 10.386 38.9975 9.97689 38.8123 9.55388C37.8444 7.35256 36.2945 3.45364 35.5091 0.605292C35.2905 -0.185066 34.3755 -0.262989 34.2753 0.75418C33.9954 3.61923 33.1682 7.74078 32.5513 10.0576C32.4301 10.5098 32.9718 10.8424 33.3214 10.5293" fill="white"/>
<path d="M47.1246 66.4054C46.7124 67.5075 46.4214 68.7222 46.2738 69.9759C46.2654 70.0455 46.3211 70.1081 46.3922 70.1067C46.7835 70.1012 47.2639 70.0692 47.7694 69.9745C47.8265 69.9634 47.8627 69.9091 47.853 69.8535C47.658 68.7083 47.5953 67.5756 47.6343 66.507C47.6455 66.2092 47.2277 66.1271 47.1246 66.4054Z" fill="white"/>
<path d="M51.4584 77.053C50.9055 76.5145 50.439 75.9509 50.0463 75.3874C49.9781 75.29 49.8542 75.251 49.7427 75.2914C48.6468 75.6838 47.6079 75.8104 46.8768 75.8438C46.7807 75.848 46.7153 75.9412 46.7417 76.033C46.9604 76.758 47.2431 77.4551 47.5926 78.1105C47.6511 78.219 47.7681 78.2817 47.8906 78.2733C48.6816 78.2163 50.1633 78.0103 51.4319 77.2881C51.5169 77.2394 51.528 77.1226 51.4584 77.0558" fill="white"/>
<path d="M55.3575 79.5576C54.5164 79.2223 53.7713 78.8229 53.1099 78.3846C53.0138 78.3206 52.8912 78.3234 52.7979 78.3888C51.585 79.2334 50.1771 79.6258 49.0881 79.8053C48.953 79.8276 48.8959 79.9904 48.9851 80.0934C50.0281 81.2998 51.1143 82.0832 52.7617 81.5015C53.5736 81.2149 54.4662 80.8489 55.3867 80.4134C55.7571 80.2381 55.7404 79.7079 55.3589 79.5562" fill="white"/>
<path d="M46.1594 71.899C46.1594 72.6337 46.2109 73.3684 46.3154 74.0919C46.3237 74.1476 46.3711 74.1893 46.4282 74.1893C46.9602 74.1893 47.9266 74.1337 48.9655 73.7997C49.0323 73.7788 49.0629 73.7023 49.0337 73.6397C48.7287 72.9982 48.4795 72.3401 48.2789 71.6749C48.2622 71.6179 48.2051 71.5845 48.1466 71.5956C47.5005 71.7222 46.8293 71.7765 46.2875 71.7737C46.2179 71.7737 46.1594 71.8294 46.1594 71.899Z" fill="white"/>
<path d="M47.1511 24.8157L47.1932 24.8017L47.1511 24.8157Z" fill="#0A022F"/>
</svg>
